<?xml version="1.0" encoding="UTF-8"?>
<svg width="499px" height="457px" viewBox="0 0 499 457" version="1.1" xmlns="http://www.w3.org/2000/svg" xmlns:xlink="http://www.w3.org/1999/xlink">
    <!-- Generator: Sketch 61.2 (89653) - https://sketch.com -->
    <title>MockUp@1x</title>
    <desc>Created with Sketch.</desc>
    <defs>
        <filter x="-25.2%" y="-12.5%" width="150.6%" height="124.9%" filterUnits="objectBoundingBox" id="filter-1">
            <feOffset dx="0" dy="15" in="SourceAlpha" result="shadowOffsetOuter1"></feOffset>
            <feGaussianBlur stdDeviation="20" in="shadowOffsetOuter1" result="shadowBlurOuter1"></feGaussianBlur>
            <feColorMatrix values="0 0 0 0 0   0 0 0 0 0   0 0 0 0 0  0 0 0 0.199819712 0" type="matrix" in="shadowBlurOuter1" result="shadowMatrixOuter1"></feColorMatrix>
            <feMerge>
                <feMergeNode in="shadowMatrixOuter1"></feMergeNode>
                <feMergeNode in="SourceGraphic"></feMergeNode>
            </feMerge>
        </filter>
        <path d="M88.2105263,0 L286.684211,0 L334.894737,0 C356.986127,-4.33003142e-14 374.894737,17.90861 374.894737,40 L374.894737,771.702703 C374.894737,793.794093 356.986127,811.702703 334.894737,811.702703 L40,811.702703 C17.90861,811.702703 6.15687026e-14,793.794093 0,771.702703 L0,40 C-2.705415e-15,17.90861 17.90861,4.05812251e-15 40,0 L88.2105263,0 Z" id="path-2"></path>
        <rect id="path-4" x="-0.0526315789" y="-0.148648649" width="375" height="812"></rect>
        <filter x="-4.0%" y="-1.8%" width="108.0%" height="103.7%" filterUnits="objectBoundingBox" id="filter-5">
            <feGaussianBlur stdDeviation="15" in="SourceAlpha" result="shadowBlurInner1"></feGaussianBlur>
            <feOffset dx="0" dy="0" in="shadowBlurInner1" result="shadowOffsetInner1"></feOffset>
            <feComposite in="shadowOffsetInner1" in2="SourceAlpha" operator="arithmetic" k2="-1" k3="1" result="shadowInnerInner1"></feComposite>
            <feColorMatrix values="0 0 0 0 0   0 0 0 0 0   0 0 0 0 0  0 0 0 0.2 0" type="matrix" in="shadowInnerInner1"></feColorMatrix>
        </filter>
    </defs>
    <g id="01---Home" stroke="none" stroke-width="1" fill="none" fill-rule="evenodd">
        <g id="SPDNT---01.1" transform="translate(-1138.000000, -5360.000000)">
            <g id="Group-20" transform="translate(0.000000, 5281.000000)">
                <g id="MockUp" transform="translate(1178.000000, 104.000000)">
                    <g id="iPhone-Front" filter="url(#filter-1)">
                        <g id="Base" transform="translate(5.513158, 0.000000)" fill="#FFFFFF" fill-rule="nonzero">
                            <path d="M357.973684,0 C385.587922,-5.07265313e-15 407.973684,22.3857625 407.973684,50 L407.973684,796 C407.973684,823.614237 385.587922,846 357.973684,846 L50,846 C22.3857625,846 6.46976933e-14,823.614237 0,796 L0,50 C-3.38176876e-15,22.3857625 22.3857625,5.07265313e-15 50,0 L357.973684,0 Z M357.357895,6.85945946 L50.6157895,6.85945946 C26.3152605,6.85945946 6.61578947,26.5589305 6.61578947,50.8594595 L6.61578947,50.8594595 L6.61578947,795.140541 C6.61578947,819.44107 26.3152605,839.140541 50.6157895,839.140541 L50.6157895,839.140541 L357.357895,839.140541 C381.658424,839.140541 401.357895,819.44107 401.357895,795.140541 L401.357895,795.140541 L401.357895,50.8594595 C401.357895,26.5589305 381.658424,6.85945946 357.357895,6.85945946 L357.357895,6.85945946 Z" id="Combined-Shape"></path>
                        </g>
                        <g id="Elements" transform="translate(0.000000, 102.891892)" fill="#FFFFFF">
                            <path d="M2,0 L4.41052632,0 L4.41052632,0 L4.41052632,28.5810811 L2,28.5810811 C0.8954305,28.5810811 5.7935996e-16,27.6856506 0,26.5810811 L0,2 C-1.3527075e-16,0.8954305 0.8954305,2.02906125e-16 2,0 Z"></path>
                            <path d="M2,57.1621622 L4.41052632,57.1621622 L4.41052632,57.1621622 L4.41052632,109.751351 L2,109.751351 C0.8954305,109.751351 4.50357913e-15,108.855921 0,107.751351 L0,59.1621622 C-1.3527075e-16,58.0575927 0.8954305,57.1621622 2,57.1621622 Z"></path>
                            <path d="M2,125.756757 L4.41052632,125.756757 L4.41052632,125.756757 L4.41052632,178.345946 L2,178.345946 C0.8954305,178.345946 5.7935996e-16,177.450515 0,176.345946 L0,127.756757 C-1.3527075e-16,126.652187 0.8954305,125.756757 2,125.756757 Z"></path>
                            <path d="M416.589474,75.4540541 L419,75.4540541 L419,75.4540541 L419,162.340541 L416.589474,162.340541 C415.484904,162.340541 414.589474,161.44511 414.589474,160.340541 L414.589474,77.4540541 C414.589474,76.3494846 415.484904,75.4540541 416.589474,75.4540541 Z" transform="translate(416.794737, 118.897297) scale(-1, 1) translate(-416.794737, -118.897297) "></path>
                        </g>
                        <g id="Screen" transform="translate(22.052632, 17.148649)">
                            <mask id="mask-3" fill="white">
                                <use xlink:href="#path-2"></use>
                            </mask>
                            <use stroke="#FFFFFF" fill-rule="nonzero" xlink:href="#path-2"></use>
                            <g id="Rectangle" mask="url(#mask-3)" fill="black" fill-opacity="1">
                                <use filter="url(#filter-5)" xlink:href="#path-4"></use>
                            </g>
                            <path d="M374.894737,40 L374.894737,811.702703 L374.894737,811.702703 L0,0 L334.894737,0 C356.986127,-4.05812251e-15 374.894737,17.90861 374.894737,40 Z" id="Lighten" fill="#FFFFFF" fill-rule="nonzero" opacity="0.061924" style="mix-blend-mode: overlay;" mask="url(#mask-3)"></path>
                        </g>
                    </g>
                </g>
            </g>
        </g>
    </g>
</svg>