<?xml version="1.0" encoding="UTF-8"?>
<svg width="1066px" height="114px" viewBox="0 0 1066 114" version="1.1" xmlns="http://www.w3.org/2000/svg" xmlns:xlink="http://www.w3.org/1999/xlink">
    <!-- Generator: Sketch 54.1 (76490) - https://sketchapp.com -->
    <title>SN-Logo-White</title>
    <desc>Created with Sketch.</desc>
    <g id="Page-1" stroke="none" stroke-width="1" fill="none" fill-rule="evenodd">
        <path d="M4.26325641e-14,5.6693 C4.26325641e-14,2.5387 2.5387,-3.97903932e-13 5.6693,-3.97903932e-13 L17.0079,-3.97903932e-13 C20.1385,-3.97903932e-13 22.6772,2.5387 22.6772,5.6693 L22.6772,28.3465 C22.6772,31.4771 20.1385,34.0158 17.0079,34.0158 L5.6693,34.0158 C2.5387,34.0158 4.26325641e-14,31.4771 4.26325641e-14,28.3465 L4.26325641e-14,5.6693 Z M4.26325641e-14,85.0394 C4.26325641e-14,81.9088 2.5387,79.3701 5.6693,79.3701 L17.0079,79.3701 C20.1385,79.3701 22.6772,81.9088 22.6772,85.0394 L22.6772,107.7166 C22.6772,110.8471 20.1385,113.3858 17.0079,113.3858 L5.6693,113.3858 C2.5387,113.3858 4.26325641e-14,110.8471 4.26325641e-14,107.7166 L4.26325641e-14,85.0394 Z M153.0712,79.3704 C153.0712,98.1536 137.8386,113.3861 119.0554,113.3861 L51.0239,113.3861 C47.8934,113.3861 45.3546,110.8474 45.3546,107.7168 L45.3546,96.3783 C45.3546,93.2477 47.8934,90.709 51.0239,90.709 L119.0554,90.709 C125.3166,90.709 130.394,85.6315 130.394,79.3704 C130.394,73.1092 125.3166,68.0318 119.0554,68.0318 L73.7011,68.0318 C54.9179,68.0318 39.6854,52.7993 39.6854,34.0161 C39.6854,15.2328 54.9179,0.0003 73.7011,0.0003 L141.7326,0.0003 C144.8632,0.0003 147.4019,2.539 147.4019,5.6696 L147.4019,17.0082 C147.4019,20.1388 144.8632,22.6775 141.7326,22.6775 L73.7011,22.6775 C67.4399,22.6775 62.3625,27.7549 62.3625,34.0161 C62.3625,40.2772 67.4399,45.3546 73.7011,45.3546 L119.0554,45.3546 C137.8386,45.3546 153.0712,60.5872 153.0712,79.3704 Z M192.7559,90.7087 L192.7559,107.7166 C192.7559,110.8471 190.2172,113.3858 187.0866,113.3858 L175.7481,113.3858 C172.6175,113.3858 170.0788,110.8471 170.0788,107.7166 L170.0788,5.6693 C170.0788,2.5387 172.6175,0 175.7481,0 L249.4491,0.0003 C268.2323,0.0003 283.4649,15.2328 283.4649,34.0161 L283.4649,56.6932 C283.4649,75.4764 268.2323,90.709 249.4491,90.709 L192.7559,90.7087 Z M192.7562,68.0318 L249.4491,68.0318 C255.7103,68.0318 260.7877,62.9544 260.7877,56.6932 L260.7877,34.0161 C260.7877,27.7549 255.7103,22.6775 249.4491,22.6775 L192.7562,22.6775 L192.7562,68.0318 Z M323.1496,68.0315 L323.1499,79.3704 C323.1499,85.6315 328.2273,90.709 334.4885,90.709 L408.1893,90.709 C411.3199,90.709 413.8586,93.2477 413.8586,96.3783 L413.8586,107.7168 C413.8586,110.8474 411.3199,113.3861 408.1893,113.3861 L334.4885,113.3861 C315.7053,113.3861 300.4728,98.1536 300.4728,79.3704 L300.4728,34.0161 C300.4728,15.2328 315.7053,0.0003 334.4885,0.0003 L408.1893,0.0003 C411.3199,0.0003 413.8586,2.539 413.8586,5.6696 L413.8586,17.0082 C413.8586,20.1388 411.3199,22.6775 408.1893,22.6775 L334.4885,22.6775 C328.2273,22.6775 323.1499,27.7549 323.1499,34.0161 L323.1496,45.3544 L385.5118,45.3544 C388.6424,45.3544 391.1811,47.8931 391.1811,51.0236 L391.1811,62.3622 C391.1811,65.4928 388.6424,68.0315 385.5118,68.0315 L323.1496,68.0315 Z M453.5433,68.0315 L453.5436,79.3704 C453.5436,85.6315 458.621,90.709 464.8822,90.709 L538.583,90.709 C541.7136,90.709 544.2523,93.2477 544.2523,96.3783 L544.2523,107.7168 C544.2523,110.8474 541.7136,113.3861 538.583,113.3861 L464.8822,113.3861 C446.099,113.3861 430.8665,98.1536 430.8665,79.3704 L430.8665,34.0161 C430.8665,15.2328 446.099,0.0003 464.8822,0.0003 L538.583,0.0003 C541.7136,0.0003 544.2523,2.539 544.2523,5.6696 L544.2523,17.0082 C544.2523,20.1388 541.7136,22.6775 538.583,22.6775 L464.8822,22.6775 C458.621,22.6775 453.5436,27.7549 453.5436,34.0161 L453.5433,45.3544 L515.9055,45.3544 C519.0361,45.3544 521.5748,47.8931 521.5748,51.0236 L521.5748,62.3622 C521.5748,65.4928 519.0361,68.0315 515.9055,68.0315 L453.5433,68.0315 Z M561.2602,5.6696 C561.2602,2.539 563.7989,0.0003 566.9294,0.0003 L640.6302,0.0003 C659.4134,0.0003 674.646,15.2328 674.646,34.0161 L674.646,79.3704 C674.646,98.1536 659.4134,113.3861 640.6302,113.3861 L566.9294,113.3861 C563.7989,113.3861 561.2602,110.8474 561.2602,107.7168 L561.2602,5.6696 Z M583.937,90.709 L640.6302,90.709 C646.8914,90.709 651.9688,85.6315 651.9688,79.3704 L651.9688,34.0161 C651.9688,27.7549 646.8914,22.6775 640.6302,22.6775 L583.937,22.6772 L583.937,90.709 Z M1060.1575,0 C1063.2881,0 1065.8268,2.5387 1065.8268,5.6693 L1065.8268,17.0079 C1065.8268,20.1385 1063.2881,22.6772 1060.1575,22.6772 L1020.4725,22.6772 L1020.4725,107.7166 C1020.4725,110.8471 1017.9338,113.3858 1014.8032,113.3858 L1003.4646,113.3858 C1000.334,113.3858 997.7953,110.8471 997.7953,107.7166 L997.7953,22.6772 L958.1103,22.6772 C954.9797,22.6772 952.441,20.1385 952.441,17.0079 L952.441,5.6693 C952.441,2.5387 954.9797,0 958.1103,0 L1060.1575,0 Z M784.0222,111.7256 L714.3307,36.7444 L714.3307,107.7166 C714.3307,110.8471 711.792,113.3858 708.6614,113.3858 L697.3229,113.3858 C694.1923,113.3858 691.6536,110.8471 691.6536,107.7166 L691.6536,5.6693 C691.6536,2.5387 694.1923,0 697.3229,0 L708.6614,0 C710.1647,0 711.6078,0.5978 712.6702,1.6603 L782.362,76.6412 L782.3622,5.6693 C782.3622,2.5387 784.9009,0 788.0315,0 L799.3701,0 C802.5007,0 805.0394,2.5387 805.0394,5.6693 L805.0394,107.7166 C805.0394,110.8471 802.5007,113.3858 799.3701,113.3858 L788.0315,113.3858 C786.528,113.3858 785.0846,112.788 784.0222,111.7256 Z M844.7244,68.0315 L844.7247,79.3704 C844.7247,85.6315 849.8021,90.709 856.0633,90.709 L929.7641,90.709 C932.8947,90.709 935.4334,93.2477 935.4334,96.3783 L935.4334,107.7168 C935.4334,110.8474 932.8947,113.3861 929.7641,113.3861 L856.0633,113.3861 C837.2801,113.3861 822.0476,98.1536 822.0476,79.3704 L822.0476,34.0161 C822.0476,15.2328 837.2801,0.0003 856.0633,0.0003 L929.7641,0.0003 C932.8947,0.0003 935.4334,2.539 935.4334,5.6696 L935.4334,17.0082 C935.4334,20.1388 932.8947,22.6775 929.7641,22.6775 L856.0633,22.6775 C849.8021,22.6775 844.7247,27.7549 844.7247,34.0161 L844.7244,45.3544 L907.0866,45.3544 C910.2172,45.3544 912.7559,47.8931 912.7559,51.0236 L912.7559,62.3622 C912.7559,65.4928 910.2172,68.0315 907.0866,68.0315 L844.7244,68.0315 Z" id="SN-Logo-White" fill="#FFFFFF"></path>
    </g>
</svg>