<svg
   xmlns:svg="http://www.w3.org/2000/svg"
   xmlns="http://www.w3.org/2000/svg"
   version="1.1"
   id="svg2"
   xml:space="preserve"
   width="97.208397"
   height="67.084663"
   viewBox="0 0 97.208397 67.084663"><metadata
     id="metadata8"></metadata><defs
     id="defs6"><clipPath
       clipPathUnits="userSpaceOnUse"
       id="clipPath18"><path
         d="M 0,50.313 H 72.906 V 0 H 0 Z"
         id="path16" /></clipPath></defs><g
     id="g10"
     transform="matrix(1.3333333,0,0,-1.3333333,0,67.084667)"><g
       id="g12"><g
         id="g14"
         clip-path="url(#clipPath18)"><g
           id="g20"
           transform="translate(18.5068,47.2451)"><path
             d="m 0,0 c 15.801,-3.757 32.041,-5.443 48.168,-2.845 -0.299,0.228 -0.599,0.455 -0.897,0.683 0.095,-5.43 -0.562,-10.945 -1.645,-16.255 -0.928,-4.553 -2.341,-9.037 -4.52,-13.152 -1.05,-1.985 -2.345,-3.827 -3.859,-5.484 -0.723,-0.791 -2.681,-3.089 -3.698,-3.087 -6.165,0.014 -12.337,0.28 -18.487,0.707 -9.018,0.627 -18.486,1.395 -27.057,4.464 -1.174,0.42 -2.308,0.938 -3.39,1.559 l 0.255,-0.97 c 6.217,11.212 11.929,22.693 16.002,34.875 0.291,0.869 -1.078,1.239 -1.367,0.377 -4.034,-12.067 -9.701,-23.432 -15.859,-34.537 -0.186,-0.335 -0.086,-0.774 0.254,-0.97 6.957,-3.993 15.93,-4.743 23.746,-5.572 7.838,-0.831 15.735,-1.208 23.615,-1.328 2.154,-0.033 2.884,-0.09 4.697,1.373 3.395,2.737 5.778,6.382 7.571,10.32 3.293,7.232 4.573,15.38 5.037,23.26 0.087,1.47 0.148,2.948 0.122,4.42 -0.008,0.498 -0.443,0.757 -0.897,0.683 C 31.929,-4.034 15.915,-2.328 0.377,1.366 -0.512,1.578 -0.889,0.211 0,0"
             style="fill:#1a171b;fill-opacity:1;fill-rule:nonzero;stroke:none"
             id="path22" /></g><g
           id="g24"
           transform="translate(28.9873,41.5381)"><path
             d="M 0,0 C -2.121,0.782 -3.452,2.855 -2.774,5.098 -1.901,7.988 1.462,6.937 3.29,5.778 4.064,5.288 4.774,6.514 4.005,7.002 1.408,8.648 -2.548,9.327 -3.993,5.857 -5.273,2.785 -3.297,-0.29 -0.377,-1.367 0.482,-1.684 0.85,-0.313 0,0"
             style="fill:#1a171b;fill-opacity:1;fill-rule:nonzero;stroke:none"
             id="path26" /></g><g
           id="g28"
           transform="translate(41.4473,40.2808)"><path
             d="M 0,0 C -2.3,1.357 -3.959,4.051 -2.755,6.709 -1.389,9.727 2.121,8.479 4.171,7.036 4.92,6.508 5.627,7.737 4.886,8.259 2.056,10.253 -2.08,11.041 -3.979,7.425 -5.699,4.146 -3.601,0.479 -0.715,-1.224 0.074,-1.689 0.787,-0.464 0,0"
             style="fill:#1a171b;fill-opacity:1;fill-rule:nonzero;stroke:none"
             id="path30" /></g><g
           id="g32"
           transform="translate(56.6328,39.8779)"><path
             d="M 0,0 C -2.345,1.385 -3.898,3.938 -3.143,6.693 -2.215,10.077 1.455,8.894 3.521,7.438 4.271,6.911 4.978,8.14 4.236,8.662 1.491,10.596 -2.54,11.392 -4.25,7.751 -5.857,4.331 -3.695,0.536 -0.715,-1.224 0.074,-1.689 0.786,-0.464 0,0"
             style="fill:#1a171b;fill-opacity:1;fill-rule:nonzero;stroke:none"
             id="path34" /></g><g
           id="g36"
           transform="translate(66.0762,44.9707)"><path
             d="m 0,0 c 1.6,-10.641 0.162,-21.812 -1.595,-32.341 -0.393,-2.355 -0.843,-4.702 -1.334,-7.039 -0.191,-0.913 -0.396,-1.822 -0.606,-2.73 -0.245,-1.062 -1.136,-0.933 -2.084,-1.081 -4.012,-0.627 -8.117,-0.725 -12.171,-0.754 -12.967,-0.093 -26.041,1.028 -38.902,2.654 0.122,-0.213 0.245,-0.426 0.367,-0.64 0.968,2.222 1.704,4.542 2.139,6.929 0.098,0.536 -0.721,0.766 -0.82,0.227 -0.421,-2.311 -1.116,-4.576 -2.054,-6.726 -0.137,-0.316 0.029,-0.598 0.368,-0.64 7.023,-0.888 14.087,-1.519 21.147,-2.006 10.566,-0.731 21.838,-1.628 32.297,0.521 0.139,0.028 0.264,0.161 0.297,0.297 1.613,6.705 2.743,13.528 3.54,20.376 0.89,7.65 1.381,15.531 0.231,23.179 C 0.738,0.767 -0.08,0.536 0,0"
             style="fill:#1a171b;fill-opacity:1;fill-rule:nonzero;stroke:none"
             id="path38" /></g><g
           id="g40"
           transform="translate(66.1855,44.7827)"><path
             d="m 0,0 c 1.738,-2.138 1.754,-6.289 2.023,-8.855 0.456,-4.338 0.635,-8.708 0.768,-13.066 0.113,-3.729 0.156,-7.46 0.165,-11.191 10e-4,-0.496 0.082,-2.686 0.095,-2.672 -1.506,-1.76 -3.666,-2.926 -5.753,-3.839 -0.501,-0.219 -0.068,-0.952 0.43,-0.734 2.153,0.941 4.21,2.149 5.835,3.873 0.503,0.533 0.245,1.739 0.245,2.416 0,4.05 -0.05,8.1 -0.167,12.147 -0.139,4.846 -0.367,9.702 -0.928,14.52 C 2.422,-4.896 2.271,-1.453 0.602,0.602 0.256,1.027 -0.343,0.421 0,0"
             style="fill:#1a171b;fill-opacity:1;fill-rule:nonzero;stroke:none"
             id="path42" /></g><g
           id="g44"
           transform="translate(22.2188,34.2158)"><path
             d="m 0,0 c -0.514,-1.677 -1.301,-3.262 -2.014,-4.86 -0.105,-0.237 -0.037,-0.559 0.254,-0.625 1.056,-0.236 2.156,-0.313 3.231,-0.424 0.461,-0.047 1.877,-0.452 2.3,-0.138 1.282,0.953 1.913,3.632 2.026,5.148 0.014,0.182 -0.139,0.368 -0.312,0.41 C 3.824,-0.093 2.104,0.099 0.41,0.313 -0.133,0.381 -0.126,-0.47 0.41,-0.538 2.027,-0.742 3.672,-0.931 5.259,-1.31 5.155,-1.173 5.051,-1.036 4.947,-0.899 4.901,-1.509 3.956,-5.29 3.465,-5.247 c -1.656,0.144 -3.374,0.22 -4.998,0.582 0.084,-0.208 0.169,-0.416 0.254,-0.624 0.742,1.663 1.565,3.318 2.099,5.063 C 0.981,0.3 0.16,0.523 0,0"
             style="fill:#1a171b;fill-opacity:1;fill-rule:nonzero;stroke:none"
             id="path46" /></g><g
           id="g48"
           transform="translate(35.8105,32.6084)"><path
             d="m 0,0 c -0.482,-1.66 -1.012,-3.333 -1.694,-4.923 -0.102,-0.237 -0.04,-0.559 0.254,-0.624 1.01,-0.223 2.068,-0.276 3.096,-0.365 0.757,-0.065 1.925,-0.384 2.674,-0.178 0.711,0.196 0.965,1.721 1.124,2.278 0.28,0.982 0.591,2.043 0.659,3.068 0.011,0.173 -0.137,0.381 -0.312,0.41 -1.783,0.296 -3.593,0.461 -5.391,0.646 -0.545,0.056 -0.54,-0.795 0,-0.851 1.722,-0.176 3.456,-0.332 5.164,-0.615 -0.103,0.136 -0.208,0.273 -0.312,0.41 -0.049,-0.752 -0.288,-1.522 -0.47,-2.249 -0.12,-0.48 -0.259,-0.954 -0.41,-1.425 -0.083,-0.255 -0.18,-0.503 -0.297,-0.744 -0.146,-0.3 0.127,-0.092 0.048,-0.087 -1.764,0.118 -3.617,0.142 -5.347,0.522 0.085,-0.209 0.169,-0.417 0.254,-0.625 0.713,1.659 1.276,3.393 1.78,5.125 C 0.974,0.302 0.152,0.525 0,0"
             style="fill:#1a171b;fill-opacity:1;fill-rule:nonzero;stroke:none"
             id="path50" /></g><g
           id="g52"
           transform="translate(49.7715,31.4326)"><path
             d="m 0,0 c -0.474,-1.663 -0.905,-3.364 -1.576,-4.961 -0.087,-0.207 0.092,-0.477 0.297,-0.523 1.841,-0.41 3.795,-0.472 5.671,-0.621 0.151,-0.012 0.29,0.091 0.367,0.21 0.952,1.475 1.548,3.647 1.661,5.396 0.016,0.238 -0.205,0.417 -0.425,0.425 -1.864,0.07 -3.726,0.23 -5.585,0.386 -0.547,0.045 -0.543,-0.805 0,-0.851 C 2.269,-0.694 4.131,-0.854 5.995,-0.924 5.854,-0.783 5.712,-0.641 5.57,-0.499 5.515,-1.345 5.231,-2.213 5.006,-3.025 4.84,-3.625 4.641,-4.22 4.395,-4.792 4.321,-4.957 4.24,-5.117 4.149,-5.272 c 0.036,0.064 0.387,0.005 0.058,0.032 -1.738,0.141 -3.555,0.196 -5.26,0.576 0.099,-0.174 0.198,-0.349 0.297,-0.524 0.67,1.598 1.102,3.299 1.576,4.961 C 0.971,0.302 0.15,0.526 0,0"
             style="fill:#1a171b;fill-opacity:1;fill-rule:nonzero;stroke:none"
             id="path54" /></g><g
           id="g56"
           transform="translate(18.3418,23.2266)"><path
             d="m 0,0 c -0.513,-1.676 -1.299,-3.263 -2.015,-4.859 -0.106,-0.237 -0.037,-0.56 0.254,-0.625 1.056,-0.236 2.157,-0.314 3.232,-0.424 0.46,-0.047 1.877,-0.452 2.3,-0.138 1.281,0.954 1.911,3.631 2.024,5.147 0.014,0.182 -0.139,0.368 -0.312,0.41 -1.661,0.397 -3.38,0.588 -5.073,0.802 -0.543,0.068 -0.536,-0.783 0,-0.851 1.617,-0.204 3.26,-0.392 4.847,-0.772 -0.104,0.137 -0.208,0.274 -0.312,0.411 -0.046,-0.61 -0.99,-4.389 -1.48,-4.347 -1.656,0.144 -3.375,0.22 -4.999,0.582 0.085,-0.208 0.169,-0.417 0.254,-0.625 0.745,1.662 1.566,3.318 2.1,5.063 C 0.98,0.3 0.16,0.523 0,0"
             style="fill:#1a171b;fill-opacity:1;fill-rule:nonzero;stroke:none"
             id="path58" /></g><g
           id="g60"
           transform="translate(32.3027,21.6191)"><path
             d="m 0,0 c -0.483,-1.66 -1.012,-3.333 -1.694,-4.923 -0.102,-0.237 -0.04,-0.56 0.254,-0.625 1.01,-0.222 2.067,-0.275 3.095,-0.363 0.758,-0.066 1.926,-0.385 2.675,-0.179 0.711,0.196 0.965,1.721 1.125,2.278 0.281,0.983 0.591,2.043 0.658,3.068 0.012,0.173 -0.136,0.381 -0.311,0.411 -1.784,0.295 -3.594,0.46 -5.392,0.645 -0.545,0.056 -0.54,-0.795 0,-0.851 C 2.133,-0.715 3.867,-0.871 5.575,-1.154 5.472,-1.017 5.367,-0.88 5.264,-0.744 5.214,-1.495 4.975,-2.266 4.793,-2.992 4.673,-3.473 4.534,-3.947 4.382,-4.418 4.3,-4.673 4.202,-4.921 4.085,-5.162 c -0.146,-0.3 0.127,-0.092 0.048,-0.087 -1.764,0.118 -3.617,0.142 -5.347,0.521 0.085,-0.208 0.169,-0.417 0.254,-0.625 0.712,1.66 1.275,3.394 1.78,5.126 C 0.974,0.301 0.153,0.525 0,0"
             style="fill:#1a171b;fill-opacity:1;fill-rule:nonzero;stroke:none"
             id="path62" /></g><g
           id="g64"
           transform="translate(46.6709,20.0459)"><path
             d="m 0,0 c -0.517,-1.676 -1.299,-3.262 -2.014,-4.859 -0.105,-0.237 -0.037,-0.561 0.254,-0.625 1.087,-0.241 2.225,-0.305 3.33,-0.41 0.618,-0.057 2.127,-0.492 2.706,-0.153 0.632,0.37 0.918,1.82 1.131,2.439 0.332,0.966 0.629,1.947 0.91,2.93 C 6.396,-0.404 6.18,-0.15 5.907,-0.14 4.071,-0.068 2.237,0.125 0.41,0.312 -0.136,0.368 -0.13,-0.483 0.41,-0.539 2.237,-0.726 4.071,-0.918 5.907,-0.99 5.771,-0.811 5.634,-0.631 5.497,-0.452 5.304,-1.132 5.096,-1.808 4.883,-2.481 4.726,-2.98 4.557,-3.476 4.382,-3.969 4.271,-4.282 3.714,-5.228 4.037,-5.253 c -1.84,0.142 -3.766,0.19 -5.57,0.589 0.085,-0.208 0.169,-0.417 0.254,-0.625 0.743,1.663 1.561,3.318 2.099,5.062 C 0.982,0.299 0.161,0.522 0,0"
             style="fill:#1a171b;fill-opacity:1;fill-rule:nonzero;stroke:none"
             id="path66" /></g><g
           id="g68"
           transform="translate(3.2637,21.7207)"><path
             d="m 0,0 c -1.09,-1.657 -2.031,-3.411 -3.185,-5.026 -0.319,-0.448 0.419,-0.872 0.735,-0.43 1.153,1.616 2.095,3.37 3.184,5.026 C 1.037,0.03 0.3,0.456 0,0"
             style="fill:#1a171b;fill-opacity:1;fill-rule:nonzero;stroke:none"
             id="path70" /></g><g
           id="g72"
           transform="translate(68.2305,1.5322)"><path
             d="M 0,0 C 1.877,0.729 3.256,1.897 4.552,3.417 4.905,3.832 4.307,4.437 3.95,4.019 2.76,2.623 1.504,1.493 -0.227,0.82 -0.731,0.624 -0.512,-0.199 0,0"
             style="fill:#1a171b;fill-opacity:1;fill-rule:nonzero;stroke:none"
             id="path74" /></g></g></g></g></svg>