<svg
   xmlns:svg="http://www.w3.org/2000/svg"
   xmlns="http://www.w3.org/2000/svg"
   version="1.1"
   id="svg2"
   xml:space="preserve"
   width="68.833336"
   height="75.21093"
   viewBox="0 0 68.833336 75.21093"><metadata
     id="metadata8"></metadata><defs
     id="defs6"><clipPath
       clipPathUnits="userSpaceOnUse"
       id="clipPath18"><path
         d="M 0,56.408 H 51.625 V 0 H 0 Z"
         id="path16" /></clipPath></defs><g
     id="g10"
     transform="matrix(1.3333333,0,0,-1.3333333,0,75.210933)"><g
       id="g12"><g
         id="g14"
         clip-path="url(#clipPath18)"><g
           id="g20"
           transform="translate(22.4688,23.7837)"><path
             d="M 0,0 C 0.563,0.272 1.074,-0.076 1.34,-0.578 1.667,-1.198 1.259,-1.797 0.66,-2.01 0.127,-2.2 -0.445,-2.033 -0.65,-1.477 -0.874,-0.87 -0.524,-0.297 0,0 0.477,0.271 0.048,1.005 -0.43,0.734 -1.321,0.228 -1.805,-0.794 -1.438,-1.789 c 0.378,-1.028 1.475,-1.343 2.449,-0.998 1.06,0.377 1.575,1.52 1.104,2.548 -0.457,1 -1.543,1.458 -2.545,0.973 C -0.923,0.495 -0.491,-0.238 0,0"
             style="fill:#1a171b;fill-opacity:1;fill-rule:nonzero;stroke:none"
             id="path22" /></g><g
           id="g24"
           transform="translate(22.8848,24.2534)"><path
             d="m 0,0 c 0.064,2.519 0.128,5.038 0.192,7.557 0.032,1.228 0.062,2.456 0.093,3.683 0.016,0.597 -0.157,0.076 0.153,0.4 0.674,0.708 1.345,1.419 1.993,2.152 C 2.193,13.854 1.957,13.917 1.72,13.979 1.963,13.258 2.781,11.419 2.718,11.085 2.504,9.959 2.29,8.834 2.076,7.709 1.589,5.143 1.102,2.577 0.614,0.01 0.513,-0.525 1.332,-0.754 1.435,-0.215 1.949,2.497 2.465,5.21 2.98,7.923 3.172,8.937 3.365,9.95 3.558,10.964 3.726,11.848 2.825,13.361 2.54,14.206 2.444,14.489 2.054,14.647 1.829,14.393 1.307,13.802 -0.533,12.491 -0.555,11.663 -0.581,10.605 -0.607,9.547 -0.635,8.49 -0.706,5.66 -0.778,2.83 -0.85,0 -0.864,-0.549 -0.014,-0.547 0,0"
             style="fill:#1a171b;fill-opacity:1;fill-rule:nonzero;stroke:none"
             id="path26" /></g><g
           id="g28"
           transform="translate(24.1777,23.1904)"><path
             d="m 0,0 c 2.321,0.288 4.643,0.577 6.964,0.865 1.218,0.151 2.434,0.302 3.651,0.453 0.883,0.109 1.864,-0.583 2.677,-0.923 -0.063,0.236 -0.125,0.474 -0.188,0.71 -0.34,-0.398 -0.682,-0.797 -1.024,-1.195 -0.323,-0.378 -0.743,-0.727 -0.541,-0.73 -1.173,0.014 -2.346,0.027 -3.518,0.041 -2.673,0.03 -5.347,0.06 -8.021,0.091 -0.549,0.006 -0.548,-0.844 0,-0.85 2.826,-0.032 5.653,-0.065 8.479,-0.097 1.057,-0.012 2.113,-0.024 3.169,-0.036 0.68,-0.008 1.654,1.703 2.058,2.175 0.225,0.263 0.115,0.584 -0.187,0.711 -0.636,0.265 -1.825,1.087 -2.51,1.002 L 7.883,1.829 C 5.256,1.503 2.628,1.177 0,0.851 -0.537,0.784 -0.543,-0.067 0,0"
             style="fill:#1a171b;fill-opacity:1;fill-rule:nonzero;stroke:none"
             id="path30" /></g><g
           id="g32"
           transform="translate(3.8242,14.416)"><path
             d="M 0,0 C -2.963,5.219 -2.941,11.342 -1.117,16.943 0.959,23.316 5.795,27.652 11.684,30.539 23.853,36.504 35.723,29.049 41.188,17.877 44.113,11.899 44.35,5.11 41.296,-0.841 38.709,-5.882 33.797,-10.335 28.406,-12.114 17.717,-15.643 5.576,-9.103 0,0 -0.476,0.778 -1.702,0.066 -1.223,-0.715 4.104,-9.411 14.145,-15.114 24.432,-14.327 34.561,-13.552 43.463,-4.286 44.808,5.6 46.259,16.275 38.645,27.934 29.119,32.354 19.002,37.048 6.29,31.781 0.258,22.958 -4.383,16.169 -5.327,6.513 -1.223,-0.715 -0.772,-1.51 0.452,-0.796 0,0"
             style="fill:#1a171b;fill-opacity:1;fill-rule:nonzero;stroke:none"
             id="path34" /></g><g
           id="g36"
           transform="translate(49.6035,30.8242)"><path
             d="M 0,0 C 0.812,-1.397 1.434,-3.612 1.072,-5.218 0.952,-5.751 1.771,-5.979 1.893,-5.443 2.308,-3.599 1.666,-1.175 0.734,0.429 0.459,0.903 -0.276,0.475 0,0"
             style="fill:#1a171b;fill-opacity:1;fill-rule:nonzero;stroke:none"
             id="path38" /></g><g
           id="g40"
           transform="translate(20.7031,48.1592)"><path
             d="M 0,0 C -2.793,5.461 12.933,3.675 8.879,-0.587 8.249,-1.249 9.25,-2.252 9.881,-1.589 16.417,5.281 -5.667,7.975 -1.225,-0.716 -0.809,-1.53 0.415,-0.813 0,0"
             style="fill:#1a171b;fill-opacity:1;fill-rule:nonzero;stroke:none"
             id="path42" /></g><g
           id="g44"
           transform="translate(17.3398,52.7939)"><path
             d="M 0,0 C 1.374,2.189 4.519,3.079 6.941,2.626 7.478,2.527 7.706,3.346 7.168,3.447 4.355,3.971 0.855,2.962 -0.734,0.43 -1.027,-0.037 -0.291,-0.463 0,0"
             style="fill:#1a171b;fill-opacity:1;fill-rule:nonzero;stroke:none"
             id="path46" /></g><g
           id="g48"
           transform="translate(5.2207,10.4414)"><path
             d="M 0,0 C -1.736,-1.329 -2.859,-3.631 -0.922,-5.341 0.717,-6.787 3.087,-6.317 4.323,-4.636 4.648,-4.193 3.91,-3.77 3.589,-4.206 2.652,-5.479 0.926,-5.74 -0.32,-4.739 -1.872,-3.493 -0.841,-1.707 0.43,-0.734 0.858,-0.406 0.436,0.333 0,0"
             style="fill:#1a171b;fill-opacity:1;fill-rule:nonzero;stroke:none"
             id="path50" /></g><g
           id="g52"
           transform="translate(38.4238,4.7549)"><path
             d="M 0,0 C 1.513,-1.454 3.855,-2.369 5.65,-0.848 7.519,0.735 6.126,3.247 4.63,4.455 4.207,4.796 3.602,4.198 4.028,3.854 5.187,2.919 6.418,1.231 5.158,-0.142 3.85,-1.567 1.705,-0.46 0.602,0.602 0.206,0.981 -0.396,0.381 0,0"
             style="fill:#1a171b;fill-opacity:1;fill-rule:nonzero;stroke:none"
             id="path54" /></g><g
           id="g56"
           transform="translate(4.5996,26.9531)"><path
             d="m 0,0 c 0.989,5.47 3.84,9.752 8.284,13.035 2.005,1.481 4.286,2.836 6.602,3.758 3.189,1.269 6.891,0.557 10.019,-0.523 3.741,-1.291 6.994,-4.421 9.483,-7.38 3.63,-4.316 5.831,-10.061 4.638,-15.703 -0.974,-4.61 -4.471,-9.927 -8.338,-12.627 -3.506,-2.451 -7.973,-3.122 -12.142,-2.558 -4.561,0.616 -8.711,2.962 -12.011,6.096 C 2.513,-12.082 -1.193,-5.715 0,0 c 0.111,0.535 -0.708,0.763 -0.82,0.227 -1.107,-5.305 1.712,-10.753 4.949,-14.772 3.047,-3.78 7.297,-6.505 11.955,-7.81 3.937,-1.104 8.442,-0.964 12.216,0.67 4.586,1.987 7.06,5.476 9.462,9.698 5.593,9.836 0.197,20.298 -8.127,26.537 -3.811,2.857 -8.584,4.243 -13.327,3.508 C 11.443,17.304 6.115,13.025 3.097,9.307 0.971,6.687 -0.226,3.516 -0.82,0.227 -0.917,-0.31 -0.098,-0.539 0,0"
             style="fill:#1a171b;fill-opacity:1;fill-rule:nonzero;stroke:none"
             id="path58" /></g><g
           id="g60"
           transform="translate(6.7188,25.1733)"><path
             d="M 0,0 C 0.686,-0.008 1.607,-0.005 2.243,-0.285 2.74,-0.502 3.174,0.23 2.673,0.45 1.883,0.796 0.853,0.841 0,0.851 -0.549,0.857 -0.548,0.006 0,0"
             style="fill:#1a171b;fill-opacity:1;fill-rule:nonzero;stroke:none"
             id="path62" /></g><g
           id="g64"
           transform="translate(23.248,7.0908)"><path
             d="m 0,0 c 0.187,0.624 0.207,1.314 0.223,1.962 0.011,0.549 -0.839,0.548 -0.852,0 C -0.641,1.387 -0.654,0.78 -0.82,0.227 -0.978,-0.301 -0.157,-0.523 0,0"
             style="fill:#1a171b;fill-opacity:1;fill-rule:nonzero;stroke:none"
             id="path66" /></g><g
           id="g68"
           transform="translate(24.8672,42.5513)"><path
             d="m 0,0 c -0.073,-0.627 -0.169,-1.263 -0.18,-1.895 -0.009,-0.548 0.84,-0.547 0.85,0 C 0.682,-1.263 0.777,-0.627 0.852,0 0.915,0.544 0.063,0.538 0,0"
             style="fill:#1a171b;fill-opacity:1;fill-rule:nonzero;stroke:none"
             id="path70" /></g><g
           id="g72"
           transform="translate(41.8828,24.4004)"><path
             d="m 0,0 h -1.262 c -0.549,0 -0.549,-0.851 0,-0.851 H 0 C 0.549,-0.851 0.549,0 0,0"
             style="fill:#1a171b;fill-opacity:1;fill-rule:nonzero;stroke:none"
             id="path74" /></g></g></g></g></svg>