<svg
   xmlns:svg="http://www.w3.org/2000/svg"
   xmlns="http://www.w3.org/2000/svg"
   version="1.1"
   id="svg2"
   xml:space="preserve"
   width="162.16267"
   height="92.219467"
   viewBox="0 0 162.16267 92.219467"
   ><metadata
     id="metadata8"></metadata><defs
     id="defs6"><clipPath
       clipPathUnits="userSpaceOnUse"
       id="clipPath18"><path
         d="M 0,69.165 H 121.622 V 0 H 0 Z"
         id="path16" /></clipPath></defs><g
     id="g10"
     transform="matrix(1.3333333,0,0,-1.3333333,0,92.219467)"><g
       id="g12"><g
         id="g14"
         clip-path="url(#clipPath18)"><g
           id="g20"
           transform="translate(19.0156,66.2476)"><path
             d="m 0,0 c -1.955,-3.073 -1.759,-8.26 -1.994,-11.738 -0.412,-6.076 0.011,-12.106 0.17,-18.184 0.168,-6.381 0.201,-12.962 1.168,-19.285 0.512,-3.345 2.669,-5.212 6.002,-5.377 13.606,-0.673 27.365,-0.081 40.98,0.048 7.718,0.074 15.435,0.161 23.153,0.288 2.304,0.038 4.609,0.077 6.913,0.141 1.037,0.029 2.303,-0.156 2.97,0.814 1.299,1.891 1.336,4.813 1.546,7.004 0.41,4.295 0.475,8.627 0.51,12.938 0.066,8.032 0.019,16.138 -0.525,24.155 C 80.646,-5.572 80.131,-0.719 77.31,1.899 75.819,3.282 72.946,2.696 71.088,2.698 62.681,2.705 54.274,2.871 45.868,2.91 38.071,2.945 30.313,2.547 22.522,2.404 17.622,2.314 12.715,2.279 7.824,1.944 5.718,1.799 1.666,1.936 0.111,0.144 -0.485,-0.543 0.513,-1.55 1.113,-0.858 1.878,0.024 3.779,0.098 4.838,0.24 7.185,0.555 9.565,0.648 11.93,0.743 17.396,0.961 22.868,0.954 28.335,1.122 36.522,1.373 44.668,1.517 52.864,1.443 60.197,1.377 67.625,0.945 74.952,1.33 c 5.95,0.312 4.893,-19.92 4.972,-23.936 0.172,-8.676 0.514,-17.632 -0.732,-26.247 -0.189,-1.304 -0.263,-3.742 -1.72,-3.801 -1.874,-0.076 -3.752,-0.1 -5.628,-0.136 -15.901,-0.294 -31.807,-0.422 -47.711,-0.482 -4.649,-0.018 -9.298,-0.029 -13.947,0.01 -3.392,0.029 -7.995,-0.666 -9.242,3.369 -0.497,1.608 -0.482,3.394 -0.577,5.061 -0.143,2.499 -0.397,4.988 -0.525,7.489 -0.289,5.636 -0.286,11.281 -0.61,16.916 -0.202,3.534 0.056,7.132 0.336,10.653 0.216,2.719 0.132,6.664 1.656,9.059 C 1.716,0.059 0.489,0.769 0,0"
             style="fill:#1a171b;fill-opacity:1;fill-rule:nonzero;stroke:none"
             id="path22" /></g><g
           id="g24"
           transform="translate(22.9106,53.002)"><path
             d="m 0,0 c -0.317,-9.838 -0.257,-19.822 0.473,-29.643 0.234,-3.143 1.745,-5.749 4.965,-6.403 2.799,-0.57 6.049,-0.162 8.885,-0.137 9.634,0.083 19.271,0.18 28.905,0.073 4.52,-0.05 8.993,-0.153 13.51,0.164 3.938,0.277 8.845,0.303 12.534,1.903 2.027,0.878 2.214,4.355 2.463,6.202 0.578,4.282 0.606,8.646 0.575,12.96 -0.034,4.63 -0.245,9.261 -0.61,13.877 C 71.515,1.328 71.752,4.8 70.182,6.724 66.922,10.719 61.855,9.338 57.338,9.28 52.105,9.212 46.849,9.488 41.614,9.521 31.055,9.587 20.486,9.55 9.931,9.219 7.593,9.146 5.218,9.125 2.896,8.82 -0.433,8.383 0.083,2.265 0,0 -0.024,-0.645 0.976,-0.643 1,0 1.063,1.702 0.64,7.524 3.056,7.841 4.224,7.994 5.412,8.033 6.587,8.09 10.807,8.295 15.034,8.361 19.258,8.426 30.408,8.598 41.566,8.602 52.716,8.384 55.149,8.336 57.567,8.249 60,8.373 c 3.171,0.16 6.353,0.707 8.883,-1.678 2.221,-2.092 1.768,-6.875 1.964,-9.672 0.615,-8.779 1.305,-18.306 -0.474,-26.989 -0.192,-0.938 -0.444,-2.622 -1.382,-3.117 -1.511,-0.797 -3.622,-0.9 -5.277,-1.141 -5.3,-0.771 -10.751,-1.14 -16.106,-0.97 -9.162,0.292 -18.348,0.126 -27.512,0.058 -3.562,-0.027 -7.124,-0.062 -10.686,-0.088 -1.576,-0.011 -3.149,-0.051 -4.682,0.376 -2.231,0.621 -3.087,3.128 -3.255,5.205 C 0.677,-19.839 0.684,-9.823 1,0 1.021,0.645 0.021,0.643 0,0"
             style="fill:#1a171b;fill-opacity:1;fill-rule:nonzero;stroke:none"
             id="path26" /></g><g
           id="g28"
           transform="translate(45.9951,12.2163)"><path
             d="m 0,0 -2.933,-4.96 c -0.466,-0.789 0.76,-1.501 1.224,-0.716 0.978,1.654 1.955,3.307 2.933,4.961 C 1.69,0.074 0.464,0.786 0,0"
             style="fill:#1a171b;fill-opacity:1;fill-rule:nonzero;stroke:none"
             id="path30" /></g><g
           id="g32"
           transform="translate(66.2612,11.855)"><path
             d="m 0,0 c 1.4,-1.834 2.809,-3.665 4.262,-5.458 0.575,-0.71 1.571,0.299 1.002,1.002 -1.377,1.7 -2.713,3.434 -4.04,5.172 C 0.677,1.432 -0.555,0.727 0,0"
             style="fill:#1a171b;fill-opacity:1;fill-rule:nonzero;stroke:none"
             id="path34" /></g><g
           id="g36"
           transform="translate(39.7734,5.3813)"><path
             d="m 0,0 c 7.616,1.477 15.51,0.836 23.21,0.623 3.193,-0.089 6.41,0.13 9.594,-0.107 2.379,-0.177 2.383,-1.676 1.8,-3.463 -0.187,-0.576 -0.197,-0.182 -0.08,-0.136 C 34.142,-3.232 33.723,-3.3 33.322,-3.376 27.747,-4.44 21.634,-3.934 15.998,-3.791 c -2.599,0.066 -5.195,0.223 -7.793,0.264 -1.407,0.023 -2.811,0.056 -4.214,0.17 -1.269,0.104 -2.913,0.196 -3.005,2.066 -0.034,0.697 -0.054,1.258 -0.255,1.926 -0.262,0.873 -1.63,0.5 -1.366,-0.377 0.502,-1.669 -0.024,-2.901 1.364,-4.191 0.783,-0.727 2.268,-0.734 3.262,-0.841 3.301,-0.356 6.721,-0.267 10.041,-0.376 4.051,-0.135 8.106,-0.198 12.158,-0.128 2.828,0.049 5.981,-0.04 8.711,0.828 1.564,0.497 1.617,3.02 1.405,4.353 C 35.831,2.891 29.944,2.038 28.021,1.998 18.557,1.803 9.004,3.186 -0.377,1.367 -1.273,1.193 -0.893,-0.173 0,0"
             style="fill:#1a171b;fill-opacity:1;fill-rule:nonzero;stroke:none"
             id="path38" /></g><g
           id="g40"
           transform="translate(89.291,63.8525)"><path
             d="m 0,0 c 3.537,-0.06 5.797,-2.05 5.857,-5.645 0.011,-0.644 1.011,-0.645 1,0 C 6.828,-3.849 6.378,-2.15 5.128,-0.815 3.828,0.573 1.818,0.969 0,1 -0.645,1.011 -0.644,0.011 0,0"
             style="fill:#1a171b;fill-opacity:1;fill-rule:nonzero;stroke:none"
             id="path42" /></g><g
           id="g44"
           transform="translate(21.1011,21.5073)"><path
             d="m 0,0 c 0.047,-3.512 1.702,-6.322 5.4,-6.721 0.641,-0.069 0.634,0.932 0,1 C 2.264,-5.383 1.039,-2.902 1,0 0.991,0.645 -0.009,0.645 0,0"
             style="fill:#1a171b;fill-opacity:1;fill-rule:nonzero;stroke:none"
             id="path46" /></g><g
           id="g48"
           transform="translate(77.5796,5.229)"><path
             d="M 0,0 C 0,-1.542 -0.016,-3.075 -0.297,-4.596 -0.414,-5.227 0.549,-5.496 0.667,-4.862 0.965,-3.252 1,-1.633 1,0 1,0.645 0,0.645 0,0"
             style="fill:#1a171b;fill-opacity:1;fill-rule:nonzero;stroke:none"
             id="path50" /></g><g
           id="g52"
           transform="translate(1.084,25.6172)"><path
             d="M 0,0 C -0.387,1.163 0.704,2.633 1.336,3.549 1.545,3.853 1.441,3.637 1.548,3.65 1.988,3.706 2.451,3.553 2.867,3.433 3.706,3.191 4.504,2.77 5.241,2.307 6.19,1.709 5.103,0.225 4.717,-0.437 4.332,-1.099 4.137,-2.034 3.277,-1.851 2.26,-1.634 0.484,-0.84 -0.05,0.12 -0.364,0.683 -1.228,0.179 -0.914,-0.385 -0.15,-1.757 2.22,-2.836 3.725,-2.914 4.694,-2.963 4.998,-1.924 5.402,-1.242 6.016,-0.209 6.79,0.938 6.564,2.192 6.395,3.137 4.919,3.665 4.187,3.995 3.331,4.381 1.769,5.035 0.836,4.489 0.311,4.181 -0.078,3.215 -0.349,2.718 -0.829,1.84 -1.297,0.736 -0.964,-0.266 -0.762,-0.875 0.204,-0.614 0,0"
             style="fill:#1a171b;fill-opacity:1;fill-rule:nonzero;stroke:none"
             id="path54" /></g><g
           id="g56"
           transform="translate(53.4775,40.7764)"><path
             d="M 0,0 C -2.549,0.554 -5.067,0.93 -7.681,0.916 -7.889,0.915 -8.122,0.766 -8.163,0.549 -8.402,-0.73 -8.754,-1.993 -9.082,-3.252 c -0.198,-0.76 1.014,-1.003 1.494,-1.111 2.245,-0.507 4.646,-0.566 6.94,-0.652 0.238,-0.008 0.401,0.163 0.481,0.368 0.355,0.904 1.256,3.699 0.388,4.519 -0.469,0.442 -1.177,-0.264 -0.707,-0.707 0.423,-0.4 -0.43,-2.999 -0.644,-3.547 0.16,0.123 0.321,0.245 0.482,0.367 -1.797,0.068 -3.596,0.189 -5.38,0.405 -0.514,0.062 -1.024,0.15 -1.529,0.264 -0.197,0.045 -0.396,0.101 -0.579,0.187 0.147,-0.069 -0.034,-0.562 0.113,0.008 0.294,1.138 0.608,2.278 0.824,3.434 -0.16,-0.122 -0.321,-0.244 -0.482,-0.367 2.522,0.013 4.955,-0.345 7.415,-0.88 C 0.363,-1.101 0.63,-0.137 0,0"
             style="fill:#1a171b;fill-opacity:1;fill-rule:nonzero;stroke:none"
             id="path58" /></g><g
           id="g60"
           transform="translate(7.7954,44.1489)"><path
             d="m 0,0 c -0.923,2.412 -1.853,4.822 -2.787,7.23 -0.585,1.508 -1.174,3.015 -1.773,4.518 -0.347,0.868 1.782,1.448 2.384,1.692 0.808,0.328 0.66,0.544 1,-0.18 C 0.105,10.536 1.16,7.691 2.269,4.894 2.672,3.875 3.073,2.855 3.472,1.835 3.79,1.021 3.541,1.687 3.486,1.663 2.216,1.113 0.916,0.496 -0.482,0.367 c -0.637,-0.058 -0.642,-1.059 0,-1 1.738,0.16 3.32,0.933 4.903,1.619 0.188,0.082 0.303,0.376 0.229,0.565 -1.657,4.262 -3.04,8.96 -5.325,12.931 -0.118,0.206 -0.343,0.273 -0.564,0.23 -1.589,-0.305 -2.995,-1.076 -4.35,-1.937 -0.173,-0.109 -0.315,-0.354 -0.229,-0.564 1.674,-4.136 3.259,-8.31 4.854,-12.477 C -0.736,-0.862 0.231,-0.603 0,0"
             style="fill:#1a171b;fill-opacity:1;fill-rule:nonzero;stroke:none"
             id="path62" /></g><g
           id="g64"
           transform="translate(110.4189,59.4619)"><path
             d="M 0,0 C 1.47,0.153 2.759,-0.438 2.946,-2.023 3.098,-3.303 2.397,-4.653 1.186,-5.138 -2.625,-6.662 -3.889,-0.284 0,0 0.639,0.047 0.644,1.047 0,1 -2.203,0.839 -3.613,-1.014 -3.407,-3.187 c 0.217,-2.274 2.338,-3.406 4.449,-3.032 1.92,0.341 3.021,2.381 2.904,4.196 C 3.811,0.096 1.987,1.207 0,1 -0.635,0.934 -0.641,-0.066 0,0"
             style="fill:#1a171b;fill-opacity:1;fill-rule:nonzero;stroke:none"
             id="path66" /></g><g
           id="g68"
           transform="translate(107.5874,34.2505)"><path
             d="m 0,0 c 4.33,1.231 8.944,2.546 13.463,2.636 0.274,0.005 0.499,0.223 0.5,0.5 0.007,1.211 0.366,3.58 -0.597,4.543 C 12.779,8.266 11.327,7.817 10.642,7.708 6.729,7.086 2.714,6.088 -1.035,4.804 -1.298,4.714 -1.454,4.466 -1.384,4.189 c 0.304,-1.22 0.608,-2.456 0.751,-3.707 0.072,-0.633 1.073,-0.64 1,0 C 0.214,1.825 -0.093,3.145 -0.42,4.455 -0.537,4.25 -0.653,4.045 -0.77,3.84 c 2.717,0.93 5.549,1.584 8.343,2.227 1.507,0.347 3.037,0.699 4.579,0.839 1.219,0.112 0.816,-2.871 0.811,-3.77 l 0.5,0.5 C 8.846,3.544 4.153,2.222 -0.266,0.964 -0.885,0.788 -0.622,-0.177 0,0"
             style="fill:#1a171b;fill-opacity:1;fill-rule:nonzero;stroke:none"
             id="path70" /></g><g
           id="g72"
           transform="translate(110.4297,27.2861)"><path
             d="m 0,0 c -7.022,-4.545 -14.835,2.688 -20.166,6.791 -6.268,4.825 -13.011,9.642 -21.13,10.311 -0.643,0.053 -0.638,-0.948 0,-1 9.172,-0.756 16.543,-7.043 23.54,-12.436 5.034,-3.88 12.014,-8.573 18.261,-4.529 C 1.044,-0.514 0.543,0.352 0,0"
             style="fill:#1a171b;fill-opacity:1;fill-rule:nonzero;stroke:none"
             id="path74" /></g><g
           id="g76"
           transform="translate(71.8408,46.7197)"><path
             d="m 0,0 c -1.639,-0.413 -2.997,-1.39 -4.294,-2.438 -0.164,-0.132 -0.194,-0.436 -0.079,-0.605 1.202,-1.762 2.393,-3.529 3.503,-5.351 0.335,-0.549 1.2,-0.047 0.863,0.505 -1.11,1.822 -2.301,3.588 -3.502,5.35 -0.026,-0.202 -0.053,-0.403 -0.078,-0.606 1.165,0.941 2.381,1.81 3.853,2.181 C 0.891,-0.807 0.625,0.158 0,0"
             style="fill:#1a171b;fill-opacity:1;fill-rule:nonzero;stroke:none"
             id="path78" /></g></g></g></g></svg>