<svg
   xmlns:svg="http://www.w3.org/2000/svg"
   xmlns="http://www.w3.org/2000/svg"
   version="1.1"
   id="svg2"
   xml:space="preserve"
   width="111.67053"
   height="91.354797"
   viewBox="0 0 111.67053 91.354797"><metadata
     id="metadata8"></metadata><defs
     id="defs6"><clipPath
       clipPathUnits="userSpaceOnUse"
       id="clipPath18"><path
         d="M 0,68.516 H 83.753 V 0 H 0 Z"
         id="path16" /></clipPath></defs><g
     id="g10"
     transform="matrix(1.3333333,0,0,-1.3333333,0,91.3548)"><g
       id="g12"><g
         id="g14"
         clip-path="url(#clipPath18)"><g
           id="g20"
           transform="translate(32.877,5.854)"><path
             d="m 0,0 c -0.398,15.496 -2.034,30.943 -1.089,46.46 0.205,3.364 0.517,6.78 1.426,10.036 0.81,2.9 1.712,3.691 4.665,4.025 10.737,1.217 21.708,0.592 32.49,0.583 2.098,-0.002 4.283,0.042 6.298,-0.621 1.95,-0.642 2.629,-2.665 3.097,-4.462 0.84,-3.233 1.064,-6.603 1.236,-9.925 C 48.565,37.523 48.521,28.908 48.274,20.33 48.07,13.239 48.238,5.384 46.179,-1.477 45.54,-3.605 43.814,-3.315 41.809,-3.49 37.726,-3.846 33.615,-3.94 29.52,-4.043 23.949,-4.183 18.375,-4.235 12.803,-4.256 9.063,-4.27 0.295,-5.389 0,0 c -0.049,0.909 -1.467,0.914 -1.417,0 0.405,-7.415 12.078,-5.689 17.057,-5.66 8.712,0.053 17.48,0.041 26.169,0.752 1.542,0.127 3.95,-0.011 4.991,1.357 1.224,1.61 1.383,4.318 1.655,6.228 1.176,8.226 1.291,16.644 1.378,24.939 0.08,7.601 0.122,15.291 -0.599,22.867 -0.291,3.067 -0.555,7.166 -2.598,9.646 -2.249,2.731 -6.471,2.39 -9.642,2.392 C 26.194,62.531 15.245,63.1 4.49,61.881 2.216,61.623 0.863,61.232 -0.196,59.109 -1.381,56.735 -1.735,53.942 -2.065,51.344 -4.23,34.343 -1.855,17.034 -1.417,0 -1.394,-0.912 0.023,-0.915 0,0"
             style="fill:#1a171b;fill-opacity:1;fill-rule:nonzero;stroke:none"
             id="path22" /></g><g
           id="g24"
           transform="translate(36.689,57.1289)"><path
             d="m 0,0 c -0.521,-1.915 -0.436,-4.081 -0.497,-6.044 -0.118,-3.807 -0.1,-7.62 -0.056,-11.428 0.095,-8.236 0.312,-16.509 1.082,-24.713 0.184,-1.955 0.228,-4.281 1.019,-6.114 0.587,-1.363 2.892,-1.348 4.119,-1.483 7.914,-0.87 16.129,-0.331 24.054,0.142 2.376,0.142 4.884,0.17 7.218,0.692 1.287,0.287 1.223,2.646 1.324,3.625 0.847,8.166 0.455,16.527 0.448,24.722 -0.003,3.191 -0.058,6.397 0.125,9.584 0.15,2.576 -0.118,5.104 -0.405,7.663 -0.155,1.382 0.177,3.551 -0.967,4.588 -2.19,1.986 -6.911,1.8 -9.63,1.951 C 23.999,3.397 20.172,3.289 16.338,3.139 12.717,2.997 9.093,3.167 5.484,2.745 3.522,2.516 0.815,2.091 0,0 -0.199,-0.512 0.623,-0.731 0.82,-0.227 1.634,1.86 5.446,1.922 7.242,2.066 c 2.661,0.213 5.342,0.155 8.009,0.196 3.833,0.058 7.637,0.26 11.475,0.122 2.231,-0.08 4.467,-0.244 6.671,-0.613 0.801,-0.134 1.588,-0.328 2.358,-0.584 1.332,-0.442 1.474,-1.027 1.594,-2.38 0.384,-4.323 0.615,-8.462 0.542,-12.788 -0.141,-8.412 0.082,-16.826 -0.147,-25.238 -0.076,-2.763 0.081,-5.925 -0.759,-8.594 -0.316,-1.002 -5.064,-0.831 -5.979,-0.894 -7.656,-0.524 -15.414,-0.82 -23.082,-0.401 -1.173,0.063 -5.113,-0.145 -5.646,1.261 -0.795,2.094 -0.811,4.624 -1.004,6.826 -0.683,7.822 -0.877,15.701 -0.977,23.549 -0.047,3.683 -0.049,7.368 0.046,11.051 0.052,2.002 -0.054,4.243 0.477,6.194 C 0.964,0.304 0.144,0.528 0,0"
             style="fill:#1a171b;fill-opacity:1;fill-rule:nonzero;stroke:none"
             id="path26" /></g><g
           id="g28"
           transform="translate(54.7104,64.7798)"><path
             d="M 0,0 C 1.723,0.811 3.195,-1.38 0.938,-2.314 -0.419,-2.876 -1.19,-0.159 0,0 Z"
             style="fill:none;stroke:#1a171b;stroke-width:0.85000002;stroke-linecap:round;stroke-linejoin:round;stroke-miterlimit:10;stroke-dasharray:none;stroke-opacity:1"
             id="path30" /></g><g
           id="g32"
           transform="translate(72.0693,61.9883)"><path
             d="M 0,0 C 2.823,-0.619 4.168,-1.806 4.582,-4.773"
             style="fill:none;stroke:#1a171b;stroke-width:0.85000002;stroke-linecap:round;stroke-linejoin:round;stroke-miterlimit:10;stroke-dasharray:none;stroke-opacity:1"
             id="path34" /></g><g
           id="g36"
           transform="translate(35.5996,9.5366)"><path
             d="M 0,0 C 0.573,-3.723 2.864,-4.203 5.633,-4.201"
             style="fill:none;stroke:#1a171b;stroke-width:0.85000002;stroke-linecap:round;stroke-linejoin:round;stroke-miterlimit:10;stroke-dasharray:none;stroke-opacity:1"
             id="path38" /></g><g
           id="g40"
           transform="translate(8.6636,31.2329)"><path
             d="m 0,0 c 1.857,0.161 3.716,0.261 5.581,0.286 1.622,0.021 4.87,0.337 6.185,-0.824 0.621,-0.548 0.639,-2.413 0.728,-3.144 0.23,-1.888 0.308,-3.796 0.374,-5.694 0.14,-4.005 0.099,-8.021 -0.056,-12.025 -0.05,-1.287 -0.116,-2.577 -0.242,-3.859 -0.246,-2.5 -2.063,-3.339 -4.354,-3.599 -1.947,-0.221 -3.948,0.004 -5.892,0.151 -1.19,0.091 -5.287,-0.189 -5.796,1.147 -0.976,2.565 -0.678,6.081 -0.804,8.774 -0.184,3.918 -0.283,7.842 -0.327,11.764 -0.013,1.155 -0.021,2.31 0.005,3.465 0.029,1.309 0.118,2.841 1.554,3.319 C -2.117,0.071 -0.965,-0.067 0,0 0.907,0.063 0.913,1.48 0,1.417 -1.566,1.309 -3.3,1.509 -4.629,0.522 -5.91,-0.428 -5.988,-2.32 -6.02,-3.766 c -0.081,-3.564 0.051,-7.142 0.161,-10.704 0.121,-3.906 0.222,-7.848 0.701,-11.73 0.082,-0.666 0.105,-1.618 0.531,-2.181 1.093,-1.447 3.554,-1.553 5.199,-1.653 3.662,-0.222 8.414,-1.204 11.642,1.044 2.235,1.557 1.915,5.207 2.015,7.589 0.183,4.352 0.19,8.719 0.018,13.071 -0.101,2.528 0.126,6.288 -1.281,8.543 C 12.111,1.583 9.402,1.555 8.023,1.649 5.36,1.831 2.655,1.648 0,1.417 -0.903,1.339 -0.911,-0.079 0,0"
             style="fill:#1a171b;fill-opacity:1;fill-rule:nonzero;stroke:none"
             id="path42" /></g><g
           id="g44"
           transform="translate(6.3926,28.1172)"><path
             d="m 0,0 c -0.544,-1.407 -0.342,-3.374 -0.391,-4.846 -0.101,-3.068 -0.088,-6.146 0.088,-9.211 0.076,-1.316 -0.056,-4.108 0.998,-5.141 0.816,-0.8 3.282,-0.279 4.272,-0.279 h 7.046 c 1.019,0 0.887,2.763 0.918,3.323 0.287,5.348 -0.128,10.703 -0.168,16.05 C 12.761,0.119 12.571,0.334 12.338,0.322 8.375,0.108 4.376,0.249 0.41,0.313 c -0.549,0.008 -0.548,-0.842 0,-0.851 2.504,-0.04 5.008,-0.063 7.512,-0.065 1.376,-0.001 2.752,0.003 4.127,0.059 -0.111,0.382 -0.155,0.443 -0.133,0.182 0.003,-0.211 0.01,-0.421 0.016,-0.632 0.014,-0.534 0.031,-1.069 0.047,-1.603 0.093,-3.119 0.171,-6.237 0.179,-9.358 0.004,-1.528 -0.016,-3.059 -0.098,-4.586 -0.031,-0.569 -0.079,-1.14 -0.174,-1.703 -0.075,-0.445 0.205,-0.382 -0.095,-0.382 H 4.062 1.298 c -0.352,0 -0.598,2.718 -0.615,2.877 -0.325,2.993 -0.306,6.037 -0.266,9.043 0.026,1.921 -0.306,4.646 0.403,6.48 C 1.018,0.287 0.196,0.506 0,0"
             style="fill:#1a171b;fill-opacity:1;fill-rule:nonzero;stroke:none"
             id="path46" /></g><g
           id="g48"
           transform="translate(11.9404,5.6836)"><path
             d="M 0,0 C 0.281,0.21 0.588,0.396 0.918,0.188 1.142,0.047 1.199,-0.337 1.102,-0.563 0.719,-1.453 -0.981,-0.717 0,0 c 0.438,0.32 0.014,1.059 -0.43,0.734 -0.726,-0.531 -1,-1.353 -0.373,-2.084 0.605,-0.706 1.809,-0.572 2.415,0.038 0.5,0.504 0.492,1.362 0.076,1.908 C 1.143,1.312 0.236,1.232 -0.43,0.734 -0.863,0.41 -0.44,-0.329 0,0"
             style="fill:#1a171b;fill-opacity:1;fill-rule:nonzero;stroke:none"
             id="path50" /></g><g
           id="g52"
           transform="translate(11.3506,56.1279)"><path
             d="M 0,0 C 1.846,0.253 3.252,-1.138 3.662,-2.839 4.176,-4.975 2.194,-6.503 0.227,-6.481 -1.421,-6.462 -2.436,-4.813 -2.58,-3.343 -2.749,-1.617 -1.647,-0.333 0,0 0.538,0.109 0.31,0.929 -0.226,0.82 -4.828,-0.111 -4.194,-7.281 0.48,-7.334 2.855,-7.361 4.942,-5.26 4.526,-2.866 4.122,-0.544 2.158,1.147 -0.226,0.82 -0.767,0.746 -0.536,-0.073 0,0"
             style="fill:#1a171b;fill-opacity:1;fill-rule:nonzero;stroke:none"
             id="path54" /></g><g
           id="g56"
           transform="translate(8.1709,58.104)"><path
             d="m 0,0 c -1.968,-1.189 -2.705,-3.08 -2.754,-5.315 -0.026,-1.22 0.35,-2.419 0.975,-3.448 0.364,-0.6 1.872,-1.572 1.933,-2.007 0.185,-1.326 0.226,-3.497 1.236,-4.506 1.089,-1.089 3.884,-0.687 5.178,-0.293 1.092,0.332 1.023,2.316 1.197,3.194 0.461,2.324 2.233,3.848 2.716,6.263 0.432,2.154 -0.459,4.623 -2.235,5.936 C 7.272,0.543 7.255,3.695 6.823,4.977 6.714,5.3 6.472,5.466 6.14,5.497 4.8,5.622 1.978,6 0.756,5.285 -0.647,4.462 -0.148,0.872 -0.326,-0.423 -0.448,-1.317 0.917,-1.702 1.041,-0.8 1.125,-0.189 1.469,3.994 1.199,3.971 2.834,4.107 4.502,4.232 6.14,4.08 5.912,4.253 5.684,4.426 5.456,4.6 5.875,3.359 6.099,2.041 6.372,0.763 c 0.316,-1.48 0.336,-1.421 1.502,-2.505 2.555,-2.375 0.902,-6.128 -0.96,-8.263 -0.485,-0.556 -0.471,-1.767 -0.605,-2.448 -0.108,-0.543 -0.216,-1.087 -0.323,-1.63 -0.12,-0.605 -0.483,-0.305 -1.362,-0.365 -0.469,-0.032 -1.957,-0.184 -2.262,0.214 -0.443,0.577 -0.497,1.76 -0.624,2.454 -0.225,1.22 -0.206,1.631 -1.136,2.526 -2.231,2.149 -2.971,6.167 0.113,8.03 C 1.496,-0.752 0.784,0.474 0,0"
             style="fill:#1a171b;fill-opacity:1;fill-rule:nonzero;stroke:none"
             id="path58" /></g><g
           id="g60"
           transform="translate(11.5981,14.7197)"><path
             d="m 0,0 c 1.246,2.097 3.442,3.22 5.818,3.502 0.633,0.076 0.64,1.077 0,1 C 3.082,4.177 0.576,2.928 -0.863,0.505 -1.193,-0.051 -0.329,-0.554 0,0"
             style="fill:#1a171b;fill-opacity:1;fill-rule:nonzero;stroke:none"
             id="path62" /></g><g
           id="g64"
           transform="translate(37.1665,23.4722)"><path
             d="M 0,0 C 9.699,0.739 15.187,9.339 20.854,16.146 21.263,16.638 20.56,17.35 20.146,16.854 14.704,10.315 9.348,1.712 0,1 -0.639,0.951 -0.644,-0.049 0,0"
             style="fill:#1a171b;fill-opacity:1;fill-rule:nonzero;stroke:none"
             id="path66" /></g><g
           id="g68"
           transform="translate(51.9189,37.0405)"><path
             d="M 0,0 C 1.982,1.024 3.802,2.367 5.88,3.2 5.675,3.316 5.47,3.432 5.266,3.549 c 0.464,-1.474 0.745,-2.978 1,-4.5 0.106,-0.635 1.069,-0.365 0.963,0.265 -0.254,1.523 -0.534,3.026 -1,4.5 C 6.155,4.052 5.875,4.268 5.615,4.164 3.451,3.296 1.558,1.93 -0.505,0.863 -1.078,0.567 -0.572,-0.295 0,0"
             style="fill:#1a171b;fill-opacity:1;fill-rule:nonzero;stroke:none"
             id="path70" /></g><g
           id="g72"
           transform="translate(2.9141,34.1538)"><path
             d="m 0,0 c -2.012,-1.454 -2.873,-4.021 -2.914,-6.432 -0.011,-0.645 0.989,-0.644 1,0 0.035,2.022 0.714,4.336 2.419,5.569 C 1.022,-0.489 0.524,0.378 0,0"
             style="fill:#1a171b;fill-opacity:1;fill-rule:nonzero;stroke:none"
             id="path74" /></g><g
           id="g76"
           transform="translate(16.3516,60.5894)"><path
             d="m 0,0 c 0.635,-1.534 1.514,-2.998 2.896,-3.966 0.53,-0.371 1.029,0.497 0.505,0.863 C 2.253,-2.299 1.491,-1.006 0.964,0.266 0.721,0.853 -0.247,0.596 0,0"
             style="fill:#1a171b;fill-opacity:1;fill-rule:nonzero;stroke:none"
             id="path78" /></g><g
           id="g80"
           transform="translate(82.667,7.7222)"><path
             d="M 0,0 C 0.262,-1.955 -0.292,-3.731 -1.266,-5.415 -1.589,-5.974 -0.725,-6.477 -0.402,-5.919 0.65,-4.1 1.283,-2.115 1,0 0.916,0.629 -0.085,0.638 0,0"
             style="fill:#1a171b;fill-opacity:1;fill-rule:nonzero;stroke:none"
             id="path82" /></g></g></g></g></svg>