<?xml version="1.0" encoding="UTF-8" standalone="no"?>
<!-- Created with Inkscape (http://www.inkscape.org/) -->

<svg
   xmlns:dc="http://purl.org/dc/elements/1.1/"
   xmlns:cc="http://creativecommons.org/ns#"
   xmlns:rdf="http://www.w3.org/1999/02/22-rdf-syntax-ns#"
   xmlns:svg="http://www.w3.org/2000/svg"
   xmlns="http://www.w3.org/2000/svg"
   xmlns:sodipodi="http://sodipodi.sourceforge.net/DTD/sodipodi-0.dtd"
   xmlns:inkscape="http://www.inkscape.org/namespaces/inkscape"
   version="1.1"
   id="svg2"
   xml:space="preserve"
   width="61.583332"
   height="72.615196"
   viewBox="0 0 61.583332 72.615196"
   sodipodi:docname="globe.svg"
   inkscape:version="0.92.3 (2405546, 2018-03-11)"><metadata
     id="metadata8"><rdf:RDF><cc:Work
         rdf:about=""><dc:format>image/svg+xml</dc:format><dc:type
           rdf:resource="http://purl.org/dc/dcmitype/StillImage" /><dc:title></dc:title></cc:Work></rdf:RDF></metadata><defs
     id="defs6"><clipPath
       clipPathUnits="userSpaceOnUse"
       id="clipPath18"><path
         d="M 0,54.461 H 46.188 V 0 H 0 Z"
         id="path16"
         inkscape:connector-curvature="0" /></clipPath></defs><sodipodi:namedview
     pagecolor="#ffffff"
     bordercolor="#666666"
     borderopacity="1"
     objecttolerance="10"
     gridtolerance="10"
     guidetolerance="10"
     inkscape:pageopacity="0"
     inkscape:pageshadow="2"
     inkscape:window-width="716"
     inkscape:window-height="480"
     id="namedview4"
     showgrid="false"
     inkscape:zoom="3.2500084"
     inkscape:cx="30.791666"
     inkscape:cy="36.307598"
     inkscape:window-x="0"
     inkscape:window-y="0"
     inkscape:window-maximized="0"
     inkscape:current-layer="g10" /><g
     id="g10"
     inkscape:groupmode="layer"
     inkscape:label="globe"
     transform="matrix(1.3333333,0,0,-1.3333333,0,72.6152)"><g
       id="g12"><g
         id="g14"
         clip-path="url(#clipPath18)"><g
           id="g20"
           transform="translate(16.1348,14.7197)"><path
             d="m 0,0 c -5.647,1.063 -9.982,5.015 -12.637,9.982 -2.732,5.111 -2.468,11.06 -0.701,16.437 3.177,9.665 13.137,12.965 22.434,11.368 5.151,-0.886 9.933,-3.454 12.903,-7.826 2.676,-3.94 3.306,-8.97 2.937,-13.615 C 24.015,4.756 10.258,-1.517 0,0 -0.894,0.132 -1.278,-1.233 -0.377,-1.367 9.725,-2.859 21.082,1.953 25.203,11.713 28.86,20.378 25.201,31.419 17.322,36.293 9.914,40.876 -1.7,41.151 -8.666,35.543 -16.67,29.101 -18.184,16.709 -13.18,8.041 -10.456,3.321 -5.763,-0.353 -0.377,-1.367 0.516,-1.535 0.897,-0.169 0,0"
             style="fill:#1a171b;fill-opacity:1;fill-rule:nonzero;stroke:none"
             id="path22"
             inkscape:connector-curvature="0" /></g><g
           id="g24"
           transform="translate(31.1035,51.8613)"><path
             d="m 0,0 c -1.498,-0.046 -2.579,-0.822 -3.814,-1.617 -1.606,-1.034 -3.379,-1.068 -4.626,-2.6 -0.773,-0.949 -1.013,-2.309 -1.217,-3.473 -0.22,-1.256 -0.724,-2.506 -0.56,-3.793 0.186,-1.467 2.453,-2.044 3.247,-0.811 0.158,0.245 0.139,0.758 0.154,1.032 0.009,0.401 0.087,0.783 0.236,1.15 0.141,0.898 0.619,1.001 1.435,0.309 0.252,-2.617 -1.943,-4.857 -4.545,-5 -0.253,-0.014 -0.397,-0.184 -0.425,-0.425 -0.14,-1.161 -1.148,-3.079 -0.203,-4.022 0.924,-0.926 2.954,-0.307 3.816,0.387 0.955,0.769 2.139,1.19 3.057,1.924 0.957,0.766 1.826,-0.995 2.474,-1.595 0.879,-0.812 1.2,0.3 1.133,1.005 -0.063,0.669 -0.223,1.123 -0.646,1.621 -0.36,0.424 -0.545,0.16 0.322,0.557 1.422,0.651 2.68,-0.149 2.753,-1.787 0.046,-1.022 0.413,-2.735 1.839,-2.342 1.295,0.355 2.284,2.137 2.756,3.266 0.435,1.047 0.41,3.208 2.138,1.696 0.332,-0.29 0.719,-0.893 1.225,-0.851 0.543,0.046 0.547,0.897 0,0.851 -0.611,-0.051 -1.621,1.68 -2.626,1.68 -1.14,0 -1.355,-0.988 -1.38,-1.911 -0.03,-1.096 -0.406,-1.735 -0.985,-2.619 -0.3,-0.466 -0.673,-0.861 -1.121,-1.186 -0.934,-0.684 -1.046,2.364 -1.071,2.684 -0.061,0.816 -0.638,2.058 -1.653,1.964 -1.357,-0.127 -4.695,-1.02 -2.798,-2.603 0.659,-1.258 0.712,-1.542 0.155,-0.853 -0.361,0.395 -0.703,0.808 -1.066,1.203 -0.182,0.198 -0.514,0.543 -0.818,0.543 -1.022,0 -2.723,-1.294 -3.47,-1.948 -0.179,-0.156 -4.073,-2.439 -3.482,-0.422 0.229,0.78 0.287,1.353 0.426,2.153 0.045,0.26 2.856,1.376 3.236,1.71 1.512,1.328 2.983,4.568 0.924,6.087 -0.514,0.38 -1.289,-0.164 -1.56,-0.575 -0.332,-0.503 -0.568,-1.006 -0.765,-1.575 -0.059,-0.196 -0.101,-0.395 -0.126,-0.598 -0.094,-1.238 -1.914,-0.778 -1.713,0.547 0.287,1.899 0.654,4.373 1.875,5.873 0.73,0.897 2.502,1.228 3.563,1.717 1.372,0.633 2.249,1.746 3.906,1.796 C 0.547,-0.833 0.549,0.017 0,0"
             style="fill:#1a171b;fill-opacity:1;fill-rule:nonzero;stroke:none"
             id="path26"
             inkscape:connector-curvature="0" /></g><g
           id="g28"
           transform="translate(8.5498,49.7051)"><path
             d="m 0,0 c 1.145,1.61 3.655,-3.023 4.199,-3.646 1.427,-1.631 0.962,-4.772 -0.507,-6.271 -0.845,-0.865 -2.034,-1.278 -2.871,-2.185 -1.195,-1.294 -2.98,1.086 -4.236,-0.169 -0.879,-0.879 -1.998,-6.85 -4.122,-5.848 -0.493,0.232 -0.925,-0.501 -0.43,-0.735 2.573,-1.212 3.919,3.041 4.613,4.747 0.9,2.213 2.642,0.333 4.217,0.973 0.642,0.26 1.272,1.12 1.831,1.501 0.715,0.487 1.384,0.893 1.994,1.516 1.129,1.154 1.278,3.429 1.153,4.929 C 5.727,-3.824 4.589,-2.779 3.859,-1.701 2.88,-0.255 0.919,2.754 -0.734,0.43 -1.053,-0.019 -0.315,-0.442 0,0"
             style="fill:#1a171b;fill-opacity:1;fill-rule:nonzero;stroke:none"
             id="path30"
             inkscape:connector-curvature="0" /></g><g
           id="g32"
           transform="translate(41.6309,34.8018)"><path
             d="m 0,0 c -2.868,-4.057 -7.62,-5.391 -12.305,-5.597 -2.678,-0.117 -6.373,0.834 -8.193,-1.591 -1.475,-1.965 -1.154,-5.042 0.396,-6.795 1.012,-1.145 2.456,-1.818 3.801,-2.467 0.839,-0.405 -0.123,-2.875 0.504,-3.884 0.289,-0.464 1.026,-0.038 0.734,0.43 -1.085,1.747 1.014,3.308 -1.201,4.378 -1.707,0.824 -3.588,1.836 -4.168,3.77 -0.781,2.605 0.771,5.306 3.528,5.243 6.484,-0.15 13.521,0.261 17.638,6.084 C 1.052,0.02 0.314,0.444 0,0"
             style="fill:#1a171b;fill-opacity:1;fill-rule:nonzero;stroke:none"
             id="path34"
             inkscape:connector-curvature="0" /></g><g
           id="g36"
           transform="translate(2.5137,26.3735)"><path
             d="m 0,0 c 2.271,-0.23 2.847,-0.948 3.627,-3.09 0.219,-0.599 0.689,-1.012 1.16,-1.415 1.252,-1.077 1.639,-2.624 1.697,-4.258 0.02,-0.547 0.871,-0.549 0.852,0 -0.045,1.245 -0.248,2.846 -0.943,3.895 -0.252,0.381 -0.66,0.674 -1.004,0.963 C 4.607,-3.25 4.303,-2.417 3.916,-1.499 3.135,0.354 1.871,0.661 0,0.851 -0.545,0.906 -0.54,0.055 0,0"
             style="fill:#1a171b;fill-opacity:1;fill-rule:nonzero;stroke:none"
             id="path38"
             inkscape:connector-curvature="0" /></g><g
           id="g40"
           transform="translate(5.8516,52.7461)"><path
             d="m 0,0 c -1.312,-0.63 -2.52,-1.771 -3.498,-2.83 -0.371,-0.402 0.228,-1.005 0.602,-0.602 0.935,1.015 2.071,2.095 3.326,2.698 C 0.924,-0.497 0.492,0.236 0,0"
             style="fill:#1a171b;fill-opacity:1;fill-rule:nonzero;stroke:none"
             id="path42"
             inkscape:connector-curvature="0" /></g><g
           id="g44"
           transform="translate(29.4268,3.6816)"><path
             d="m 0,0 c -0.755,-1.172 -2.248,-2.515 -3.628,-2.847 -0.533,-0.128 -0.308,-0.948 0.225,-0.82 1.595,0.384 3.267,1.888 4.137,3.237 C 1.032,0.033 0.296,0.459 0,0"
             style="fill:#1a171b;fill-opacity:1;fill-rule:nonzero;stroke:none"
             id="path46"
             inkscape:connector-curvature="0" /></g><g
           id="g48"
           transform="translate(1.0566,18.4346)"><path
             d="M 0,0 C 8.517,-10.776 25.273,-11.373 35.938,-3.521 46.572,4.31 48.409,22.144 39.19,31.736 38.557,32.396 37.555,31.393 38.188,30.734 47.066,21.496 44.82,4.771 34.766,-2.634 24.725,-10.027 8.9,-8.991 1.002,1.002 0.436,1.719 -0.561,0.709 0,0"
             style="fill:#1a171b;fill-opacity:1;fill-rule:nonzero;stroke:none"
             id="path50"
             inkscape:connector-curvature="0" /></g><g
           id="g52"
           transform="translate(19.8516,10.1729)"><path
             d="m 0,0 v -4.781 c 0,-0.914 1.416,-0.914 1.416,0 V 0 C 1.416,0.914 0,0.914 0,0"
             style="fill:#1a171b;fill-opacity:1;fill-rule:nonzero;stroke:none"
             id="path54"
             inkscape:connector-curvature="0" /></g><g
           id="g56"
           transform="translate(20.5596,6.1006)"><path
             d="m 0,0 c -2.432,0.229 -4.616,-0.427 -6.433,-2.072 -0.264,-0.24 -0.291,-0.767 0,-1.002 3.484,-2.821 9.268,-3.186 12.129,0.67 0.219,0.294 0.068,0.813 -0.254,0.969 C 3.649,-0.563 2.003,-0.044 0,0 -0.915,0.02 -0.913,-1.397 0,-1.418 1.778,-1.457 3.133,-1.884 4.728,-2.659 4.643,-2.336 4.558,-2.013 4.474,-1.689 2.2,-4.752 -2.718,-4.268 -5.431,-2.072 V -3.074 C -3.882,-1.672 -2.05,-1.224 0,-1.418 0.91,-1.504 0.901,-0.086 0,0"
             style="fill:#1a171b;fill-opacity:1;fill-rule:nonzero;stroke:none"
             id="path58"
             inkscape:connector-curvature="0" /></g></g></g></g></svg>