<svg
   xmlns:svg="http://www.w3.org/2000/svg"
   xmlns="http://www.w3.org/2000/svg"
   version="1.1"
   id="svg2"
   xml:space="preserve"
   width="76.09893"
   height="91.048134"
   viewBox="0 0 76.09893 91.048134"><metadata
     id="metadata8"></metadata><defs
     id="defs6"><clipPath
       clipPathUnits="userSpaceOnUse"
       id="clipPath18"><path
         d="M 0,68.286 H 57.074 V 0 H 0 Z"
         id="path16" /></clipPath></defs><g
     id="g10"
     transform="matrix(1.3333333,0,0,-1.3333333,0,91.048133)"><g
       id="g12"><g
         id="g14"
         clip-path="url(#clipPath18)"><g
           id="g20"
           transform="translate(9.7715,46.4941)"><path
             d="m 0,0 c 0.199,11.202 10.126,16.75 20.39,16.379 4.782,-0.174 9.827,-1.706 13.204,-5.217 3.024,-3.142 4.047,-7.725 4.632,-11.899 0.227,0.299 0.456,0.597 0.683,0.897 C 31.021,0.149 23.137,-0.115 15.249,-0.125 10.205,-0.132 4.314,-1.056 -0.521,0.684 -1.383,0.993 -1.751,-0.377 -0.897,-0.684 3.793,-2.37 9.502,-1.626 14.387,-1.55 c 8.171,0.128 16.35,0.282 24.522,0.292 0.505,0.001 0.746,0.449 0.684,0.898 -0.662,4.719 -1.969,9.378 -5.351,12.892 -3.651,3.795 -9.4,5.103 -14.471,5.286 C 8.882,18.213 -1.213,11.513 -1.418,0 -1.434,-0.914 -0.017,-0.913 0,0"
             style="fill:#1a171b;fill-opacity:1;fill-rule:nonzero;stroke:none"
             id="path22" /></g><g
           id="g24"
           transform="translate(19.3281,61.7656)"><path
             d="m 0,0 c -0.604,1.883 -0.969,3.854 -1.225,5.812 -0.117,0.892 -1.536,0.904 -1.418,0 C -2.369,3.726 -2.01,1.631 -1.367,-0.377 -1.09,-1.244 0.279,-0.873 0,0"
             style="fill:#1a171b;fill-opacity:1;fill-rule:nonzero;stroke:none"
             id="path26" /></g><g
           id="g28"
           transform="translate(38.8945,61.8867)"><path
             d="M 0,0 C 0.851,1.59 1.754,3.162 2.434,4.836 2.777,5.684 1.406,6.048 1.066,5.213 0.435,3.657 -0.433,2.193 -1.223,0.715 -1.654,-0.091 -0.431,-0.807 0,0"
             style="fill:#1a171b;fill-opacity:1;fill-rule:nonzero;stroke:none"
             id="path30" /></g><g
           id="g32"
           transform="translate(22.0117,51.8447)"><path
             d="M 0,0 C -0.656,0.136 -1.092,0.751 -1.226,1.379 -1.383,2.118 -0.238,2.08 0.196,1.965 0.747,1.819 1.183,1.3 1.193,0.731 1.207,0.027 0.313,-0.003 -0.188,0.025 c -0.914,0.051 -0.91,-1.367 0,-1.418 C 1.191,-1.469 2.45,-0.836 2.606,0.635 2.744,1.93 1.613,3.056 0.451,3.364 -0.933,3.73 -2.561,3.071 -2.646,1.516 -2.715,0.258 -1.586,-1.115 -0.377,-1.367 0.515,-1.553 0.895,-0.187 0,0"
             style="fill:#1a171b;fill-opacity:1;fill-rule:nonzero;stroke:none"
             id="path34" /></g><g
           id="g36"
           transform="translate(34.5645,51.5713)"><path
             d="m 0,0 c -0.613,0.116 -1.813,0.579 -1.665,1.398 0.14,0.776 1.6,1.643 2.356,1.29 C 1.264,2.423 1.483,1.714 1.46,1.13 1.425,0.261 0.641,-0.025 -0.113,0.015 c -0.549,0.03 -0.545,-0.821 0,-0.85 1.165,-0.063 2.233,0.529 2.4,1.757 C 2.424,1.933 1.937,3.118 0.938,3.504 -0.327,3.992 -2.126,2.857 -2.484,1.624 -2.865,0.315 -1.281,-0.62 -0.227,-0.82 0.31,-0.922 0.538,-0.103 0,0"
             style="fill:#1a171b;fill-opacity:1;fill-rule:nonzero;stroke:none"
             id="path38" /></g><g
           id="g40"
           transform="translate(8.3535,41.9111)"><path
             d="m 0,0 c -0.058,-5.931 -0.115,-11.86 -0.172,-17.791 -0.03,-3.023 -0.059,-6.047 -0.089,-9.07 -0.026,-2.766 2.125,-4.913 4.39,-6.236 3.986,-2.329 9.186,-2.449 13.67,-2.628 5.13,-0.204 10.17,-0.089 15.048,1.708 3.64,1.342 6.845,3.918 7.035,8.029 0.18,3.895 0.258,7.797 0.359,11.695 0.124,4.758 0.238,9.516 0.343,14.273 0.008,0.386 -0.329,0.71 -0.709,0.709 C 33.433,0.674 26.987,0.417 20.545,0.321 16.383,0.26 12.22,0.22 8.057,0.267 5.787,0.292 3.107,0.046 0.897,0.684 0.018,0.938 -0.355,-0.431 0.521,-0.684 2.598,-1.282 5.047,-1.101 7.18,-1.139 c 4.084,-0.072 8.17,-0.025 12.254,0.028 6.812,0.089 13.629,0.366 20.441,0.382 l -0.709,0.709 c -0.156,-7.098 -0.323,-14.196 -0.537,-21.293 -0.047,-1.559 -0.097,-3.118 -0.164,-4.675 -0.127,-2.903 -2.086,-4.7 -4.508,-5.997 -4.893,-2.622 -10.781,-2.521 -16.158,-2.323 -4.957,0.184 -11.09,0.302 -14.94,3.893 -2.184,2.038 -1.695,4.325 -1.669,7.002 0.07,7.208 0.14,14.417 0.21,21.625 C 1.406,-1.192 1.412,-0.596 1.418,0 1.427,0.914 0.01,0.913 0,0"
             style="fill:#1a171b;fill-opacity:1;fill-rule:nonzero;stroke:none"
             id="path42" /></g><g
           id="g44"
           transform="translate(15.7568,8.0352)"><path
             d="m 0,0 c -0.009,-2.205 -0.468,-7.609 2.77,-7.934 2.939,-0.294 3.542,5.076 3.581,7.093 0.017,0.914 -1.401,0.913 -1.418,0 C 4.912,-1.947 4.519,-6.449 3.013,-6.54 0.995,-6.662 1.412,-1.19 1.418,0 1.422,0.914 0.005,0.914 0,0"
             style="fill:#1a171b;fill-opacity:1;fill-rule:nonzero;stroke:none"
             id="path46" /></g><g
           id="g48"
           transform="translate(33.9229,6.7686)"><path
             d="m 0,0 c -0.01,-2.071 0.028,-8.005 3.778,-6.538 2.503,0.978 2.57,5.598 2.583,7.805 0.005,0.914 -1.412,0.914 -1.418,0 C 4.933,-0.66 4.794,-2.88 3.858,-4.6 3.091,-6.012 1.934,-4.863 1.636,-3.792 1.298,-2.58 1.411,-1.244 1.418,0 1.422,0.914 0.005,0.914 0,0"
             style="fill:#1a171b;fill-opacity:1;fill-rule:nonzero;stroke:none"
             id="path50" /></g><g
           id="g52"
           transform="translate(1.8027,38.8477)"><path
             d="m 0,0 c 0.33,1.655 1.833,2.013 2.755,0.54 0.656,-1.05 0.387,-2.882 0.391,-4.091 0.012,-2.625 -0.017,-5.328 -0.739,-7.869 -0.366,-1.292 -1.62,-2.441 -2.164,-0.604 -0.326,1.099 -0.375,2.291 -0.427,3.43 -0.13,2.905 -0.099,5.893 0.209,8.782 0.097,0.909 -1.322,0.9 -1.418,0 -0.431,-4.049 -0.792,-9.008 0.389,-12.995 1.032,-3.481 3.963,-1.337 4.778,1.01 0.71,2.044 0.723,4.41 0.777,6.545 0.046,1.834 0.386,4.334 -0.374,6.058 C 2.931,3.632 -0.729,3.566 -1.367,0.377 -1.545,-0.516 -0.18,-0.896 0,0"
             style="fill:#1a171b;fill-opacity:1;fill-rule:nonzero;stroke:none"
             id="path54" /></g><g
           id="g56"
           transform="translate(52.4082,39.3311)"><path
             d="m 0,0 c 0.33,1.655 1.833,2.013 2.755,0.54 0.656,-1.05 0.387,-2.882 0.391,-4.091 0.012,-2.625 -0.017,-5.328 -0.739,-7.869 -0.366,-1.292 -1.62,-2.441 -2.164,-0.604 -0.326,1.099 -0.375,2.291 -0.427,3.43 -0.13,2.905 -0.099,5.893 0.209,8.782 0.097,0.909 -1.322,0.9 -1.418,0 -0.431,-4.049 -0.792,-9.008 0.389,-12.995 1.032,-3.481 3.963,-1.337 4.778,1.01 0.71,2.044 0.723,4.41 0.777,6.545 0.046,1.834 0.386,4.334 -0.374,6.058 C 2.931,3.632 -0.729,3.566 -1.367,0.377 -1.545,-0.516 -0.18,-0.896 0,0"
             style="fill:#1a171b;fill-opacity:1;fill-rule:nonzero;stroke:none"
             id="path58" /></g><g
           id="g60"
           transform="translate(38.5205,54.7383)"><path
             d="M 0,0 C 0.808,0.666 1.616,1.331 2.425,1.997 2.638,2.173 2.561,2.539 2.339,2.665 1.397,3.198 -1.157,5.354 -2.224,5.071 -4.253,4.533 -6.282,3.995 -8.312,3.458 -8.543,3.396 -8.659,3.159 -8.608,2.935 c 0.147,-0.657 0.295,-1.313 0.443,-1.969 0.089,-0.399 0.179,-0.797 0.268,-1.195 0.116,-0.514 0.305,0.232 -0.007,-0.065 -1.049,-0.998 -2.099,-1.996 -3.148,-2.994 -0.232,-0.222 -0.116,-0.629 0.188,-0.711 3.853,-1.038 7.707,-2.075 11.56,-3.113 0.34,-0.091 0.573,0.213 0.524,0.523 -0.37,2.334 -0.741,4.668 -1.111,7.003 -0.086,0.54 -0.905,0.31 -0.82,-0.226 0.37,-2.334 0.74,-4.668 1.11,-7.003 l 0.524,0.523 c -3.854,1.038 -7.707,2.075 -11.561,3.113 0.063,-0.237 0.125,-0.473 0.188,-0.711 1.026,0.977 2.684,2.038 3.398,3.256 0.248,0.424 -0.203,1.421 -0.294,1.825 -0.125,0.556 -0.25,1.112 -0.374,1.667 -0.095,0.423 -0.638,-0.293 0.007,-0.122 1.862,0.494 3.726,0.988 5.588,1.482 0.136,0.035 -0.241,0.136 0.28,-0.159 C -1.362,3.785 -0.878,3.511 -0.396,3.236 0.373,2.802 1.142,2.366 1.909,1.931 1.881,2.153 1.853,2.376 1.823,2.599 1.015,1.933 0.207,1.268 -0.602,0.602 -1.025,0.253 -0.42,-0.346 0,0"
             style="fill:#1a171b;fill-opacity:1;fill-rule:nonzero;stroke:none"
             id="path62" /></g><g
           id="g64"
           transform="translate(18.626,41.1484)"><path
             d="m 0,0 c 3.175,-3.247 7.348,-5.531 11.286,-7.702 5.752,-3.17 11.751,-5.899 17.803,-8.439 0.506,-0.212 0.724,0.612 0.226,0.821 -5.738,2.408 -11.386,5.024 -16.875,7.959 C 8.319,-5.158 3.898,-2.771 0.602,0.602 0.218,0.994 -0.384,0.393 0,0"
             style="fill:#1a171b;fill-opacity:1;fill-rule:nonzero;stroke:none"
             id="path66" /></g><g
           id="g68"
           transform="translate(8.5938,38.4854)"><path
             d="m 0,0 c 3.696,-3.842 8.403,-6.958 12.88,-9.783 7.91,-4.992 16.679,-8.871 25.933,-10.451 0.536,-0.092 0.765,0.727 0.226,0.82 -9.226,1.575 -17.82,5.45 -25.729,10.365 C 8.873,-6.293 4.246,-3.187 0.602,0.602 0.221,0.997 -0.38,0.396 0,0"
             style="fill:#1a171b;fill-opacity:1;fill-rule:nonzero;stroke:none"
             id="path70" /></g><g
           id="g72"
           transform="translate(25.5,24.9844)"><path
             d="m 0,0 c 0,0 4.25,9.677 5.25,10.052 0,0 3.269,-1.75 4.394,-2.25 0,0 -3.07,-9.75 -4.945,-10.375 z"
             style="fill:#ffffff;fill-opacity:1;fill-rule:nonzero;stroke:none"
             id="path74" /></g><g
           id="g76"
           transform="translate(25.8672,24.7695)"><path
             d="M 0,0 C 1.06,2.408 2.169,4.798 3.371,7.139 3.693,7.765 4.033,8.381 4.395,8.985 4.715,9.523 4.822,9.817 4.916,9.768 5.585,9.41 6.258,9.059 6.931,8.708 7.479,8.424 8.707,7.629 8.829,8.013 7.898,5.098 6.867,2.134 5.369,-0.542 4.49,-2.109 4.628,-2.036 3.203,-1.256 2.085,-0.644 0.967,-0.03 -0.152,0.582 -0.634,0.846 -1.063,0.111 -0.582,-0.152 0.766,-0.89 2.112,-1.628 3.459,-2.365 4.367,-2.862 4.794,-2.835 5.476,-1.916 7.549,0.88 8.646,4.618 9.687,7.903 9.739,8.071 9.657,8.307 9.491,8.384 7.998,9.074 6.547,9.858 5.098,10.634 4.408,11.002 3.699,9.479 3.472,9.099 1.833,6.353 0.552,3.353 -0.734,0.43 -0.953,-0.067 -0.221,-0.501 0,0"
             style="fill:#1a171b;fill-opacity:1;fill-rule:nonzero;stroke:none"
             id="path78" /></g><g
           id="g80"
           transform="translate(32.9092,21.335)"><path
             d="m 0,0 4.622,10.396 c 0,0 3.269,-1.75 4.394,-2.25 L 4.787,-1.645 Z"
             style="fill:#ffffff;fill-opacity:1;fill-rule:nonzero;stroke:none"
             id="path82" /></g><g
           id="g84"
           transform="translate(33.2764,21.1201)"><path
             d="m 0,0 c 1.083,2.437 2.166,4.872 3.249,7.308 l 1.362,3.064 C 4.415,9.93 3.776,10.383 4.568,9.962 4.983,9.741 5.399,9.523 5.815,9.306 6.461,8.968 7.95,7.809 8.271,8.55 7.108,5.86 5.946,3.17 4.784,0.479 L 4.146,-1 C 3.964,-1.42 4.144,-0.886 4.479,-1.001 4.248,-0.922 4.017,-0.842 3.785,-0.763 2.438,-0.3 1.093,0.162 -0.254,0.625 -0.774,0.804 -0.995,-0.019 -0.48,-0.195 1.115,-0.743 2.711,-1.292 4.307,-1.84 4.47,-1.896 4.716,-1.809 4.787,-1.645 6.196,1.619 7.606,4.883 9.016,8.146 9.101,8.342 9.091,8.622 8.863,8.728 7.37,9.418 5.919,10.202 4.47,10.978 4.283,11.077 3.984,11.042 3.888,10.825 2.347,7.359 0.807,3.895 -0.734,0.43 -0.955,-0.067 -0.223,-0.5 0,0"
             style="fill:#1a171b;fill-opacity:1;fill-rule:nonzero;stroke:none"
             id="path86" /></g><g
           id="g88"
           transform="translate(6.5547,51.2979)"><path
             d="M 0,0 C 0.481,1.388 1.205,2.645 1.957,3.898 2.24,4.37 1.504,4.798 1.223,4.328 0.432,3.01 -0.314,1.684 -0.82,0.227 -1,-0.293 -0.179,-0.515 0,0"
             style="fill:#1a171b;fill-opacity:1;fill-rule:nonzero;stroke:none"
             id="path90" /></g><g
           id="g92"
           transform="translate(49.2344,11.7744)"><path
             d="m 0,0 c -0.512,-1.876 -1.778,-3.436 -3.555,-4.246 -0.498,-0.228 -0.065,-0.96 0.43,-0.734 1.965,0.896 3.381,2.685 3.945,4.753 C 0.965,0.304 0.145,0.528 0,0"
             style="fill:#1a171b;fill-opacity:1;fill-rule:nonzero;stroke:none"
             id="path94" /></g></g></g></g></svg>