<svg
   xmlns:svg="http://www.w3.org/2000/svg"
   xmlns="http://www.w3.org/2000/svg"
   version="1.1"
   id="svg2"
   xml:space="preserve"
   width="97.272133"
   height="93.601601"
   viewBox="0 0 97.272133 93.601601"><metadata
     id="metadata8"></metadata><defs
     id="defs6"><clipPath
       clipPathUnits="userSpaceOnUse"
       id="clipPath18"><path
         d="M 0,70.201 H 72.954 V 0 H 0 Z"
         id="path16" /></clipPath></defs><g
     id="g10"
     transform="matrix(1.3333333,0,0,-1.3333333,0,93.6016)"><g
       id="g12"><g
         id="g14"
         clip-path="url(#clipPath18)"><g
           id="g20"
           transform="translate(21.1406,20.854)"><path
             d="m 0,0 c 4.598,-4.948 10.425,-9.312 17.437,-9.466 0.548,-0.012 0.547,0.839 0,0.851 C 10.649,-8.466 5.042,-4.178 0.602,0.602 0.228,1.004 -0.372,0.401 0,0"
             style="fill:#1a171b;fill-opacity:1;fill-rule:nonzero;stroke:none"
             id="path22" /></g><g
           id="g24"
           transform="translate(36.5381,9.2246)"><path
             d="m 0,0 c -2.312,0.891 -4.289,1.41 -6.772,0.98 -2.396,-0.415 -4.25,-2.261 -6.693,-1.186 -1.637,0.721 -0.29,3.772 -1.158,5.372 -0.77,1.417 -2.07,2.291 -3.097,3.495 -0.356,0.418 -0.955,-0.187 -0.601,-0.602 0.616,-0.722 1.35,-1.323 2.017,-1.995 1.621,-1.632 1.442,-3.664 0.797,-5.71 -0.057,-0.183 0.037,-0.383 0.195,-0.48 1.782,-1.087 3.322,-1.834 5.31,-0.944 3.452,1.543 6.244,1.612 9.775,0.25 C 0.286,-1.018 0.506,-0.195 0,0"
             style="fill:#1a171b;fill-opacity:1;fill-rule:nonzero;stroke:none"
             id="path26" /></g><g
           id="g28"
           transform="translate(55.8213,41.6455)"><path
             d="m 0,0 c -0.002,-5.215 -0.459,-10.363 -3.863,-14.58 -2.567,-3.178 -6.567,-4.869 -9.279,-7.972 -3.114,-3.564 -5.749,-7.777 -7.661,-12.051 -2.392,-5.345 -8.411,-5.891 -13.577,-5.496 l 0.612,-1.067 c 1.223,2.189 2.43,2.476 4.661,3.009 0.783,0.188 1.607,0.53 1.935,1.329 0.83,2.017 -1.262,3.336 -2.849,3.973 -0.848,0.341 -1.213,-1.03 -0.376,-1.366 1.364,-0.548 3.182,-2.395 0.525,-2.585 -0.714,-0.05 -1.287,-0.175 -1.958,-0.445 -1.44,-0.579 -2.432,-1.893 -3.162,-3.199 -0.277,-0.494 0.081,-1.026 0.612,-1.066 4.874,-0.373 10.292,0.037 13.552,4.147 1.375,1.735 1.879,3.926 3.066,5.771 1.688,2.622 3.364,5.285 5.337,7.706 2.899,3.555 7.397,5.305 10.111,8.994 C 0.922,-10.499 1.415,-5.295 1.418,0 1.418,0.914 0.001,0.914 0,0"
             style="fill:#1a171b;fill-opacity:1;fill-rule:nonzero;stroke:none"
             id="path30" /></g><g
           id="g32"
           transform="translate(41.8613,57.2832)"><path
             d="m 0,0 c -2.581,2.626 2.327,4.262 3.683,4.912 1.158,0.555 2.082,1.23 2.914,2.215 1.296,1.534 1.092,3.513 0.459,5.271 -0.16,0.444 -0.613,0.644 -1.041,0.423 C 1.261,10.378 -8.534,12.608 -9.229,5.168 -9.507,2.2 -8.651,-0.374 -5.729,-1.499 -4.252,-2.066 -1.236,-2.257 0,-1.002 0.642,-0.351 -0.36,0.652 -1.002,0 c -0.883,-0.896 -3.351,-0.436 -4.35,-0.132 -3.176,0.965 -3.177,5.715 -1.351,7.88 1.557,1.845 4.832,1.895 7.014,2.163 2.227,0.274 4.405,0.652 6.418,1.687 C 6.383,11.739 6.036,11.88 5.688,12.021 6.573,9.571 5.841,7.824 3.647,6.462 2.359,5.662 0.556,5.518 -0.52,4.353 -1.956,2.796 -2.634,0.658 -1.002,-1.002 -0.36,-1.655 0.642,-0.652 0,0"
             style="fill:#1a171b;fill-opacity:1;fill-rule:nonzero;stroke:none"
             id="path34" /></g><g
           id="g36"
           transform="translate(36.166,49.4438)"><path
             d="m 0,0 c 0.64,2.38 0.216,4.847 0.015,7.258 -0.045,0.543 -0.896,0.547 -0.85,0 C -0.642,4.933 -0.203,2.522 -0.82,0.227 -0.963,-0.304 -0.143,-0.529 0,0"
             style="fill:#1a171b;fill-opacity:1;fill-rule:nonzero;stroke:none"
             id="path38" /></g><g
           id="g40"
           transform="translate(38.6143,53.687)"><path
             d="m 0,0 c -0.453,-5.049 8.197,-5.336 10.066,-1.592 0.499,0.999 0.42,2.237 0.294,3.302 -0.065,0.554 -0.59,1.47 0.117,1.844 0.301,0.159 0.898,0.615 1.068,0.939 C 12.764,6.818 9.433,8.506 8.247,10.051 7.918,10.479 7.179,10.057 7.513,9.621 8.827,7.909 12.806,5.746 9.301,3.893 9.135,3.805 9.056,3.59 9.105,3.413 9.736,1.173 10.191,-1.758 7.511,-2.812 6.391,-3.252 4.956,-3.067 3.775,-2.997 1.88,-2.884 0.667,-2.049 0.852,0 0.9,0.546 0.049,0.542 0,0"
             style="fill:#1a171b;fill-opacity:1;fill-rule:nonzero;stroke:none"
             id="path42" /></g><g
           id="g44"
           transform="translate(36.2061,49.5903)"><path
             d="m 0,0 c -1.962,3.336 -6.776,3.879 -10.252,3.641 -4.098,-0.282 -6.883,-2.308 -9.602,-5.146 -2.115,-2.206 -5.527,-5.56 -5.148,-8.917 0.475,-4.199 3.266,-8.84 6.344,-11.63 l -0.112,0.859 c -0.812,-1.109 -2.996,-0.388 -3.658,-1.854 -0.467,-1.033 -0.28,-1.765 0.671,-2.431 2.055,-1.439 6.167,-0.291 7.95,1.087 0.723,0.558 -0.289,1.553 -1.002,1.002 -1.481,-1.145 -3.912,-1.415 -5.699,-1.061 -1.821,0.361 1.074,1.363 1.522,1.477 0.652,0.167 1.058,0.543 1.441,1.065 0.179,0.244 0.106,0.662 -0.111,0.858 -2.728,2.472 -4.589,5.959 -5.651,9.455 -0.994,3.278 1.628,5.936 3.666,8.234 2.196,2.474 4.274,4.434 7.562,5.287 3.216,0.835 8.938,0.618 10.856,-2.642 C -0.76,-1.502 0.465,-0.79 0,0"
             style="fill:#1a171b;fill-opacity:1;fill-rule:nonzero;stroke:none"
             id="path46" /></g><g
           id="g48"
           transform="translate(22.7158,27.5781)"><path
             d="m 0,0 c -0.196,4.208 -2.771,8.045 -2.966,12.24 -0.236,-0.236 -0.472,-0.472 -0.709,-0.708 1.358,0.026 2.7,0.106 4.056,0 -0.228,0.299 -0.455,0.597 -0.684,0.897 C -0.984,10.378 -0.969,8.013 -1.104,5.881 -1.298,2.815 -1.4,-0.256 -1.622,-3.32 c -0.098,-1.346 -0.01,-2.445 -1.036,-3.393 -1.239,-1.144 -2.298,-2.473 -3.307,-3.82 -2.068,-2.763 -3.7,-6.042 -3.964,-9.52 0.174,0.228 0.347,0.456 0.521,0.683 -3.19,-0.747 -4.268,-3.523 -3.199,-6.474 0.12,-0.33 0.493,-0.646 0.872,-0.494 4.202,1.68 7.496,4.913 10.962,7.725 0.71,0.575 -0.299,1.572 -1.002,1.002 -3.261,-2.645 -6.38,-5.779 -10.337,-7.361 0.291,-0.165 0.581,-0.33 0.872,-0.495 -0.799,2.204 -0.232,4.159 2.209,4.731 0.322,0.075 0.497,0.375 0.52,0.683 0.313,4.134 2.827,7.874 5.479,10.914 0.541,0.62 2.29,1.732 2.441,2.527 0.177,0.929 0.267,1.87 0.348,2.811 0.245,2.831 0.333,5.676 0.488,8.513 0.13,2.378 0.061,5.057 0.819,7.34 0.155,0.467 -0.249,0.863 -0.683,0.897 -1.356,0.107 -2.698,0.027 -4.056,0 C -4.047,12.941 -4.401,12.632 -4.384,12.24 -4.188,8.032 -1.613,4.195 -1.418,0 -1.375,-0.91 0.042,-0.914 0,0"
             style="fill:#1a171b;fill-opacity:1;fill-rule:nonzero;stroke:none"
             id="path50" /></g><g
           id="g52"
           transform="translate(56.8877,41.0337)"><path
             d="m 0,0 c 4.658,3.359 8.99,7.656 11.748,12.741 0.424,0.782 0.754,1.619 0.994,2.475 0.333,1.182 1.436,2.01 2.196,3 1.437,1.867 1.222,3.962 0.554,6.076 -0.128,0.404 -0.652,0.7 -1.041,0.423 C 9.506,21.2 -15.592,-3.825 -20.609,8.387 -20.952,9.22 -22.324,8.856 -21.977,8.01 -18.539,-0.355 -8.616,5.29 -3.643,8.701 2.95,13.222 8.671,18.874 15.166,23.492 14.819,23.633 14.473,23.774 14.125,23.915 15.03,21.051 14.349,19.497 12.343,17.343 11.188,16.104 11.069,14.461 10.246,12.944 7.729,8.303 3.525,4.282 -0.715,1.224 -1.449,0.694 -0.742,-0.536 0,0"
             style="fill:#1a171b;fill-opacity:1;fill-rule:nonzero;stroke:none"
             id="path54" /></g><g
           id="g56"
           transform="translate(46.2188,50.2554)"><path
             d="m 0,0 c 0.259,-1.028 0.49,-2.073 0.812,-3.084 0.166,-0.52 0.986,-0.298 0.82,0.227 C 1.311,-1.847 1.078,-0.802 0.82,0.226 0.687,0.757 -0.134,0.532 0,0"
             style="fill:#1a171b;fill-opacity:1;fill-rule:nonzero;stroke:none"
             id="path58" /></g><g
           id="g60"
           transform="translate(13.9111,33.2266)"><path
             d="M 0,0 C 2.021,0.034 4.07,0.461 6.053,0.826 6.592,0.926 6.362,1.745 5.826,1.646 3.916,1.294 1.946,0.883 0,0.851 -0.548,0.841 -0.549,-0.009 0,0"
             style="fill:#1a171b;fill-opacity:1;fill-rule:nonzero;stroke:none"
             id="path62" /></g><g
           id="g64"
           transform="translate(59.3643,55.2456)"><path
             d="M 0,0 C 1.023,-2.462 2.535,-4.67 4.654,-6.314 5.082,-6.646 5.688,-6.048 5.256,-5.712 3.26,-4.164 1.787,-2.1 0.82,0.227 0.613,0.725 -0.21,0.507 0,0"
             style="fill:#1a171b;fill-opacity:1;fill-rule:nonzero;stroke:none"
             id="path66" /></g><g
           id="g68"
           transform="translate(38.46,4.2378)"><path
             d="M 0,0 C 0.669,0.871 1.173,1.85 1.376,2.935 1.477,3.471 0.656,3.7 0.556,3.161 0.365,2.139 -0.105,1.248 -0.734,0.429 -1.068,-0.006 -0.329,-0.429 0,0"
             style="fill:#1a171b;fill-opacity:1;fill-rule:nonzero;stroke:none"
             id="path70" /></g><g
           id="g72"
           transform="translate(63.8066,61.9194)"><path
             d="M 0,0 C 0.955,0.578 1.876,1.207 2.753,1.899 3.183,2.239 2.577,2.837 2.151,2.501 1.333,1.854 0.463,1.274 -0.43,0.734 -0.897,0.451 -0.471,-0.285 0,0"
             style="fill:#1a171b;fill-opacity:1;fill-rule:nonzero;stroke:none"
             id="path74" /></g><g
           id="g76"
           transform="translate(11.458,36.9204)"><path
             d="m 0,0 c -3.117,-2.753 -7.114,-3.826 -11.146,-4.391 -0.348,-0.048 -0.367,-0.497 -0.188,-0.711 2.872,-3.431 3.372,-8.041 5.434,-11.914 1.82,-3.419 5.416,-5.514 8.486,-7.652 0.451,-0.314 0.876,0.423 0.43,0.734 -3.987,2.777 -7.516,5.235 -9.362,9.923 -1.306,3.321 -2.043,6.71 -4.386,9.511 -0.063,-0.237 -0.125,-0.474 -0.188,-0.711 4.196,0.588 8.289,1.754 11.522,4.609 C 1.014,-0.238 0.409,0.361 0,0"
             style="fill:#1a171b;fill-opacity:1;fill-rule:nonzero;stroke:none"
             id="path78" /></g><g
           id="g80"
           transform="translate(36.7256,34.1621)"><path
             d="M 0,0 C 1.361,1.327 2.724,2.654 4.086,3.98 3.849,4.043 3.612,4.105 3.375,4.168 3.704,2.591 4.033,1.015 4.362,-0.562 4.564,-1.528 8.509,-2.297 9.334,-2.62 9.301,-2.361 9.267,-2.102 9.232,-1.843 8.489,-2.23 4.991,-3.431 4.875,-4.264 c -0.277,-2 -0.556,-4 -0.834,-6 0.26,0.034 0.519,0.068 0.777,0.101 -1.213,1.781 -2.425,3.561 -3.638,5.342 -0.098,0.144 -0.298,0.27 -0.481,0.196 -2.193,-0.898 -4.603,-2.273 -6.944,-2.675 0.16,-0.208 0.32,-0.416 0.48,-0.624 1.195,1.666 2.389,3.333 3.583,5 0.079,0.11 0.082,0.319 0,0.428 C -3.227,-1.108 -4.311,0.25 -5.414,1.591 -5.552,1.354 -5.689,1.117 -5.828,0.88 -4.023,0.55 -2.219,0.221 -0.414,-0.109 0.122,-0.207 0.352,0.612 -0.188,0.711 -1.992,1.041 -3.797,1.37 -5.602,1.7 -6.033,1.779 -6.291,1.324 -6.016,0.989 c 1.036,-1.256 2.048,-2.528 3.033,-3.823 -0.142,0.185 0.155,0.46 -0.173,0.004 -0.201,-0.282 -0.405,-0.564 -0.606,-0.846 -0.913,-1.273 -1.825,-2.546 -2.737,-3.82 -0.241,-0.337 0.155,-0.68 0.48,-0.624 2.29,0.393 4.647,1.737 6.792,2.612 -0.055,-0.023 -0.456,0.446 0.051,-0.298 0.389,-0.572 0.78,-1.144 1.168,-1.715 0.697,-1.024 1.395,-2.047 2.092,-3.07 0.181,-0.266 0.722,-0.299 0.777,0.101 0.26,1.866 0.519,3.732 0.779,5.598 0.075,0.542 -0.162,0.136 0.062,0.253 0.421,0.22 0.842,0.438 1.263,0.658 0.898,0.468 1.798,0.936 2.697,1.404 0.358,0.186 0.213,0.654 -0.101,0.777 -1.16,0.453 -2.33,0.877 -3.502,1.294 C 5.701,-0.379 5.343,-0.254 4.983,-0.13 5.292,-0.237 5.195,-0.4 5.091,0.101 4.793,1.532 4.494,2.963 4.195,4.394 4.128,4.716 3.701,4.793 3.484,4.582 2.123,3.255 0.761,1.928 -0.602,0.602 -0.995,0.218 -0.393,-0.383 0,0"
             style="fill:#1a171b;fill-opacity:1;fill-rule:nonzero;stroke:none"
             id="path82" /></g><g
           id="g84"
           transform="translate(5.6465,36.5288)"><path
             d="m 0,0 c -1.155,-0.33 -2.311,-0.651 -3.5,-0.833 -0.54,-0.083 -0.31,-0.902 0.227,-0.82 1.189,0.181 2.344,0.504 3.5,0.833 C 0.753,-0.67 0.528,0.15 0,0"
             style="fill:#1a171b;fill-opacity:1;fill-rule:nonzero;stroke:none"
             id="path86" /></g></g></g></g></svg>