<svg
   xmlns:svg="http://www.w3.org/2000/svg"
   xmlns="http://www.w3.org/2000/svg"
   version="1.1"
   id="svg2"
   xml:space="preserve"
   width="73.751335"
   height="100.40427"
   viewBox="0 0 73.751335 100.40427"><metadata
     id="metadata8"></metadata><defs
     id="defs6"><clipPath
       clipPathUnits="userSpaceOnUse"
       id="clipPath18"><path
         d="M 0,75.303 H 55.313 V 0 H 0 Z"
         id="path16" /></clipPath></defs><g
     id="g10"
     transform="matrix(1.3333333,0,0,-1.3333333,0,100.40427)"><g
       id="g12"><g
         id="g14"
         clip-path="url(#clipPath18)"><g
           id="g20"
           transform="translate(41.6016,46.9648)"><path
             d="m 0,0 c -1.327,3.046 -2.179,7.567 -6.003,8.283 -3.425,0.641 -7.32,-1.282 -8.375,-4.658 -0.393,-1.26 0.059,-2.493 0.938,-3.404 0.552,-0.573 1.367,-0.846 2.1,-1.09 0.823,-0.275 1.395,-1.52 2.14,-2.01 1.754,-1.155 4.121,-2.714 6.201,-1.884 1.77,0.707 2.21,2.826 2.999,4.333 0.254,0.486 -0.479,0.916 -0.734,0.43 -0.605,-1.155 -0.945,-2.452 -1.82,-3.447 -1.62,-1.843 -5.054,0.4 -6.564,1.572 -1.018,0.79 -0.754,1.534 -1.996,1.826 -2.351,0.553 -3.04,2.551 -1.983,4.547 1.42,2.677 5.77,3.871 8.389,2.444 2.276,-1.239 3.02,-5.18 3.974,-7.372 C -0.516,-0.931 0.217,-0.498 0,0"
             style="fill:#1a171b;fill-opacity:1;fill-rule:nonzero;stroke:none"
             id="path22" /></g><g
           id="g24"
           transform="translate(40.9814,46.3184)"><path
             d="M 0,0 C 2.025,-1.409 5.201,-2.334 5.83,-5.012 5.978,-5.64 6.941,-5.373 6.795,-4.746 6.084,-1.719 2.788,-0.725 0.506,0.863 -0.025,1.233 -0.524,0.365 0,0"
             style="fill:#1a171b;fill-opacity:1;fill-rule:nonzero;stroke:none"
             id="path26" /></g><g
           id="g28"
           transform="translate(36.5674,42.0327)"><path
             d="m 0,0 c 1.176,-4.074 4.586,-8.07 7.871,-10.621 1.752,-1.361 3.987,-2.212 6.173,-1.491 3.648,1.201 4.29,5.991 4.534,9.216 0.385,5.084 -2.348,7.928 -6.749,10.064 -0.818,0.397 -1.537,-0.825 -0.715,-1.224 4.031,-1.956 6.308,-4.233 6.047,-8.84 -0.156,-2.77 -0.786,-7.585 -4.307,-8.057 C 10.807,-11.227 8.936,-9.755 7.52,-8.486 4.996,-6.224 2.324,-2.938 1.367,0.377 1.114,1.253 -0.254,0.88 0,0"
             style="fill:#1a171b;fill-opacity:1;fill-rule:nonzero;stroke:none"
             id="path30" /></g><g
           id="g32"
           transform="translate(13.208,48.9268)"><path
             d="m 0,0 c -0.566,-0.789 -1.457,-3.788 -2.403,-3.927 -2.36,-0.348 -5.017,-1.103 -6.383,1.404 -1.501,2.757 -1.232,6.664 0.699,9.128 2.064,2.633 8.284,2.363 8.548,-1.583 0.227,-3.391 -3.956,-6.494 -7.066,-5.651 -0.531,0.143 -0.755,-0.677 -0.227,-0.821 3.557,-0.963 6.923,1.838 7.96,5.119 1.168,3.694 -2.938,5.923 -6.136,5.488 -3.965,-0.539 -5.621,-4.422 -5.549,-8.047 0.038,-1.91 0.714,-3.776 1.825,-5.315 1.381,-1.915 5.421,-0.679 7.291,-0.457 0.198,0.024 0.345,0.115 0.41,0.312 0.454,1.408 0.896,2.71 1.765,3.92 C 1.055,0.017 0.316,0.441 0,0"
             style="fill:#1a171b;fill-opacity:1;fill-rule:nonzero;stroke:none"
             id="path34" /></g><g
           id="g36"
           transform="translate(14.9424,53.5332)"><path
             d="M 0,0 C 2.171,2.453 4.537,3.445 7.659,4.135 8.552,4.332 8.173,5.698 7.282,5.501 3.923,4.76 1.322,3.627 -1.002,1.002 -1.605,0.32 -0.606,-0.686 0,0"
             style="fill:#1a171b;fill-opacity:1;fill-rule:nonzero;stroke:none"
             id="path38" /></g><g
           id="g40"
           transform="translate(4.4482,44.5571)"><path
             d="m 0,0 c 0.046,-4.424 2.096,-12.393 7.728,-12.737 5.414,-0.332 7.605,6.045 7.989,10.389 h -1.418 c 0.06,-2.444 0.568,-4.656 1.817,-6.768 0.986,-1.665 2.552,-3.05 2.646,-5.093 0.042,-0.911 1.46,-0.915 1.418,0 -0.078,1.693 -0.85,2.965 -1.818,4.311 -1.682,2.338 -2.574,4.624 -2.645,7.55 -0.024,0.927 -1.338,0.899 -1.418,0 -0.306,-3.465 -1.815,-8.74 -6.046,-9.004 C 3.201,-11.667 1.454,-3.581 1.418,0 1.408,0.914 -0.009,0.915 0,0"
             style="fill:#1a171b;fill-opacity:1;fill-rule:nonzero;stroke:none"
             id="path42" /></g><g
           id="g44"
           transform="translate(41.0732,35.1313)"><path
             d="m 0,0 c -0.438,-1.97 -1.479,-3.76 -1.919,-5.73 -0.198,-0.891 1.168,-1.269 1.367,-0.377 0.441,1.97 1.48,3.76 1.919,5.73 C 1.565,0.514 0.199,0.892 0,0"
             style="fill:#1a171b;fill-opacity:1;fill-rule:nonzero;stroke:none"
             id="path46" /></g><g
           id="g48"
           transform="translate(23.9189,29.9224)"><path
             d="m 0,0 c 5.25,-0.309 10.619,-0.158 15.806,-1.12 0.536,-0.099 0.764,0.721 0.226,0.821 C 10.766,0.677 5.33,0.537 0,0.851 -0.548,0.883 -0.545,0.032 0,0"
             style="fill:#1a171b;fill-opacity:1;fill-rule:nonzero;stroke:none"
             id="path50" /></g><g
           id="g52"
           transform="translate(23.2354,30.5361)"><path
             d="m 0,0 c -0.975,-4.422 -1.698,-8.939 -2.126,-13.448 -0.036,-0.381 0.35,-0.715 0.709,-0.709 2.691,0.042 5.755,0.404 8.373,-0.308 0.357,-0.097 0.789,0.117 0.872,0.495 0.433,1.978 1.073,3.904 1.588,5.86 -0.432,-0.056 -0.863,-0.113 -1.295,-0.169 1.021,-1.942 1.374,-4.346 1.758,-6.49 0.053,-0.295 0.392,-0.535 0.684,-0.52 2.767,0.144 5.534,0.288 8.301,0.433 0.364,0.018 0.739,0.308 0.709,0.708 -0.304,4.091 -0.271,9.551 -2.358,13.182 -0.455,0.792 -1.681,0.079 -1.225,-0.715 1.218,-2.118 1.364,-5.097 1.664,-7.464 0.21,-1.662 0.377,-3.332 0.501,-5.003 0.237,0.236 0.473,0.473 0.709,0.709 -2.767,-0.144 -5.534,-0.289 -8.301,-0.433 0.227,-0.173 0.455,-0.347 0.683,-0.52 -0.409,2.282 -0.813,4.759 -1.902,6.829 -0.287,0.547 -1.143,0.407 -1.295,-0.17 -0.514,-1.957 -1.154,-3.882 -1.588,-5.86 0.291,0.165 0.581,0.33 0.872,0.495 -2.758,0.749 -5.921,0.403 -8.75,0.358 0.236,-0.236 0.473,-0.472 0.709,-0.708 0.415,4.382 1.127,8.773 2.075,13.071 C 1.563,0.514 0.197,0.892 0,0"
             style="fill:#1a171b;fill-opacity:1;fill-rule:nonzero;stroke:none"
             id="path54" /></g><g
           id="g56"
           transform="translate(39.1289,15.9556)"><path
             d="m 0,0 v -11.543 c 0,-0.473 0.451,-0.789 0.897,-0.683 1.104,0.261 2.582,0.294 3.297,-0.745 0.885,-1.288 -5.925,-0.993 -6.722,-0.981 0.227,-0.173 0.455,-0.346 0.683,-0.52 -1.033,4.793 -0.773,9.726 -1.163,14.588 -0.073,0.905 -1.491,0.912 -1.418,0 0.401,-4.992 0.154,-10.043 1.214,-14.965 0.066,-0.309 0.381,-0.515 0.684,-0.52 2.599,-0.041 5.625,-0.581 8.019,0.693 0.207,0.11 0.367,0.375 0.352,0.612 -0.205,2.922 -2.71,3.824 -5.322,3.204 0.298,-0.227 0.597,-0.455 0.897,-0.683 V 0 C 1.418,0.914 0,0.914 0,0"
             style="fill:#1a171b;fill-opacity:1;fill-rule:nonzero;stroke:none"
             id="path58" /></g><g
           id="g60"
           transform="translate(28.7373,16.998)"><path
             d="m 0,0 c 0.033,-5.235 0.572,-10.387 -0.861,-15.502 0.228,0.173 0.456,0.346 0.683,0.52 -1.779,-0.236 -3.576,-0.376 -5.371,-0.389 -0.651,-0.005 -1.301,0.033 -1.943,0.148 -1.33,0.238 0.799,1.479 1.133,1.595 0.75,0.257 1.595,0.319 2.384,0.299 0.291,-0.007 0.632,0.22 0.684,0.52 0.737,4.316 -0.196,8.581 -0.435,12.899 -0.05,0.909 -1.467,0.913 -1.418,0 0.232,-4.168 1.198,-8.356 0.486,-12.522 0.228,0.174 0.456,0.347 0.683,0.52 -1.29,0.033 -2.559,-0.212 -3.734,-0.739 -0.945,-0.424 -2.449,-2.29 -1.416,-3.303 1.875,-1.84 6.636,-0.752 8.947,-0.445 0.321,0.042 0.59,0.186 0.684,0.52 C 1.973,-10.643 1.451,-5.364 1.418,0 1.412,0.914 -0.006,0.914 0,0"
             style="fill:#1a171b;fill-opacity:1;fill-rule:nonzero;stroke:none"
             id="path62" /></g><g
           id="g64"
           transform="translate(12.7354,53.3682)"><path
             d="M 0,0 C 2.342,1.768 4.421,-0.251 3.209,-2.919 0.998,-7.473 -2.743,-2.071 0,0"
             style="fill:#ffffff;fill-opacity:1;fill-rule:nonzero;stroke:none"
             id="path66" /></g><g
           id="g68"
           transform="translate(12.9502,53.001)"><path
             d="M 0,0 C 0.574,0.413 1.225,0.734 1.942,0.545 2.539,0.389 2.852,-0.232 2.916,-0.799 3.042,-1.912 2.283,-3.635 1.086,-3.895 0.268,-4.071 -0.385,-3.103 -0.61,-2.462 -0.943,-1.52 -0.697,-0.556 0.086,0.066 0.516,0.408 -0.091,1.005 -0.516,0.668 -1.631,-0.219 -1.86,-1.726 -1.31,-3 c 0.486,-1.121 1.637,-2.089 2.913,-1.63 1.601,0.574 2.44,2.841 2.071,4.389 C 3.489,0.53 2.903,1.111 2.169,1.365 1.275,1.674 0.287,1.25 -0.43,0.734 -0.87,0.417 -0.446,-0.321 0,0"
             style="fill:#1a171b;fill-opacity:1;fill-rule:nonzero;stroke:none"
             id="path70" /></g><g
           id="g72"
           transform="translate(11.3994,44.4756)"><path
             d="m 0,0 c 1.07,-1.648 1.496,-3.391 1.375,-5.344 -0.033,-0.548 0.817,-0.545 0.852,0 C 2.355,-3.253 1.878,-1.332 0.734,0.43 0.438,0.888 -0.3,0.462 0,0"
             style="fill:#1a171b;fill-opacity:1;fill-rule:nonzero;stroke:none"
             id="path74" /></g><g
           id="g76"
           transform="translate(20.1631,64.8374)"><path
             d="m 0,0 c -0.133,-1.445 -1.022,-4.027 0.787,-4.668 0.307,-0.108 0.765,-0.066 1.077,-0.069 0.399,-0.004 0.311,-1.221 0.345,-1.548 0.09,-0.872 0.301,-1.652 0.797,-2.375 1.592,-2.324 7.751,-0.359 9.044,1.475 0.317,0.449 -0.421,0.873 -0.735,0.429 C 10.402,-8.051 7.899,-8.377 6.453,-8.646 5.101,-8.897 3.698,-8.675 3.215,-7.134 2.937,-6.245 2.97,-5.23 2.871,-4.307 2.848,-4.078 2.696,-3.879 2.446,-3.881 0.025,-3.904 0.686,-1.782 0.852,0 0.901,0.546 0.051,0.542 0,0"
             style="fill:#1a171b;fill-opacity:1;fill-rule:nonzero;stroke:none"
             id="path78" /></g><g
           id="g80"
           transform="translate(32.0908,64.6489)"><path
             d="m 0,0 c 0.592,-1.736 1.093,-3.503 1.59,-5.269 0.091,-0.32 0.364,-0.497 0.683,-0.52 6.009,-0.439 13.444,-4.913 12.887,-11.737 -0.074,-0.912 1.344,-0.905 1.418,0 C 17.199,-9.894 9.005,-4.863 2.273,-4.372 2.501,-4.545 2.729,-4.718 2.957,-4.892 2.46,-3.127 1.959,-1.359 1.367,0.377 1.074,1.237 -0.296,0.868 0,0"
             style="fill:#1a171b;fill-opacity:1;fill-rule:nonzero;stroke:none"
             id="path82" /></g><g
           id="g84"
           transform="translate(19.957,69.2261)"><path
             d="M 0,0 C -1.66,1.381 -1.007,3.383 -0.132,5.008 -0.502,4.961 -0.873,4.913 -1.244,4.865 0.088,3.195 1.549,2.058 3.761,2.228 4.182,2.26 4.617,2.663 4.444,3.125 4.319,3.595 4.195,4.065 4.071,4.535 3.897,4.307 3.724,4.08 3.551,3.852 c 2.608,0.354 7.335,-0.814 7.629,-4.046 0.083,-0.902 1.501,-0.91 1.418,0 C 12.207,4.083 6.79,5.708 3.174,5.218 2.894,5.181 2.619,4.814 2.653,4.535 2.765,3.646 2.758,3.601 3.077,2.748 3.306,3.047 3.533,3.346 3.761,3.645 1.912,3.503 0.823,4.532 -0.242,5.867 -0.525,6.222 -1.155,6.095 -1.354,5.724 -2.548,3.51 -3.168,0.799 -1.002,-1.002 -0.305,-1.582 0.704,-0.585 0,0"
             style="fill:#1a171b;fill-opacity:1;fill-rule:nonzero;stroke:none"
             id="path86" /></g><g
           id="g88"
           transform="translate(19.0303,68.7251)"><path
             d="m 0,0 c 0.044,-2.072 -0.671,-3.854 1.763,-3.936 3.811,-0.129 8.2,0.982 11.868,-0.362 0.211,-0.077 0.474,0.085 0.523,0.298 0.308,1.338 0.054,2.757 -0.572,3.971 -0.356,0.69 -1.334,0.461 -1.945,0.427 C 8.205,0.208 3.848,-0.797 0.539,0.41 0.022,0.598 -0.198,-0.224 0.313,-0.41 c 2.423,-0.884 5.446,-0.433 7.954,-0.275 1.241,0.078 2.481,0.184 3.722,0.252 0.774,0.043 0.845,0.163 1.185,-0.793 0.163,-0.539 0.255,-1.091 0.274,-1.656 0.056,-0.74 -0.042,-0.427 -0.677,-0.291 -2.83,0.602 -5.935,0.234 -8.799,0.127 C 3.375,-3.069 0.913,-2.972 0.918,-3.196 0.896,-2.131 0.873,-1.065 0.852,0 0.84,0.547 -0.011,0.549 0,0"
             style="fill:#1a171b;fill-opacity:1;fill-rule:nonzero;stroke:none"
             id="path90" /></g><g
           id="g92"
           transform="translate(32.8877,67.7568)"><path
             d="M 0,0 C 2.782,0.574 5.555,1.115 8.095,2.44 7.9,2.634 7.707,2.828 7.513,3.022 6.768,1.905 5.563,1.025 4.515,0.204 4.225,-0.023 4.465,-0.549 4.815,-0.522 6.273,-0.411 7.761,-0.313 9.191,0 9.031,0.208 8.871,0.417 8.711,0.625 7.29,-2.39 2.631,-1.635 -0.096,-2.199 -0.633,-2.31 -0.404,-3.129 0.131,-3.019 3.114,-2.402 7.867,-3.152 9.445,0.195 9.605,0.535 9.347,0.904 8.965,0.82 7.609,0.523 6.197,0.434 4.815,0.329 4.916,0.086 5.016,-0.155 5.116,-0.397 6.23,0.477 7.454,1.404 8.247,2.593 8.498,2.969 8.021,3.36 7.665,3.175 5.191,1.884 2.48,1.379 -0.227,0.82 -0.764,0.709 -0.535,-0.11 0,0"
             style="fill:#1a171b;fill-opacity:1;fill-rule:nonzero;stroke:none"
             id="path94" /></g><g
           id="g96"
           transform="translate(25.584,8.8711)"><path
             d="m 0,0 h 3.195 c 0.548,0 0.548,0.851 0,0.851 H 0 C -0.548,0.851 -0.548,0 0,0"
             style="fill:#1a171b;fill-opacity:1;fill-rule:nonzero;stroke:none"
             id="path98" /></g><g
           id="g100"
           transform="translate(35.9727,9.27)"><path
             d="m 0,0 c 1.03,-0.115 2.047,0.131 3.063,0.267 0.536,0.072 0.542,0.923 0,0.851 C 2.048,0.982 1.028,0.735 0,0.851 -0.544,0.912 -0.538,0.061 0,0"
             style="fill:#1a171b;fill-opacity:1;fill-rule:nonzero;stroke:none"
             id="path102" /></g><g
           id="g104"
           transform="translate(22.873,41.5005)"><path
             d="M 0,0 C 1.71,-0.533 3.691,-0.681 5.421,-0.167 5.945,-0.012 5.722,0.809 5.194,0.653 3.606,0.181 1.796,0.331 0.227,0.82 -0.299,0.984 -0.521,0.163 0,0"
             style="fill:#1a171b;fill-opacity:1;fill-rule:nonzero;stroke:none"
             id="path106" /></g><g
           id="g108"
           transform="translate(0.6758,52.2725)"><path
             d="M 0,0 C -0.202,-0.918 -0.398,-2.619 0,-3.552"
             style="fill:#ffffff;fill-opacity:1;fill-rule:nonzero;stroke:none"
             id="path110" /></g><g
           id="g112"
           transform="translate(0.2656,52.3857)"><path
             d="m 0,0 c -0.252,-1.199 -0.444,-2.604 0,-3.778 0.192,-0.508 1.015,-0.288 0.82,0.226 -0.39,1.033 -0.221,2.271 0,3.325 C 0.933,0.309 0.112,0.536 0,0"
             style="fill:#1a171b;fill-opacity:1;fill-rule:nonzero;stroke:none"
             id="path114" /></g><g
           id="g116"
           transform="translate(52.7539,49.2534)"><path
             d="M 0,0 C 0.8,-0.533 1.466,-1.065 2.132,-1.731"
             style="fill:#ffffff;fill-opacity:1;fill-rule:nonzero;stroke:none"
             id="path118" /></g><g
           id="g120"
           transform="translate(52.5391,48.8862)"><path
             d="M 0,0 C 0.735,-0.495 1.416,-1.042 2.046,-1.665 2.437,-2.05 3.038,-1.449 2.647,-1.063 1.966,-0.391 1.223,0.2 0.43,0.734 -0.026,1.042 -0.452,0.305 0,0"
             style="fill:#1a171b;fill-opacity:1;fill-rule:nonzero;stroke:none"
             id="path122" /></g><g
           id="g124"
           transform="translate(42.7178,11.2754)"><path
             d="M 0,0 C 0,-0.932 0.133,-1.998 0.266,-2.93"
             style="fill:#ffffff;fill-opacity:1;fill-rule:nonzero;stroke:none"
             id="path126" /></g><g
           id="g128"
           transform="translate(42.292,11.2754)"><path
             d="M 0,0 C 0.011,-1.021 0.139,-2.033 0.281,-3.043 0.357,-3.584 1.177,-3.353 1.102,-2.817 0.97,-1.882 0.86,-0.945 0.852,0 0.846,0.548 -0.005,0.549 0,0"
             style="fill:#1a171b;fill-opacity:1;fill-rule:nonzero;stroke:none"
             id="path130" /></g><g
           id="g132"
           transform="translate(30.9111,33.6265)"><path
             d="M 0,0 V 0.266"
             style="fill:#ffffff;fill-opacity:1;fill-rule:nonzero;stroke:none"
             id="path134" /></g><g
           id="g136"
           transform="translate(31.3369,33.6265)"><path
             d="m 0,0 v 0.266 c 0,0.548 -0.852,0.548 -0.852,0 V 0 C -0.852,-0.548 0,-0.548 0,0"
             style="fill:#1a171b;fill-opacity:1;fill-rule:nonzero;stroke:none"
             id="path138" /></g></g></g></g></svg>