<svg
   xmlns:svg="http://www.w3.org/2000/svg"
   xmlns="http://www.w3.org/2000/svg"
   version="1.1"
   id="svg2"
   xml:space="preserve"
   width="113.50653"
   height="93.987602"
   viewBox="0 0 113.50653 93.987602"><metadata
     id="metadata8"></metadata><defs
     id="defs6"><clipPath
       clipPathUnits="userSpaceOnUse"
       id="clipPath18"><path
         d="M 0,70.491 H 85.13 V 0 H 0 Z"
         id="path16" /></clipPath></defs><g
     id="g10"
     transform="matrix(1.3333333,0,0,-1.3333333,0,93.9876)"><g
       id="g12"><g
         id="g14"
         clip-path="url(#clipPath18)"><g
           id="g20"
           transform="translate(32.1641,49.1367)"><path
             d="m 0,0 c -0.031,6.791 -3.567,12.933 -4.283,19.578 -0.237,-0.237 -0.473,-0.473 -0.709,-0.709 8.258,0.356 16.514,0.712 24.772,1.068 -0.227,0.298 -0.456,0.597 -0.683,0.896 C 17.714,14.885 17.982,8.402 17.876,2.331 17.869,1.941 18.204,1.626 18.585,1.622 20.008,1.604 22.913,1.427 21.831,-0.855 21.373,-1.821 19.984,-2.25 19.064,-2.553 16.425,-3.419 13.53,-3.562 10.776,-3.698 8.029,-3.835 5.274,-3.81 2.525,-3.766 c -1.613,0.026 -3.177,0.045 -4.733,0.541 -0.464,0.148 -2.316,0.971 -1.581,1.813 0.641,0.736 2.239,0.674 3.08,0.704 0.911,0.031 0.914,1.448 0,1.416 -1.574,-0.054 -3.69,-0.165 -4.53,-1.745 -0.678,-1.274 0.602,-2.462 1.563,-3.065 1.806,-1.136 4.157,-1.046 6.201,-1.081 2.555,-0.045 5.11,-0.048 7.664,0.042 3.613,0.128 9.02,0.059 11.97,2.548 1.163,0.981 1.393,2.112 1.065,3.553 -0.476,2.091 -2.985,2.059 -4.639,2.079 0.236,-0.236 0.473,-0.472 0.709,-0.708 0.102,5.938 -0.183,12.312 1.17,18.126 0.099,0.431 -0.206,0.917 -0.684,0.897 C 11.522,20.998 3.266,20.642 -4.992,20.286 -5.346,20.271 -5.744,19.974 -5.701,19.578 -4.985,12.935 -1.448,6.773 -1.418,0 -1.414,-0.914 0.004,-0.914 0,0"
             style="fill:#1a171b;fill-opacity:1;fill-rule:nonzero;stroke:none"
             id="path22" /></g><g
           id="g24"
           transform="translate(31.4551,48.7114)"><path
             d="m 0,0 c 6.545,-0.112 13.211,-0.012 19.407,2.346 0.507,0.193 0.287,1.015 -0.226,0.82 C 13.051,0.833 6.473,0.739 0,0.851 -0.549,0.86 -0.548,0.01 0,0"
             style="fill:#1a171b;fill-opacity:1;fill-rule:nonzero;stroke:none"
             id="path26" /></g><g
           id="g28"
           transform="translate(30.9268,53.2251)"><path
             d="m 0,0 c 6.623,-0.618 13.69,0.407 20.032,2.331 0.524,0.158 0.3,0.98 -0.226,0.82 C 13.516,1.242 6.571,0.237 0,0.851 -0.546,0.901 -0.541,0.051 0,0"
             style="fill:#1a171b;fill-opacity:1;fill-rule:nonzero;stroke:none"
             id="path30" /></g><g
           id="g32"
           transform="translate(50.6572,45.0552)"><path
             d="M 0,0 C 2.122,-0.573 3.274,-2.48 0.598,-3.521 0.214,-3.67 0.026,-3.982 0.103,-4.393 c 0.894,-4.774 -4.012,-6.78 -7.979,-6.628 -5.573,0.212 -8.957,4.591 -8.541,9.982 0.07,0.912 -1.348,0.905 -1.418,0 -0.488,-6.337 3.667,-10.961 9.959,-11.399 5.029,-0.352 10.393,2.831 9.346,8.422 L 0.975,-4.888 C 4.837,-3.386 4.181,0.34 0.377,1.366 -0.507,1.605 -0.882,0.238 0,0"
             style="fill:#1a171b;fill-opacity:1;fill-rule:nonzero;stroke:none"
             id="path34" /></g><g
           id="g36"
           transform="translate(36.1299,36.6626)"><path
             d="m 0,0 c -4.163,-1.259 -7.872,-0.27 -10.3,3.518 -0.217,0.336 -0.616,0.437 -0.97,0.253 -2.032,-1.054 -3.967,-2.278 -6,-3.333 -0.317,-0.165 -0.475,-0.669 -0.254,-0.969 3.049,-4.14 6.106,-7.048 11.211,-8.242 -0.172,0.227 -0.346,0.455 -0.52,0.683 -0.196,-3.1 -2.207,-5.68 -2.426,-8.775 -0.02,-0.291 0.23,-0.63 0.521,-0.683 3.768,-0.692 7.936,-0.531 10.472,2.755 2.458,3.184 2.995,7.403 3.689,11.246 0.161,0.894 -1.205,1.276 -1.367,0.377 -0.573,-3.165 -1.037,-6.452 -2.516,-9.347 -1.978,-3.873 -5.981,-4.384 -9.901,-3.665 0.173,-0.227 0.346,-0.455 0.52,-0.683 0.217,3.077 2.228,5.662 2.426,8.775 0.019,0.302 -0.23,0.615 -0.521,0.683 -4.742,1.11 -7.536,3.751 -10.364,7.591 -0.085,-0.323 -0.17,-0.646 -0.255,-0.97 2.033,1.055 3.968,2.279 6,3.334 -0.323,0.084 -0.646,0.169 -0.969,0.254 C -8.772,-1.49 -4.43,-2.82 0.377,-1.367 1.249,-1.103 0.877,0.265 0,0"
             style="fill:#1a171b;fill-opacity:1;fill-rule:nonzero;stroke:none"
             id="path38" /></g><g
           id="g40"
           transform="translate(19.6689,37.3696)"><path
             d="M 0,0 C -0.801,1.16 -0.47,2.502 0.692,3.268 2.168,4.24 3.697,3.173 4.515,1.904 4.811,1.445 5.547,1.871 5.249,2.334 4.127,4.074 2.218,5.119 0.263,4.002 -1.327,3.094 -1.756,1.05 -0.734,-0.429 -0.425,-0.877 0.313,-0.452 0,0"
             style="fill:#1a171b;fill-opacity:1;fill-rule:nonzero;stroke:none"
             id="path42" /></g><g
           id="g44"
           transform="translate(19.7188,41.3521)"><path
             d="m 0,0 c -3.402,3.824 -6.804,7.647 -10.206,11.471 -0.608,0.684 -1.607,-0.322 -1.002,-1.002 C -7.807,6.646 -4.404,2.822 -1.002,-1.002 -0.394,-1.686 0.605,-0.68 0,0"
             style="fill:#1a171b;fill-opacity:1;fill-rule:nonzero;stroke:none"
             id="path46" /></g><g
           id="g48"
           transform="translate(50.0742,35.0376)"><path
             d="m 0,0 c 3.775,0.071 7.278,0.964 10.485,2.988 -0.323,0.085 -0.646,0.17 -0.969,0.254 1.211,-1.864 2.723,-3.377 4.588,-4.587 -0.047,0.371 -0.095,0.741 -0.143,1.113 -2.57,-2.245 -5.214,-4.584 -8.833,-4.459 -0.56,0.019 -0.854,-0.61 -0.612,-1.067 1.346,-2.543 3.154,-4.828 4.262,-7.497 0.109,0.267 0.218,0.534 0.326,0.8 -3.535,-2.361 -7.231,-3.019 -9.938,0.77 -1.973,2.761 -2.763,6.372 -3.4,9.645 -0.175,0.896 -1.541,0.516 -1.368,-0.377 0.771,-3.951 1.839,-8.147 4.541,-11.253 3.051,-3.508 7.498,-2.268 10.88,-0.008 0.242,0.16 0.452,0.499 0.327,0.8 -1.16,2.79 -2.999,5.177 -4.406,7.836 L 5.128,-6.108 c 4.005,-0.139 6.977,2.377 9.835,4.874 0.359,0.314 0.217,0.879 -0.144,1.112 C 13.151,0.961 11.823,2.29 10.74,3.958 10.535,4.273 10.108,4.425 9.771,4.212 6.759,2.312 3.546,1.484 0,1.417 -0.913,1.4 -0.914,-0.018 0,0"
             style="fill:#1a171b;fill-opacity:1;fill-rule:nonzero;stroke:none"
             id="path50" /></g><g
           id="g52"
           transform="translate(39.5713,24.2124)"><path
             d="M 0,0 C 2.72,-0.016 5.411,0.112 8.118,0.376 8.659,0.43 8.664,1.28 8.118,1.227 5.411,0.962 2.72,0.834 0,0.851 -0.549,0.854 -0.548,0.003 0,0"
             style="fill:#1a171b;fill-opacity:1;fill-rule:nonzero;stroke:none"
             id="path54" /></g><g
           id="g56"
           transform="translate(32.5273,19.4395)"><path
             d="m 0,0 c 0.112,-5.748 2.07,-11.167 3.564,-16.657 0.11,0.267 0.217,0.534 0.327,0.801 -1,-0.667 -2,-1.334 -3,-2 -0.481,-0.32 -0.467,-1.152 0.169,-1.296 2.573,-0.581 5.153,-0.093 7.711,0.333 0.325,0.055 0.494,0.392 0.52,0.684 0.359,4.08 0.941,8.185 2.568,11.975 h -1.222 c 2.012,-3.861 1.05,-8.154 1.569,-12.308 0.048,-0.383 0.286,-0.709 0.709,-0.709 2.406,0.002 4.803,0.016 7.189,0.358 0.623,0.09 0.666,1.025 0.168,1.296 -1.221,0.666 -2.444,1.333 -3.667,2 0.11,-0.267 0.217,-0.534 0.327,-0.801 1.259,5.684 4.48,10.683 5.353,16.494 0.134,0.894 -1.231,1.278 -1.367,0.377 -0.872,-5.811 -4.093,-10.81 -5.354,-16.494 -0.067,-0.305 0.039,-0.643 0.327,-0.8 1.222,-0.667 2.444,-1.334 3.667,-2 0.055,0.432 0.112,0.863 0.169,1.295 -2.255,-0.324 -4.539,-0.306 -6.812,-0.308 0.236,-0.236 0.473,-0.472 0.709,-0.708 -0.558,4.458 0.396,8.882 -1.765,13.024 -0.226,0.436 -1.012,0.49 -1.222,0 -1.733,-4.036 -2.38,-8.344 -2.764,-12.691 0.174,0.227 0.348,0.455 0.521,0.683 -2.296,-0.383 -4.645,-0.855 -6.957,-0.333 0.056,-0.432 0.112,-0.863 0.168,-1.295 1,0.666 2,1.333 3,2 0.268,0.178 0.414,0.479 0.327,0.8 C 3.472,-10.917 1.527,-5.617 1.418,0 1.4,0.913 -0.018,0.915 0,0"
             style="fill:#1a171b;fill-opacity:1;fill-rule:nonzero;stroke:none"
             id="path58" /></g><g
           id="g60"
           transform="translate(61.084,38.2705)"><path
             d="M 0,0 C 1.098,0.648 3,1.49 3.863,0.051 4.516,-1.038 3.912,-2.523 3.151,-3.375 2.787,-3.782 3.387,-4.386 3.753,-3.976 4.835,-2.764 5.425,-0.901 4.533,0.587 3.437,2.416 1.004,1.58 -0.43,0.734 -0.901,0.456 -0.474,-0.279 0,0"
             style="fill:#1a171b;fill-opacity:1;fill-rule:nonzero;stroke:none"
             id="path62" /></g><g
           id="g64"
           transform="translate(65.2363,45.8521)"><path
             d="M 0,0 C -1.465,3.341 -2.033,6.826 -2.621,10.398 -2.796,10.224 -2.97,10.05 -3.145,9.875 -0.573,8.994 1.838,9.404 4.457,9.875 4.282,9.975 4.108,10.074 3.934,10.173 4.32,8.038 4.603,5.873 4.692,3.704 4.726,2.904 4.911,1.068 4.128,1.013 2.578,0.903 0.99,0.714 -0.48,0.196 -0.994,0.015 -0.772,-0.807 -0.254,-0.625 1.295,-0.078 2.961,0.103 4.594,0.193 5.387,0.237 5.47,1.663 5.522,2.204 5.782,4.879 5.229,7.768 4.754,10.398 4.71,10.641 4.441,10.734 4.23,10.696 c -2.48,-0.447 -4.716,-0.834 -7.148,0 -0.337,0.115 -0.571,-0.23 -0.523,-0.523 C -2.84,6.518 -2.23,2.984 -0.734,-0.429 -0.515,-0.93 0.218,-0.497 0,0"
             style="fill:#1a171b;fill-opacity:1;fill-rule:nonzero;stroke:none"
             id="path66" /></g><g
           id="g68"
           transform="translate(75.8369,42.0034)"><path
             d="M 0,0 C 1.766,1.796 3.42,3.688 5.333,5.333 L 4.665,5.42 C 5.912,3.627 6.839,1.864 8.653,0.581 V 1.315 C 7.06,0.288 5.63,-0.902 4.19,-2.13 3.864,-2.408 3.535,-2.681 3.202,-2.95 2.107,-3.849 1.978,-2.991 1.411,-2.215 c -0.584,0.8 -0.972,1.699 -1.302,2.629 -0.182,0.513 -1.004,0.292 -0.82,-0.226 0.63,-1.773 1.61,-3.167 2.778,-4.625 0.108,-0.134 0.377,-0.171 0.516,-0.066 2.188,1.675 4.178,3.586 6.5,5.084 0.283,0.183 0.264,0.548 0,0.734 C 7.409,2.498 6.544,4.204 5.399,5.849 5.235,6.084 4.95,6.123 4.731,5.935 2.819,4.29 1.164,2.397 -0.602,0.602 -0.986,0.21 -0.385,-0.392 0,0"
             style="fill:#1a171b;fill-opacity:1;fill-rule:nonzero;stroke:none"
             id="path70" /></g><g
           id="g72"
           transform="translate(67.6494,27.894)"><path
             d="M 0,0 C 1.748,0.398 3.546,0.516 5.294,0.914 L 4.755,1.324 C 4.96,-1.589 6.358,-3.712 8.509,-5.617 8.571,-5.38 8.634,-5.143 8.696,-4.906 6.642,-5.383 4.702,-6.222 2.659,-6.737 2.05,-6.89 1.175,-4.042 1.063,-3.732 0.577,-2.4 0.353,-1.003 0.312,0.41 c -0.016,0.548 -0.866,0.549 -0.85,0 0.08,-2.834 1.028,-5.421 2.391,-7.881 0.096,-0.175 0.294,-0.232 0.48,-0.196 2.253,0.448 4.354,1.422 6.59,1.941 0.301,0.07 0.424,0.501 0.187,0.711 C 7.145,-3.275 5.794,-1.359 5.606,1.324 5.586,1.606 5.351,1.798 5.067,1.734 3.319,1.336 1.521,1.218 -0.227,0.82 -0.761,0.699 -0.534,-0.121 0,0"
             style="fill:#1a171b;fill-opacity:1;fill-rule:nonzero;stroke:none"
             id="path74" /></g><g
           id="g76"
           transform="translate(48.9336,41.2588)"><path
             d="m 0,0 c -0.642,-0.094 -1.19,-0.35 -1.629,-0.833 -0.371,-0.406 -0.58,-0.884 -1.16,-1.011 -0.535,-0.118 -0.309,-0.938 0.226,-0.821 0.534,0.118 0.907,0.427 1.234,0.851 0.436,0.564 0.823,0.887 1.556,0.994 C 0.768,-0.741 0.536,0.078 0,0"
             style="fill:#1a171b;fill-opacity:1;fill-rule:nonzero;stroke:none"
             id="path78" /></g><g
           id="g80"
           transform="translate(36.958,21.603)"><path
             d="m 0,0 c 2.229,-0.553 4.628,-0.445 6.899,-0.333 1.785,0.086 3.943,0.138 5.581,0.941 0.493,0.241 0.062,0.975 -0.429,0.734 C 10.368,0.517 8.126,0.577 6.296,0.487 4.306,0.39 2.172,0.337 0.227,0.82 -0.306,0.952 -0.532,0.132 0,0"
             style="fill:#1a171b;fill-opacity:1;fill-rule:nonzero;stroke:none"
             id="path82" /></g><g
           id="g84"
           transform="translate(13.7041,62.2241)"><path
             d="m 0,0 c -0.382,-1.683 -1.405,-2.533 -2.953,-3.16 -0.334,-0.135 -0.47,-0.756 0,-0.82 1.304,-0.179 2.693,-1.607 2.953,-2.887 0.085,-0.419 0.721,-0.395 0.82,0 0.338,1.338 1.895,2.325 3.055,2.908 0.343,0.172 0.231,0.677 -0.102,0.777 -1.373,0.411 -2.82,1.532 -2.938,3.069 -0.041,0.543 -0.893,0.548 -0.85,0 C 0.134,-2.044 1.78,-3.472 3.547,-4.002 3.513,-3.743 3.479,-3.484 3.445,-3.225 2.085,-3.908 0.395,-5.079 0,-6.641 h 0.82 c -0.312,1.54 -1.969,3.265 -3.547,3.481 v -0.82 c 1.835,0.743 3.095,1.762 3.547,3.754 C 0.941,0.308 0.121,0.535 0,0"
             style="fill:#1a171b;fill-opacity:1;fill-rule:nonzero;stroke:none"
             id="path86" /></g><g
           id="g88"
           transform="translate(2.7266,46.9585)"><path
             d="m 0,0 c -0.376,-1.103 -1.47,-2.278 -2.517,-2.789 -0.348,-0.169 -0.225,-0.675 0.102,-0.777 1.011,-0.313 2.021,-1.342 2.415,-2.308 0.157,-0.385 0.675,-0.421 0.82,0 0.363,1.053 1.352,2.153 2.409,2.527 0.355,0.126 0.452,0.747 0,0.82 C 2.061,-2.338 1.156,-1.053 0.82,0 0.654,0.52 -0.167,0.298 0,-0.227 0.421,-1.545 1.543,-3.111 3.002,-3.347 v 0.82 C 1.644,-3.007 0.467,-4.292 0,-5.647 h 0.82 c -0.514,1.26 -1.685,2.491 -3.008,2.901 0.034,-0.259 0.067,-0.518 0.101,-0.777 1.255,0.612 2.458,1.981 2.907,3.296 C 0.998,0.294 0.176,0.516 0,0"
             style="fill:#1a171b;fill-opacity:1;fill-rule:nonzero;stroke:none"
             id="path90" /></g><g
           id="g92"
           transform="translate(43.1152,54.2495)"><path
             d="M 0,0 C -0.434,2.369 -1.553,4.568 -2.333,6.833 -2.47,6.653 -2.606,6.474 -2.743,6.294 -0.656,6.548 1.301,7.526 3.424,7.461 3.282,7.603 3.141,7.745 2.998,7.887 3.049,5.507 3.611,3.146 4.127,0.833 4.246,0.298 5.066,0.525 4.947,1.06 4.448,3.3 3.898,5.583 3.85,7.887 3.844,8.124 3.659,8.305 3.424,8.312 1.284,8.376 -0.647,7.4 -2.743,7.145 -2.998,7.114 -3.252,6.894 -3.153,6.606 -2.373,4.342 -1.254,2.143 -0.82,-0.227 -0.722,-0.765 0.098,-0.536 0,0"
             style="fill:#1a171b;fill-opacity:1;fill-rule:nonzero;stroke:none"
             id="path94" /></g><g
           id="g96"
           transform="translate(29.2949,14.6069)"><path
             d="M 0,0 C 0.254,-1.267 0.533,-2.53 1.293,-3.602 1.607,-4.045 2.346,-3.621 2.027,-3.172 1.309,-2.158 1.061,-0.972 0.82,0.227 0.713,0.764 -0.107,0.536 0,0"
             style="fill:#1a171b;fill-opacity:1;fill-rule:nonzero;stroke:none"
             id="path98" /></g><g
           id="g100"
           transform="translate(54.8809,61.9702)"><path
             d="M 0,0 C 0,0.961 0.029,1.898 0.441,2.785 0.671,3.279 -0.062,3.711 -0.293,3.215 -0.773,2.181 -0.85,1.126 -0.852,0 c 0,-0.548 0.851,-0.548 0.852,0"
             style="fill:#1a171b;fill-opacity:1;fill-rule:nonzero;stroke:none"
             id="path102" /></g><g
           id="g104"
           transform="translate(70.2051,31.2114)"><path
             d="M 0,0 C 0.926,0.017 1.867,0.205 2.78,0.349 3.32,0.434 3.09,1.253 2.554,1.169 1.714,1.036 0.852,0.866 0,0.851 -0.548,0.841 -0.549,-0.01 0,0"
             style="fill:#1a171b;fill-opacity:1;fill-rule:nonzero;stroke:none"
             id="path106" /></g></g></g></g></svg>