<svg
   xmlns:svg="http://www.w3.org/2000/svg"
   xmlns="http://www.w3.org/2000/svg"
   version="1.1"
   id="svg2"
   xml:space="preserve"
   width="55.324268"
   height="78.767601"
   viewBox="0 0 55.324268 78.767601"><metadata
     id="metadata8"></metadata><defs
     id="defs6"><clipPath
       clipPathUnits="userSpaceOnUse"
       id="clipPath18"><path
         d="M 0,59.076 H 41.493 V 0 H 0 Z"
         id="path16" /></clipPath></defs><g
     id="g10"
     transform="matrix(1.3333333,0,0,-1.3333333,0,78.7676)"><g
       id="g12"><g
         id="g14"
         clip-path="url(#clipPath18)"><g
           id="g20"
           transform="translate(11.7979,53.7866)"><path
             d="m 0,0 c -1.01,-6.485 -1.496,-13.97 -0.152,-20.415 0.701,-3.357 2.834,-4.063 6.103,-3.92 3.684,0.161 9.228,1.343 11.63,4.443 2.388,3.081 2.504,7.973 2.448,11.675 -0.051,3.469 -0.4,8.136 -2.834,10.863 C 15.207,4.875 10.917,5.274 8.165,5.288 4.883,5.306 1.503,4.142 0.227,0.898 0.126,0.605 0.051,0.306 0,0 -0.186,-0.892 1.181,-1.271 1.367,-0.377 2.131,3.289 5.91,3.964 9.132,3.852 c 2.4,-0.084 6.102,-0.644 7.526,-2.844 1.871,-2.89 1.969,-7.113 1.962,-10.426 -0.007,-3.207 -0.229,-7.904 -2.757,-10.262 -2.703,-2.522 -8.064,-3.387 -11.59,-3.243 -3.285,0.133 -3.289,3.546 -3.496,6.145 C 0.351,-11.434 0.54,-5.685 1.367,-0.377 1.506,0.517 0.141,0.901 0,0"
             style="fill:#1a171b;fill-opacity:1;fill-rule:nonzero;stroke:none"
             id="path22" /></g><g
           id="g24"
           transform="translate(18.7803,29.666)"><path
             d="M 0,0 C 0.424,-0.932 0.449,-2.207 0.275,-3.2 0.182,-3.736 1.002,-3.966 1.096,-3.427 1.313,-2.187 1.262,-0.73 0.734,0.429 0.508,0.928 -0.225,0.495 0,0"
             style="fill:#1a171b;fill-opacity:1;fill-rule:nonzero;stroke:none"
             id="path26" /></g><g
           id="g28"
           transform="translate(12.0117,10.3633)"><path
             d="M 0,0 C 0.48,2.871 1.825,5.302 3.479,7.663 3.794,8.114 3.056,8.538 2.744,8.093 1.049,5.671 -0.327,3.169 -0.82,0.227 -0.91,-0.31 -0.091,-0.54 0,0"
             style="fill:#1a171b;fill-opacity:1;fill-rule:nonzero;stroke:none"
             id="path30" /></g><g
           id="g32"
           transform="translate(30.5439,10.0527)"><path
             d="M 0,0 C -0.162,3.505 -0.832,6.027 -2.992,8.87 -3.319,9.301 -4.059,8.878 -3.727,8.44 -2.73,7.129 -1.834,5.8 -1.336,4.216 -0.912,2.868 -0.915,1.397 -0.85,0 -0.824,-0.546 0.025,-0.549 0,0"
             style="fill:#1a171b;fill-opacity:1;fill-rule:nonzero;stroke:none"
             id="path34" /></g><g
           id="g36"
           transform="translate(21.3115,7.4219)"><path
             d="M 0,0 C 3.248,1.127 6.768,1.351 9.953,2.645 10.455,2.849 10.236,3.671 9.729,3.465 6.541,2.171 3.022,1.947 -0.227,0.82 -0.741,0.642 -0.52,-0.18 0,0"
             style="fill:#1a171b;fill-opacity:1;fill-rule:nonzero;stroke:none"
             id="path38" /></g><g
           id="g40"
           transform="translate(19.417,26.9922)"><path
             d="m 0,0 c -3.006,0.618 -5.673,-1.638 -7.66,-3.607 -2.787,-2.763 -5.072,-6.253 -6.602,-9.857 -1.076,-2.537 -1.197,-4.306 0.045,-6.734 1.675,-3.278 7.118,-4.372 10.159,-5.62 0.846,-0.347 1.21,1.025 0.377,1.367 -2.76,1.133 -7.358,2.034 -9.147,4.685 -1.375,2.037 -0.949,3.843 -0.037,5.993 1.24,2.921 3.091,5.636 5.154,8.031 1.65,1.913 4.492,4.959 7.334,4.375 C 0.516,-1.551 0.895,-0.185 0,0"
             style="fill:#1a171b;fill-opacity:1;fill-rule:nonzero;stroke:none"
             id="path42" /></g><g
           id="g44"
           transform="translate(22.3867,1.1738)"><path
             d="m 0,0 c -1.694,1.622 -2.114,4.47 -0.821,6.443 0.3,0.461 -0.436,0.886 -0.735,0.43 C -3.052,4.59 -2.56,1.271 -0.602,-0.602 -0.206,-0.98 0.397,-0.38 0,0"
             style="fill:#1a171b;fill-opacity:1;fill-rule:nonzero;stroke:none"
             id="path46" /></g><g
           id="g48"
           transform="translate(24.2705,31.1909)"><path
             d="m 0,0 c 0.461,-1.38 0.76,-2.795 0.832,-4.25 0.014,-0.29 0.203,-0.634 0.52,-0.684 7.25,-1.132 10.277,-9.108 10.691,-15.614 0.449,-7.067 -9.66,-7.514 -14.416,-9.086 -0.863,-0.286 -0.494,-1.655 0.377,-1.367 5.833,1.928 15.433,2.301 15.456,10.453 C 13.48,-13.497 9.277,-4.747 1.729,-3.567 1.902,-3.795 2.075,-4.023 2.248,-4.25 2.172,-2.668 1.869,-1.127 1.367,0.377 1.079,1.239 -0.289,0.87 0,0"
             style="fill:#1a171b;fill-opacity:1;fill-rule:nonzero;stroke:none"
             id="path50" /></g><g
           id="g52"
           transform="translate(21.9736,1.2832)"><path
             d="m 0,0 c -1.367,-0.194 -2.75,-0.451 -4.135,-0.37 -1.621,0.094 -1.678,1.7 -1.646,2.992 0.066,2.734 2.777,3.36 5.006,3.502 0.545,0.034 0.547,0.885 0,0.85 C -3.816,6.782 -6.556,5.726 -6.639,2.286 -6.668,1.116 -6.48,-0.455 -5.246,-0.962 -3.582,-1.645 -1.479,-1.063 0.225,-0.82 0.767,-0.743 0.535,0.076 0,0"
             style="fill:#1a171b;fill-opacity:1;fill-rule:nonzero;stroke:none"
             id="path54" /></g><g
           id="g56"
           transform="translate(19.165,26.0518)"><path
             d="M 0,0 C 1.652,-1.978 5.1,-0.487 6.86,0.521 7.336,0.794 6.908,1.529 6.431,1.256 5.023,0.449 1.957,-1.022 0.602,0.602 0.25,1.023 -0.349,0.418 0,0"
             style="fill:#1a171b;fill-opacity:1;fill-rule:nonzero;stroke:none"
             id="path58" /></g><g
           id="g60"
           transform="translate(10.8916,10.208)"><path
             d="m 0,0 c 2.346,-1.036 4.879,-1.658 7.06,-3.038 0.465,-0.294 0.891,0.442 0.429,0.734 -2.186,1.383 -4.712,2 -7.059,3.038 C -0.067,0.954 -0.5,0.222 0,0"
             style="fill:#1a171b;fill-opacity:1;fill-rule:nonzero;stroke:none"
             id="path62" /></g><g
           id="g64"
           transform="translate(31.3623,27.8799)"><path
             d="M 0,0 C 0.48,-0.175 0.908,-0.509 1.297,-0.834 1.568,-1.063 1.901,-1.325 2.079,-1.638 2.351,-2.113 3.086,-1.686 2.813,-1.208 2.576,-0.791 2.16,-0.453 1.797,-0.149 1.324,0.249 0.811,0.607 0.227,0.82 -0.29,1.009 -0.511,0.187 0,0"
             style="fill:#1a171b;fill-opacity:1;fill-rule:nonzero;stroke:none"
             id="path66" /></g><g
           id="g68"
           transform="translate(12.5947,54.0083)"><path
             d="m 0,0 c -0.07,0.013 -0.141,0.026 -0.21,0.04 l -0.226,-0.821 c 2.387,-0.431 4.76,-0.957 7.124,-1.499 1.826,-0.419 3.643,-0.876 5.441,-1.403 0.786,-0.231 1.562,-0.492 2.326,-0.788 1.066,-0.413 0.844,-1.048 0.895,-2.125 0.13,-2.752 0.289,-6.284 -3.289,-6.235 -0.946,0.013 -1.821,0.486 -2.717,0.168 -1.492,-0.529 -2.985,-1.059 -4.477,-1.589 -0.812,-0.289 -0.311,-0.343 -0.935,0.117 -0.532,0.391 -1.063,0.783 -1.594,1.174 -0.195,0.143 -0.465,0.024 -0.582,-0.153 -0.303,-0.453 -0.606,-0.907 -0.907,-1.362 -0.238,-0.303 -0.216,-0.323 0.063,-0.06 -0.414,0.175 -0.758,0.492 -1.177,0.669 -0.499,0.211 -0.932,-0.521 -0.429,-0.734 0.518,-0.219 0.952,-0.574 1.47,-0.793 0.224,-0.095 0.441,-0.06 0.582,0.152 0.149,0.223 0.297,0.446 0.446,0.669 0.154,0.231 0.307,0.462 0.462,0.694 0.287,0.313 0.192,0.356 -0.284,0.129 0.668,-0.492 1.336,-0.983 2.004,-1.476 0.72,-0.529 3.394,0.965 4.118,1.223 1.933,0.686 2.334,0.344 4.462,0.315 2.225,-0.031 3.143,1.215 3.483,3.243 0.193,1.159 0.796,5.262 -0.126,6.184 -1.073,1.074 -3.581,1.413 -4.964,1.794 -3.67,1.012 -7.423,1.829 -11.169,2.507 -0.534,0.096 -0.766,-0.716 -0.226,-0.821 0.07,-0.013 0.139,-0.026 0.209,-0.039 C 0.31,-0.92 0.538,-0.101 0,0"
             style="fill:#1a171b;fill-opacity:1;fill-rule:nonzero;stroke:none"
             id="path70" /></g><g
           id="g72"
           transform="translate(4.998,11.1885)"><path
             d="m 0,0 h -4.573 c -0.549,0 -0.549,-0.85 0,-0.85 H 0 C 0.548,-0.85 0.548,0 0,0"
             style="fill:#1a171b;fill-opacity:1;fill-rule:nonzero;stroke:none"
             id="path74" /></g><g
           id="g76"
           transform="translate(37.2783,9.0313)"><path
             d="m 0,0 h 3.79 c 0.548,0 0.548,0.85 0,0.85 H 0 C -0.549,0.85 -0.549,0 0,0"
             style="fill:#1a171b;fill-opacity:1;fill-rule:nonzero;stroke:none"
             id="path78" /></g><g
           id="g80"
           transform="translate(17.9561,35.4453)"><path
             d="M 0,0 C 0.771,-0.129 1.512,-0.035 2.11,0.502 2.52,0.869 1.916,1.469 1.509,1.104 1.156,0.786 0.678,0.745 0.225,0.82 -0.311,0.91 -0.541,0.091 0,0"
             style="fill:#1a171b;fill-opacity:1;fill-rule:nonzero;stroke:none"
             id="path82" /></g><g
           id="g84"
           transform="translate(17.373,45.6328)"><path
             d="m 0,0 c -0.591,-0.392 -1.209,-1.007 -1.062,-1.787 0.153,-0.796 0.958,-1.156 1.686,-1.255 0.535,-0.073 0.767,0.746 0.225,0.82 -0.389,0.053 -0.842,0.137 -1.053,0.506 -0.217,0.378 0.392,0.822 0.634,0.982 C 0.884,-0.433 0.459,0.304 0,0"
             style="fill:#1a171b;fill-opacity:1;fill-rule:nonzero;stroke:none"
             id="path86" /></g><g
           id="g88"
           transform="translate(3.4063,14.3789)"><path
             d="M 0,0 C 0.38,0.918 0.612,1.869 1.187,2.696 1.5,3.148 0.763,3.573 0.452,3.126 -0.163,2.238 -0.413,1.211 -0.82,0.227 -1.03,-0.28 -0.206,-0.499 0,0"
             style="fill:#1a171b;fill-opacity:1;fill-rule:nonzero;stroke:none"
             id="path90" /></g></g></g></g></svg>