<?xml version="1.0" encoding="UTF-8" standalone="no"?>
<!-- Created with Inkscape (http://www.inkscape.org/) -->

<svg
   xmlns:dc="http://purl.org/dc/elements/1.1/"
   xmlns:cc="http://creativecommons.org/ns#"
   xmlns:rdf="http://www.w3.org/1999/02/22-rdf-syntax-ns#"
   xmlns:svg="http://www.w3.org/2000/svg"
   xmlns="http://www.w3.org/2000/svg"
   xmlns:sodipodi="http://sodipodi.sourceforge.net/DTD/sodipodi-0.dtd"
   xmlns:inkscape="http://www.inkscape.org/namespaces/inkscape"
   version="1.1"
   id="svg2"
   xml:space="preserve"
   width="58.792934"
   height="78.975197"
   viewBox="0 0 58.792934 78.975197"
   sodipodi:docname="software-engineer.svg"
   inkscape:version="0.92.3 (2405546, 2018-03-11)"><metadata
     id="metadata8"><rdf:RDF><cc:Work
         rdf:about=""><dc:format>image/svg+xml</dc:format><dc:type
           rdf:resource="http://purl.org/dc/dcmitype/StillImage" /><dc:title></dc:title></cc:Work></rdf:RDF></metadata><defs
     id="defs6"><clipPath
       clipPathUnits="userSpaceOnUse"
       id="clipPath18"><path
         d="M 0,59.231 H 44.095 V 0 H 0 Z"
         id="path16"
         inkscape:connector-curvature="0" /></clipPath></defs><sodipodi:namedview
     pagecolor="#ffffff"
     bordercolor="#666666"
     borderopacity="1"
     objecttolerance="10"
     gridtolerance="10"
     guidetolerance="10"
     inkscape:pageopacity="0"
     inkscape:pageshadow="2"
     inkscape:window-width="716"
     inkscape:window-height="480"
     id="namedview4"
     showgrid="false"
     inkscape:zoom="2.98828"
     inkscape:cx="29.396467"
     inkscape:cy="39.487598"
     inkscape:window-x="0"
     inkscape:window-y="0"
     inkscape:window-maximized="0"
     inkscape:current-layer="g10" /><g
     id="g10"
     inkscape:groupmode="layer"
     inkscape:label="software-engineer"
     transform="matrix(1.3333333,0,0,-1.3333333,0,78.9752)"><g
       id="g12"><g
         id="g14"
         clip-path="url(#clipPath18)"><g
           id="g20"
           transform="translate(33.6094,44.9277)"><path
             d="m 0,0 c 0.342,4.312 0.125,8.678 -2.58,12.251 -0.184,0.241 -0.48,0.442 -0.801,0.325 -0.838,-0.303 -1.677,-0.606 -2.515,-0.91 -0.528,-0.191 -1.055,-0.382 -1.583,-0.573 -0.753,-0.273 0.07,-0.242 -0.099,-0.128 -1.599,1.079 -3.197,2.16 -4.797,3.239 -0.285,0.193 -0.615,0.077 -0.858,-0.111 -1.608,-1.245 -1.84,-3.069 -0.894,-4.779 0.204,0.355 0.408,0.711 0.612,1.066 -5.409,0.724 -7.013,-3.975 -7.298,-8.526 -0.295,-4.742 -0.454,-11.907 2.977,-15.629 1.762,-1.911 5.376,-1.943 7.777,-1.973 2.171,-0.026 4.249,0.557 5.953,1.913 3.764,2.998 3.743,9.526 4.106,13.835 0.076,0.911 -1.342,0.904 -1.418,0 -0.321,-3.813 -0.429,-8.17 -2.519,-11.514 -2.275,-3.641 -8.991,-3.593 -12.332,-1.716 -3.455,1.94 -3.001,8.62 -3.125,11.957 -0.16,4.285 -0.037,11.028 5.879,10.236 0.563,-0.075 0.843,0.648 0.613,1.066 -0.752,1.358 -0.288,2.319 0.671,3.062 -0.287,-0.037 -0.573,-0.074 -0.859,-0.111 1.655,-1.118 3.311,-2.236 4.967,-3.354 0.914,-0.618 4.164,1.238 5.119,1.584 -0.267,0.108 -0.533,0.217 -0.801,0.325 C -1.236,8.145 -1.094,4.077 -1.418,0 -1.49,-0.912 -0.072,-0.905 0,0"
             style="fill:#1a171b;fill-opacity:1;fill-rule:nonzero;stroke:none"
             id="path22"
             inkscape:connector-curvature="0" /></g><g
           id="g24"
           transform="translate(19.5078,29.8662)"><path
             d="M 0,0 C 0.251,-0.593 0.202,-1.368 0.209,-1.998 0.217,-2.74 0.198,-3.508 0.065,-4.24 -0.031,-4.776 0.788,-5.005 0.886,-4.466 1.152,-2.993 1.332,-0.98 0.734,0.43 0.521,0.933 -0.211,0.499 0,0"
             style="fill:#1a171b;fill-opacity:1;fill-rule:nonzero;stroke:none"
             id="path26"
             inkscape:connector-curvature="0" /></g><g
           id="g28"
           transform="translate(12.7803,10.0391)"><path
             d="M 0,0 C 0.47,2.776 1.768,5.124 3.364,7.41 3.679,7.861 2.941,8.286 2.63,7.84 0.991,5.493 -0.339,3.073 -0.82,0.227 -0.911,-0.31 -0.092,-0.54 0,0"
             style="fill:#1a171b;fill-opacity:1;fill-rule:nonzero;stroke:none"
             id="path30"
             inkscape:connector-curvature="0" /></g><g
           id="g32"
           transform="translate(30.6934,9.8232)"><path
             d="M 0,0 C -0.158,3.375 -0.795,5.772 -2.876,8.509 -3.203,8.938 -3.942,8.516 -3.61,8.079 -2.655,6.824 -1.787,5.552 -1.309,4.035 -0.902,2.746 -0.913,1.337 -0.852,0 -0.826,-0.546 0.025,-0.549 0,0"
             style="fill:#1a171b;fill-opacity:1;fill-rule:nonzero;stroke:none"
             id="path34"
             inkscape:connector-curvature="0" /></g><g
           id="g36"
           transform="translate(21.7744,7.1816)"><path
             d="M 0,0 C 3.144,1.091 6.549,1.307 9.632,2.561 10.133,2.765 9.914,3.587 9.405,3.381 6.322,2.127 2.917,1.911 -0.227,0.82 -0.741,0.642 -0.52,-0.18 0,0"
             style="fill:#1a171b;fill-opacity:1;fill-rule:nonzero;stroke:none"
             id="path38"
             inkscape:connector-curvature="0" /></g><g
           id="g40"
           transform="translate(19.6758,26.1216)"><path
             d="m 0,0 c -6.575,0.708 -11.776,-7.981 -13.78,-13.11 -0.983,-2.515 -0.899,-4.337 0.399,-6.664 1.813,-3.247 6.436,-4.153 9.677,-5.037 0.884,-0.24 1.258,1.127 0.377,1.367 -3.023,0.823 -7.003,1.548 -8.829,4.386 -1.323,2.055 -0.944,3.813 -0.092,5.995 1.75,4.479 6.595,12.254 12.248,11.646 0.908,-0.098 0.898,1.32 0,1.417"
             style="fill:#1a171b;fill-opacity:1;fill-rule:nonzero;stroke:none"
             id="path42"
             inkscape:connector-curvature="0" /></g><g
           id="g44"
           transform="translate(22.8203,1.1592)"><path
             d="M 0,0 C -1.639,1.564 -2.043,4.313 -0.792,6.218 -0.49,6.678 -1.227,7.104 -1.526,6.647 -2.979,4.434 -2.502,1.214 -0.602,-0.602 -0.205,-0.979 0.397,-0.38 0,0"
             style="fill:#1a171b;fill-opacity:1;fill-rule:nonzero;stroke:none"
             id="path46"
             inkscape:connector-curvature="0" /></g><g
           id="g48"
           transform="translate(24.8984,29.5801)"><path
             d="m 0,0 c 0.324,-1.145 0.463,-2.31 0.514,-3.497 0.012,-0.289 0.205,-0.633 0.52,-0.683 7.011,-1.101 9.934,-8.806 10.33,-15.103 0.429,-6.806 -9.352,-7.242 -13.931,-8.755 -0.864,-0.285 -0.494,-1.654 0.377,-1.367 5.657,1.87 14.928,2.231 14.971,10.122 0.037,6.842 -4.06,15.322 -11.37,16.47 C 1.584,-3.041 1.758,-3.269 1.932,-3.497 1.875,-2.182 1.727,-0.893 1.367,0.377 1.119,1.255 -0.249,0.881 0,0"
             style="fill:#1a171b;fill-opacity:1;fill-rule:nonzero;stroke:none"
             id="path50"
             inkscape:connector-curvature="0" /></g><g
           id="g52"
           transform="translate(22.4063,1.2686)"><path
             d="m 0,0 c -1.321,-0.188 -2.659,-0.436 -3.999,-0.358 -1.56,0.089 -1.609,1.64 -1.579,2.881 0.064,2.638 2.685,3.24 4.833,3.375 0.544,0.035 0.548,0.885 0,0.85 -2.95,-0.185 -5.61,-1.213 -5.692,-4.55 -0.028,-1.138 0.157,-2.663 1.358,-3.156 1.613,-0.661 3.652,-0.097 5.306,0.138 C 0.768,-0.743 0.536,0.076 0,0"
             style="fill:#1a171b;fill-opacity:1;fill-rule:nonzero;stroke:none"
             id="path54"
             inkscape:connector-curvature="0" /></g><g
           id="g56"
           transform="translate(19.6826,25.2124)"><path
             d="M 0,0 C 1.605,-1.917 4.943,-0.479 6.653,0.504 7.128,0.777 6.7,1.512 6.224,1.238 4.867,0.459 1.911,-0.962 0.602,0.602 0.249,1.022 -0.35,0.417 0,0"
             style="fill:#1a171b;fill-opacity:1;fill-rule:nonzero;stroke:none"
             id="path58"
             inkscape:connector-curvature="0" /></g><g
           id="g60"
           transform="translate(11.6807,9.8779)"><path
             d="m 0,0 c 2.269,-1.003 4.72,-1.604 6.829,-2.938 0.465,-0.294 0.892,0.442 0.43,0.734 C 5.144,-0.866 2.7,-0.27 0.43,0.734 -0.067,0.954 -0.501,0.222 0,0"
             style="fill:#1a171b;fill-opacity:1;fill-rule:nonzero;stroke:none"
             id="path62"
             inkscape:connector-curvature="0" /></g><g
           id="g64"
           transform="translate(37.7773,18.6426)"><path
             d="m 0,0 c 0.733,-1.087 1.38,-2.404 1.422,-3.731 0.018,-0.547 0.869,-0.549 0.851,0 C 2.226,-2.255 1.553,-0.782 0.734,0.43 0.43,0.881 -0.308,0.456 0,0"
             style="fill:#1a171b;fill-opacity:1;fill-rule:nonzero;stroke:none"
             id="path66"
             inkscape:connector-curvature="0" /></g><g
           id="g68"
           transform="translate(0.4248,9.2998)"><path
             d="M 0,0 C 1.816,-0.01 3.649,-0.149 5.457,0.077 5.993,0.144 6,0.995 5.457,0.927 3.649,0.7 1.816,0.841 0,0.85 -0.549,0.853 -0.548,0.002 0,0"
             style="fill:#1a171b;fill-opacity:1;fill-rule:nonzero;stroke:none"
             id="path70"
             inkscape:connector-curvature="0" /></g><g
           id="g72"
           transform="translate(36.9746,9.3154)"><path
             d="m 0,0 c 2.229,-0.001 4.469,-0.052 6.695,0.083 0.545,0.032 0.548,0.883 0,0.85 C 4.469,0.799 2.229,0.85 0,0.85 -0.549,0.851 -0.549,0 0,0"
             style="fill:#1a171b;fill-opacity:1;fill-rule:nonzero;stroke:none"
             id="path74"
             inkscape:connector-curvature="0" /></g><g
           id="g76"
           transform="translate(12.0479,26.4365)"><path
             d="m 0,0 c -1.342,-0.602 -2.554,-1.558 -3.397,-2.767 -0.315,-0.451 0.422,-0.876 0.734,-0.429 0.761,1.091 1.888,1.921 3.093,2.462 C 0.929,-0.51 0.496,0.223 0,0"
             style="fill:#1a171b;fill-opacity:1;fill-rule:nonzero;stroke:none"
             id="path78"
             inkscape:connector-curvature="0" /></g><g
           id="g80"
           transform="translate(21.0156,34.4556)"><path
             d="M 0,0 C 0.918,0 1.842,0 2.727,0.277 3.248,0.441 3.025,1.262 2.5,1.098 1.686,0.842 0.846,0.851 0,0.851 -0.549,0.85 -0.549,0 0,0"
             style="fill:#1a171b;fill-opacity:1;fill-rule:nonzero;stroke:none"
             id="path82"
             inkscape:connector-curvature="0" /></g><g
           id="g84"
           transform="translate(20.584,42.8979)"><path
             d="M 0,0 C -0.647,-0.682 -0.961,-1.666 -0.141,-2.354 0.613,-2.987 1.75,-2.981 2.605,-2.584 3.102,-2.353 2.67,-1.62 2.176,-1.85 1.693,-2.074 1.095,-2.07 0.615,-1.839 -0.011,-1.538 0.207,-1.017 0.602,-0.602 0.979,-0.204 0.379,0.398 0,0"
             style="fill:#1a171b;fill-opacity:1;fill-rule:nonzero;stroke:none"
             id="path86"
             inkscape:connector-curvature="0" /></g><g
           id="g88"
           transform="translate(13.7021,49.8384)"><path
             d="m 0,0 c 6.625,-1.218 12.899,1.609 19.035,-2.41 0.46,-0.301 0.886,0.435 0.43,0.735 C 16.698,0.137 13.774,0.864 10.489,0.92 7.052,0.979 3.649,0.191 0.227,0.82 -0.31,0.918 -0.538,0.099 0,0"
             style="fill:#1a171b;fill-opacity:1;fill-rule:nonzero;stroke:none"
             id="path90"
             inkscape:connector-curvature="0" /></g></g></g></g></svg>