<svg
   xmlns:svg="http://www.w3.org/2000/svg"
   xmlns="http://www.w3.org/2000/svg"
   version="1.1"
   id="svg2"
   xml:space="preserve"
   width="168.76534"
   height="87.692001"
   viewBox="0 0 168.76534 87.692001">
    <metadata id="metadata8"></metadata>
    <defs
     id="defs6"><clipPath
       clipPathUnits="userSpaceOnUse"
       id="clipPath18"><path
         d="M 0,65.769 H 126.574 V 0 H 0 Z"
         id="path16" /></clipPath></defs>
    <g
     id="g10"
     transform="matrix(1.3333333,0,0,-1.3333333,0,87.692)"><g
       id="g12"><g
         id="g14"
         clip-path="url(#clipPath18)"><g
           id="g20"
           transform="translate(54.2939,59.1431)"><path
             d="m 0,0 c -0.003,-1.765 -0.042,-3.486 -0.406,-5.223 0.227,0.174 0.456,0.347 0.683,0.52 -2.026,-0.07 -5.572,-0.821 -5.572,-3.522 0,-2.915 3.241,-3.597 5.572,-3.523 -0.227,0.299 -0.456,0.598 -0.683,0.897 -0.604,-3.828 -1.274,-7.886 -0.256,-11.698 1.022,-3.831 4.636,-4.28 8.057,-3.968 3.791,0.345 8.111,1.527 11.132,3.938 2.499,1.995 2.987,6.227 3.305,9.146 0.61,5.585 0.748,15.47 -5.47,18.089 -5.459,2.3 -14.64,2.85 -17.203,-3.819 -0.328,-0.854 1.043,-1.22 1.367,-0.377 2.251,5.858 11.082,4.829 15.647,2.738 4.956,-2.272 4.599,-10.966 4.339,-15.468 -0.164,-2.825 -0.638,-5.923 -2.16,-8.365 -1.705,-2.734 -6.331,-3.629 -9.228,-4.207 -3.496,-0.698 -7.463,-0.915 -8.558,3.184 -0.879,3.3 -0.126,7.132 0.395,10.43 0.068,0.436 -0.183,0.913 -0.684,0.897 -1.431,-0.045 -3.567,0.006 -4.127,1.649 -0.691,2.025 3.005,2.523 4.127,2.562 0.302,0.011 0.618,0.207 0.684,0.52 C 1.352,-3.736 1.414,-1.901 1.418,0 1.42,0.914 0.002,0.914 0,0"
             style="fill:#1a171b;fill-opacity:1;fill-rule:nonzero;stroke:none"
             id="path22" /></g><g
           id="g24"
           transform="translate(61.9961,32.7373)"><path
             d="M 0,0 C 0.473,-1.04 0.505,-2.458 0.31,-3.567 0.216,-4.104 1.035,-4.333 1.13,-3.794 1.368,-2.438 1.311,-0.839 0.734,0.43 0.508,0.928 -0.225,0.496 0,0"
             style="fill:#1a171b;fill-opacity:1;fill-rule:nonzero;stroke:none"
             id="path26" /></g><g
           id="g28"
           transform="translate(54.4404,11.4121)"><path
             d="M 0,0 C 0.534,3.174 2.02,5.859 3.846,8.472 4.161,8.922 3.423,9.347 3.111,8.9 1.242,6.227 -0.273,3.472 -0.82,0.226 -0.91,-0.311 -0.091,-0.54 0,0"
             style="fill:#1a171b;fill-opacity:1;fill-rule:nonzero;stroke:none"
             id="path30" /></g><g
           id="g32"
           transform="translate(74.9043,11.0557)"><path
             d="M 0,0 C -0.181,3.864 -0.917,6.64 -3.299,9.773 -3.626,10.204 -4.365,9.781 -4.033,9.345 -2.93,7.893 -1.938,6.421 -1.388,4.667 -0.919,3.176 -0.923,1.548 -0.85,0 -0.824,-0.546 0.026,-0.548 0,0"
             style="fill:#1a171b;fill-opacity:1;fill-rule:nonzero;stroke:none"
             id="path34" /></g><g
           id="g36"
           transform="translate(64.7432,8.1924)"><path
             d="M 0,0 C 3.587,1.246 7.473,1.494 10.991,2.922 11.492,3.126 11.273,3.949 10.765,3.743 7.246,2.313 3.36,2.066 -0.227,0.82 -0.741,0.642 -0.52,-0.18 0,0"
             style="fill:#1a171b;fill-opacity:1;fill-rule:nonzero;stroke:none"
             id="path38" /></g><g
           id="g40"
           transform="translate(62.9043,29.7402)"><path
             d="m 0,0 c -3.234,0.682 -6.159,-1.752 -8.324,-3.846 -3.166,-3.063 -5.78,-6.959 -7.539,-10.988 -1.241,-2.841 -1.374,-4.816 0.034,-7.549 1.753,-3.402 7.499,-4.529 10.655,-5.824 0.846,-0.347 1.21,1.025 0.377,1.367 -2.865,1.175 -7.817,2.127 -9.654,4.908 -1.537,2.327 -1.077,4.346 -0.013,6.786 1.467,3.359 3.644,6.474 6.082,9.194 1.831,2.042 4.936,5.232 8.005,4.585 C 0.515,-1.555 0.895,-0.188 0,0"
             style="fill:#1a171b;fill-opacity:1;fill-rule:nonzero;stroke:none"
             id="path42" /></g><g
           id="g44"
           transform="translate(65.9111,1.2192)"><path
             d="m 0,0 c -1.887,1.804 -2.354,4.973 -0.914,7.168 0.302,0.461 -0.435,0.886 -0.734,0.43 -1.644,-2.505 -1.103,-6.145 1.046,-8.2 C -0.205,-0.98 0.397,-0.38 0,0"
             style="fill:#1a171b;fill-opacity:1;fill-rule:nonzero;stroke:none"
             id="path46" /></g><g
           id="g48"
           transform="translate(67.9033,34.8447)"><path
             d="m 0,0 c 0.581,-1.654 1.035,-3.383 1.11,-5.139 0.013,-0.288 0.205,-0.635 0.521,-0.683 8.02,-1.229 11.378,-10.071 11.857,-17.253 0.529,-7.923 -10.641,-8.399 -15.969,-10.168 -0.864,-0.286 -0.494,-1.655 0.377,-1.366 6.4,2.125 17.07,2.535 17.009,11.534 C 14.854,-15.347 10.331,-5.73 2.008,-4.456 2.181,-4.684 2.354,-4.911 2.528,-5.139 2.446,-3.252 1.991,-1.401 1.367,0.377 1.066,1.233 -0.304,0.865 0,0"
             style="fill:#1a171b;fill-opacity:1;fill-rule:nonzero;stroke:none"
             id="path50" /></g><g
           id="g52"
           transform="translate(65.4971,1.3286)"><path
             d="m 0,0 c -1.513,-0.214 -3.045,-0.499 -4.578,-0.41 -1.82,0.106 -1.898,1.896 -1.862,3.35 0.074,3.047 3.086,3.752 5.573,3.909 0.545,0.034 0.548,0.884 0,0.85 C -4.2,7.489 -7.208,6.34 -7.3,2.569 -7.331,1.303 -7.136,-0.425 -5.794,-0.976 -3.964,-1.727 -1.65,-1.086 0.227,-0.82 0.768,-0.744 0.536,0.076 0,0"
             style="fill:#1a171b;fill-opacity:1;fill-rule:nonzero;stroke:none"
             id="path54" /></g><g
           id="g56"
           transform="translate(62.415,28.7559)"><path
             d="M 0,0 C 1.811,-2.167 5.596,-0.523 7.522,0.583 7.998,0.855 7.569,1.59 7.093,1.317 5.52,0.414 2.115,-1.21 0.602,0.602 0.249,1.023 -0.349,0.418 0,0"
             style="fill:#1a171b;fill-opacity:1;fill-rule:nonzero;stroke:none"
             id="path58" /></g><g
           id="g60"
           transform="translate(53.2725,11.2656)"><path
             d="M 0,0 C 2.588,-1.146 5.386,-1.83 7.793,-3.354 8.258,-3.648 8.685,-2.913 8.223,-2.62 5.81,-1.093 3.021,-0.413 0.43,0.734 -0.067,0.954 -0.5,0.222 0,0"
             style="fill:#1a171b;fill-opacity:1;fill-rule:nonzero;stroke:none"
             id="path62" /></g><g
           id="g64"
           transform="translate(32.0293,59.8477)"><path
             d="m 0,0 c 0.798,-2.46 5.501,-10.918 0.251,-10.791 -0.501,0.012 -0.753,-0.459 -0.684,-0.897 0.513,-3.249 1.026,-6.612 0.506,-9.893 -0.731,-4.617 -4.985,-4.363 -8.67,-3.721 -2.948,0.514 -6.782,1.48 -8.889,3.754 -1.99,2.148 -2.293,6.077 -2.497,8.819 -0.345,4.624 -0.536,13.032 4.338,15.466 C -11.15,4.981 -2.203,5.741 0,0 c 0.324,-0.844 1.695,-0.478 1.367,0.377 -2.56,6.67 -11.743,6.118 -17.201,3.818 -6.277,-2.645 -5.984,-12.472 -5.471,-18.088 0.28,-3.051 0.899,-6.586 3.056,-8.916 2.603,-2.809 7.804,-3.737 11.382,-4.169 3.364,-0.404 6.488,0.121 7.893,3.48 1.534,3.664 0.502,8.419 -0.091,12.187 C 0.707,-11.61 0.479,-11.909 0.251,-12.208 7.438,-12.383 2.456,-2.981 1.367,0.377 1.086,1.243 -0.282,0.872 0,0"
             style="fill:#1a171b;fill-opacity:1;fill-rule:nonzero;stroke:none"
             id="path66" /></g><g
           id="g68"
           transform="translate(24.1221,33.4121)"><path
             d="m 0,0 c -0.578,-1.269 -0.636,-2.868 -0.396,-4.225 0.095,-0.539 0.915,-0.31 0.82,0.227 C 0.228,-2.888 0.26,-1.47 0.734,-0.43 0.96,0.065 0.228,0.498 0,0"
             style="fill:#1a171b;fill-opacity:1;fill-rule:nonzero;stroke:none"
             id="path70" /></g><g
           id="g72"
           transform="translate(33.2324,11.8828)"><path
             d="M 0,0 C -0.547,3.246 -2.063,6 -3.933,8.674 -4.244,9.12 -4.982,8.695 -4.667,8.244 -2.842,5.632 -1.354,2.948 -0.82,-0.227 -0.729,-0.766 0.09,-0.537 0,0"
             style="fill:#1a171b;fill-opacity:1;fill-rule:nonzero;stroke:none"
             id="path74" /></g><g
           id="g76"
           transform="translate(12.7959,11.3003)"><path
             d="M 0,0 C 0.074,1.573 0.135,3.137 0.539,4.667 1.001,6.411 2.111,7.931 3.186,9.344 3.518,9.781 2.778,10.204 2.451,9.773 0.07,6.64 -0.668,3.864 -0.85,0 -0.876,-0.548 -0.025,-0.546 0,0"
             style="fill:#1a171b;fill-opacity:1;fill-rule:nonzero;stroke:none"
             id="path78" /></g><g
           id="g80"
           transform="translate(22.3359,9.2573)"><path
             d="M 0,0 C -3.587,1.246 -7.473,1.492 -10.991,2.922 -11.5,3.129 -11.719,2.306 -11.218,2.102 -7.699,0.672 -3.813,0.425 -0.227,-0.82 0.293,-1 0.515,-0.179 0,0"
             style="fill:#1a171b;fill-opacity:1;fill-rule:nonzero;stroke:none"
             id="path82" /></g><g
           id="g84"
           transform="translate(24.3242,28.6172)"><path
             d="m 0,0 c 2.949,0.622 5.824,-2.301 7.654,-4.207 2.555,-2.662 4.654,-5.841 6.244,-9.164 1.223,-2.552 1.628,-4.411 0.331,-6.93 -0.564,-1.094 -1.593,-1.692 -2.657,-2.221 -2.298,-1.145 -4.779,-1.977 -7.152,-2.951 -0.833,-0.342 -0.469,-1.714 0.377,-1.367 3.275,1.344 8.398,2.376 10.502,5.559 1.699,2.573 1.392,4.903 0.258,7.644 -1.653,3.995 -4.271,7.691 -7.254,10.801 -2.159,2.25 -5.324,4.91 -8.68,4.203 C -1.271,1.179 -0.892,-0.188 0,0"
             style="fill:#1a171b;fill-opacity:1;fill-rule:nonzero;stroke:none"
             id="path86" /></g><g
           id="g88"
           transform="translate(21.542,0.8618)"><path
             d="M 0,0 C 2.148,2.056 2.69,5.694 1.048,8.2 0.748,8.656 0.012,8.231 0.313,7.771 1.754,5.574 1.284,2.406 -0.602,0.602 -0.998,0.222 -0.396,-0.379 0,0"
             style="fill:#1a171b;fill-opacity:1;fill-rule:nonzero;stroke:none"
             id="path90" /></g><g
           id="g92"
           transform="translate(17.5801,35.4663)"><path
             d="m 0,0 c -0.624,-1.778 -1.078,-3.629 -1.16,-5.516 0.174,0.227 0.347,0.455 0.52,0.683 -8.666,-1.328 -12.379,-10.855 -12.897,-18.619 -0.594,-8.891 11.018,-9.545 17.01,-11.535 0.87,-0.289 1.24,1.08 0.377,1.366 -5.666,1.883 -16.024,2.14 -15.97,10.169 0.049,7.148 4.166,16.074 11.857,17.252 0.316,0.049 0.508,0.396 0.521,0.684 0.075,1.756 0.528,3.485 1.109,5.139 C 1.671,0.488 0.301,0.856 0,0"
             style="fill:#1a171b;fill-opacity:1;fill-rule:nonzero;stroke:none"
             id="path94" /></g><g
           id="g96"
           transform="translate(21.1279,0.7524)"><path
             d="M 0,0 C 1.85,-0.262 3.938,-0.791 5.778,-0.255 7.353,0.203 7.486,2.019 7.525,3.389 7.633,7.16 4.268,8.32 1.095,8.52 0.547,8.555 0.55,7.704 1.095,7.669 3.715,7.504 6.418,6.804 6.666,3.76 6.791,2.227 6.552,0.619 4.805,0.41 3.312,0.232 1.694,0.612 0.227,0.82 -0.31,0.896 -0.541,0.077 0,0"
             style="fill:#1a171b;fill-opacity:1;fill-rule:nonzero;stroke:none"
             id="path98" /></g><g
           id="g100"
           transform="translate(23.835,29.6016)"><path
             d="M 0,0 C -1.513,-1.812 -4.919,-0.187 -6.491,0.716 -6.968,0.989 -7.396,0.254 -6.921,-0.019 -4.994,-1.124 -1.208,-2.768 0.602,-0.602 0.95,-0.184 0.353,0.421 0,0"
             style="fill:#1a171b;fill-opacity:1;fill-rule:nonzero;stroke:none"
             id="path102" /></g><g
           id="g104"
           transform="translate(33.1494,12.2446)"><path
             d="m 0,0 c -2.591,-1.147 -5.38,-1.828 -7.793,-3.354 -0.462,-0.293 -0.035,-1.029 0.43,-0.735 2.408,1.524 5.205,2.209 7.793,3.355 C 0.93,-0.513 0.497,0.22 0,0"
             style="fill:#1a171b;fill-opacity:1;fill-rule:nonzero;stroke:none"
             id="path106" /></g><g
           id="g108"
           transform="translate(0.8682,13.7451)"><path
             d="m 0,0 c -0.795,-1.717 -0.867,-3.546 -0.868,-5.409 -0.001,-0.549 0.849,-0.549 0.849,0 0.002,1.695 0.028,3.412 0.753,4.98 C 0.963,0.065 0.23,0.498 0,0"
             style="fill:#1a171b;fill-opacity:1;fill-rule:nonzero;stroke:none"
             id="path110" /></g><g
           id="g112"
           transform="translate(75.6055,30.4727)"><path
             d="M 0,0 C 0.809,-0.279 1.55,-0.689 2.019,-1.427 2.312,-1.888 3.048,-1.462 2.753,-0.998 2.16,-0.065 1.251,0.466 0.227,0.82 -0.293,1 -0.515,0.178 0,0"
             style="fill:#1a171b;fill-opacity:1;fill-rule:nonzero;stroke:none"
             id="path114" /></g><g
           id="g116"
           transform="translate(54.8896,58.7329)"><path
             d="m 0,0 c 2.887,-1.005 5.762,-2.04 8.631,-3.094 3.979,-1.462 8.297,-2.759 11.983,-4.888 0.476,-0.275 0.905,0.46 0.43,0.734 C 17.599,-5.257 13.591,-4.03 9.879,-2.651 6.674,-1.461 3.455,-0.304 0.227,0.82 -0.293,1.001 -0.515,0.179 0,0"
             style="fill:#1a171b;fill-opacity:1;fill-rule:nonzero;stroke:none"
             id="path118" /></g><g
           id="g120"
           transform="translate(95.9854,59.4146)"><path
             d="m 0,0 c -0.074,-2.076 -0.653,-4.164 -1.133,-6.176 -0.211,-0.887 -0.196,-1.15 -0.858,-1.691 -0.852,-0.698 -1.776,-1.679 -2.172,-2.736 -0.981,-2.615 1.105,-4.361 3.376,-5.161 0.653,-0.231 1.383,-2.438 1.603,-3.052 0.357,-0.993 0.408,-2.05 0.575,-3.08 0.305,-1.894 1.292,-3.022 3.052,-3.789 4.102,-1.784 10.096,0.245 13.522,2.661 2.916,2.056 3.511,6.323 3.868,9.591 0.484,4.436 0.207,9.281 -1.272,13.517 C 18.39,6.302 8.533,7.697 3.171,5.145 1.246,4.229 -0.077,2.828 -0.842,0.837 -1.17,-0.017 0.201,-0.383 0.525,0.46 c 1.45,3.774 5.686,4.45 9.267,4.276 2.724,-0.132 6.942,-0.83 8.578,-3.306 2.066,-3.127 2.206,-7.717 2.223,-11.323 0.017,-3.57 -0.235,-8.277 -2.58,-11.194 -2.544,-3.166 -9.677,-4.755 -13.326,-3.168 -2.014,0.876 -1.886,2.836 -2.209,4.672 -0.234,1.325 -1.261,4.71 -2.664,5.115 -0.726,0.209 -1.425,0.561 -2.018,1.029 -2.505,1.979 1.135,3.78 2.009,5.272 0.486,0.831 0.559,2.155 0.769,3.075 C 0.954,-3.427 1.356,-1.713 1.418,0 1.45,0.915 0.033,0.911 0,0"
             style="fill:#1a171b;fill-opacity:1;fill-rule:nonzero;stroke:none"
             id="path122" /></g><g
           id="g124"
           transform="translate(103.6885,33.0098)"><path
             d="M 0,0 C 0.472,-1.042 0.506,-2.458 0.31,-3.569 0.215,-4.105 1.034,-4.334 1.13,-3.795 1.369,-2.438 1.31,-0.841 0.734,0.429 0.509,0.928 -0.225,0.495 0,0"
             style="fill:#1a171b;fill-opacity:1;fill-rule:nonzero;stroke:none"
             id="path126" /></g><g
           id="g128"
           transform="translate(96.1309,11.6836)"><path
             d="M 0,0 C 0.534,3.174 2.02,5.859 3.846,8.472 4.16,8.922 3.423,9.347 3.111,8.9 1.242,6.227 -0.273,3.472 -0.82,0.226 -0.91,-0.311 -0.091,-0.54 0,0"
             style="fill:#1a171b;fill-opacity:1;fill-rule:nonzero;stroke:none"
             id="path130" /></g><g
           id="g132"
           transform="translate(116.5967,11.3271)"><path
             d="M 0,0 C -0.183,3.864 -0.919,6.641 -3.301,9.774 -3.628,10.205 -4.367,9.782 -4.035,9.345 -2.932,7.893 -1.94,6.421 -1.39,4.667 -0.92,3.176 -0.923,1.548 -0.85,0 -0.824,-0.546 0.026,-0.548 0,0"
             style="fill:#1a171b;fill-opacity:1;fill-rule:nonzero;stroke:none"
             id="path134" /></g><g
           id="g136"
           transform="translate(106.4365,8.4644)"><path
             d="m 0,0 c 3.587,1.246 7.472,1.493 10.991,2.922 0.501,0.203 0.282,1.026 -0.226,0.82 C 7.246,2.313 3.36,2.066 -0.227,0.82 -0.741,0.642 -0.52,-0.18 0,0"
             style="fill:#1a171b;fill-opacity:1;fill-rule:nonzero;stroke:none"
             id="path138" /></g><g
           id="g140"
           transform="translate(104.5967,30.0107)"><path
             d="m 0,0 c -3.234,0.682 -6.16,-1.751 -8.325,-3.845 -3.166,-3.063 -5.781,-6.959 -7.539,-10.988 -1.24,-2.841 -1.374,-4.817 0.033,-7.549 1.753,-3.402 7.5,-4.529 10.655,-5.824 0.846,-0.347 1.21,1.025 0.377,1.367 -2.864,1.175 -7.817,2.126 -9.654,4.907 -1.536,2.327 -1.076,4.347 -0.012,6.786 1.467,3.36 3.644,6.475 6.082,9.195 1.831,2.042 4.937,5.232 8.006,4.585 C 0.515,-1.555 0.894,-0.188 0,0"
             style="fill:#1a171b;fill-opacity:1;fill-rule:nonzero;stroke:none"
             id="path142" /></g><g
           id="g144"
           transform="translate(107.6035,1.4912)"><path
             d="m 0,0 c -1.889,1.803 -2.354,4.973 -0.913,7.169 0.302,0.46 -0.435,0.885 -0.734,0.429 -1.644,-2.505 -1.106,-6.145 1.045,-8.2 C -0.205,-0.98 0.397,-0.379 0,0"
             style="fill:#1a171b;fill-opacity:1;fill-rule:nonzero;stroke:none"
             id="path146" /></g><g
           id="g148"
           transform="translate(109.5957,35.1162)"><path
             d="m 0,0 c 0.58,-1.654 1.032,-3.383 1.107,-5.139 0.013,-0.288 0.206,-0.634 0.521,-0.683 8.021,-1.228 11.381,-10.069 11.86,-17.252 0.528,-7.924 -10.642,-8.398 -15.969,-10.168 -0.864,-0.287 -0.494,-1.656 0.377,-1.367 6.399,2.127 17.069,2.536 17.009,11.535 -0.051,7.729 -4.577,17.344 -12.9,18.619 0.173,-0.228 0.347,-0.456 0.52,-0.684 C 2.443,-3.252 1.99,-1.401 1.367,0.377 1.066,1.233 -0.303,0.865 0,0"
             style="fill:#1a171b;fill-opacity:1;fill-rule:nonzero;stroke:none"
             id="path150" /></g><g
           id="g152"
           transform="translate(107.1895,1.6006)"><path
             d="m 0,0 c -1.513,-0.215 -3.046,-0.499 -4.58,-0.41 -1.819,0.105 -1.897,1.896 -1.861,3.349 0.074,3.048 3.088,3.753 5.575,3.91 0.545,0.034 0.548,0.884 0,0.85 -3.333,-0.21 -6.343,-1.359 -6.435,-5.131 -0.031,-1.265 0.164,-2.993 1.505,-3.544 1.83,-0.752 4.146,-0.11 6.023,0.156 C 0.768,-0.744 0.536,0.076 0,0"
             style="fill:#1a171b;fill-opacity:1;fill-rule:nonzero;stroke:none"
             id="path154" /></g><g
           id="g156"
           transform="translate(104.1074,29.0269)"><path
             d="M 0,0 C 1.811,-2.165 5.594,-0.522 7.52,0.583 7.994,0.856 7.566,1.591 7.09,1.318 5.518,0.415 2.115,-1.209 0.602,0.602 0.249,1.022 -0.349,0.417 0,0"
             style="fill:#1a171b;fill-opacity:1;fill-rule:nonzero;stroke:none"
             id="path158" /></g><g
           id="g160"
           transform="translate(94.9629,11.5366)"><path
             d="M 0,0 C 2.588,-1.145 5.386,-1.83 7.793,-3.354 8.258,-3.648 8.685,-2.912 8.223,-2.62 5.81,-1.092 3.021,-0.413 0.43,0.734 -0.067,0.954 -0.5,0.222 0,0"
             style="fill:#1a171b;fill-opacity:1;fill-rule:nonzero;stroke:none"
             id="path162" /></g><g
           id="g164"
           transform="translate(97.6025,59.1387)"><path
             d="m 0,0 c 3.589,-0.388 7.224,-0.936 10.463,-2.617 3.543,-1.838 5.328,-5.278 6.075,-9.06 0.107,-0.537 0.926,-0.309 0.82,0.227 -0.734,3.714 -2.375,6.844 -5.538,9.014 C 8.431,-0.111 3.979,0.421 0,0.851 -0.545,0.909 -0.539,0.058 0,0"
             style="fill:#1a171b;fill-opacity:1;fill-rule:nonzero;stroke:none"
             id="path166" /></g><g
           id="g168"
           transform="translate(31.6396,59.7192)"><path
             d="m 0,0 c -6.367,-2.616 -12.761,-5.248 -19.689,-5.829 -0.542,-0.045 -0.547,-0.896 0,-0.85 7.011,0.588 13.469,3.21 19.916,5.859 C 0.727,-0.615 0.508,0.208 0,0"
             style="fill:#1a171b;fill-opacity:1;fill-rule:nonzero;stroke:none"
             id="path170" /></g><g
           id="g172"
           transform="translate(124.0947,21.3291)"><path
             d="m 0,0 c 0.843,-1.249 1.58,-2.762 1.63,-4.287 0.017,-0.547 0.867,-0.549 0.849,0 C 2.426,-2.613 1.661,-0.945 0.734,0.43 0.43,0.881 -0.308,0.457 0,0"
             style="fill:#1a171b;fill-opacity:1;fill-rule:nonzero;stroke:none"
             id="path174" /></g><g
           id="g176"
           transform="translate(24.3418,27.7549)"><path
             d="m 0,0 c -1.001,-0.541 -2.148,-1.031 -3.297,-0.707 -0.529,0.149 -0.753,-0.672 -0.226,-0.82 1.377,-0.388 2.746,0.14 3.953,0.793 C 0.912,-0.474 0.482,0.261 0,0"
             style="fill:#1a171b;fill-opacity:1;fill-rule:nonzero;stroke:none"
             id="path178" /></g><g
           id="g180"
           transform="translate(50.8242,38.5205)"><path
             d="M 0,0 C -0.403,-1.191 -0.228,-2.389 0.301,-3.51 0.575,-4.093 1.438,-3.585 1.164,-3.005 0.748,-2.122 0.648,-1.197 0.965,-0.266 1.172,0.347 0.206,0.607 0,0"
             style="fill:#1a171b;fill-opacity:1;fill-rule:nonzero;stroke:none"
             id="path182" /></g><g
           id="g184"
           transform="translate(93.25,58.0151)"><path
             d="m 0,0 c -0.545,-1.117 -0.913,-2.269 -1.068,-3.502 -0.08,-0.639 0.921,-0.631 1,0 0.131,1.047 0.47,2.051 0.931,2.997 C 1.145,0.072 0.282,0.58 0,0"
             style="fill:#1a171b;fill-opacity:1;fill-rule:nonzero;stroke:none"
             id="path186" /></g><g
           id="g188"
           transform="translate(40.4316,9.6377)"><path
             d="m 0,0 c 2.072,-0.01 4.164,-0.17 6.228,0.089 0.63,0.079 0.638,1.08 0,1 C 4.164,0.83 2.072,0.99 0,1 -0.645,1.003 -0.645,0.003 0,0"
             style="fill:#1a171b;fill-opacity:1;fill-rule:nonzero;stroke:none"
             id="path190" /></g><g
           id="g192"
           transform="translate(82.1816,10.1377)"><path
             d="m 0,0 c 2.043,-0.007 4.092,-0.119 6.133,0 0.64,0.037 0.644,1.038 0,1 C 4.092,0.881 2.043,0.993 0,1 -0.645,1.002 -0.645,0.002 0,0"
             style="fill:#1a171b;fill-opacity:1;fill-rule:nonzero;stroke:none"
             id="path194" /></g></g></g></g></svg>